<?xml version="1.0" encoding="UTF-8" standalone="no"?><!DOCTYPE svg PUBLIC "-//W3C//DTD SVG 1.1//EN" "http://www.w3.org/Graphics/SVG/1.1/DTD/svg11.dtd"><svg width="100%" height="100%" viewBox="0 0 9271 9271" version="1.1" xmlns="http://www.w3.org/2000/svg" xmlns:xlink="http://www.w3.org/1999/xlink" xml:space="preserve" xmlns:serif="http://www.serif.com/" style="fill-rule:evenodd;clip-rule:evenodd;stroke-linejoin:round;stroke-miterlimit:2;"><path d="M7646.92,540.833c-76.859,3.959 -153.142,28.263 -219.842,72.917l-1865.52,1243.87c-170.104,113.021 -367.346,185.367 -570.225,209.1l-3807.92,448.158c-509.758,59.896 -894.045,492.796 -894.045,1005.94l-0,1349.57c-0,513.713 384.287,946.042 894.045,1005.38l145.242,17.52l784.408,2483.8c57.084,181.404 223.805,303.471 414.255,303.471l474.72,0c123.771,0 242.45,-53.125 324.396,-145.242c82.5,-92.674 121.492,-216.441 106.804,-339.079l-146.945,-1251.79l267.329,-0c129.962,-0 252.604,-58.213 335.121,-158.804c83.07,-101.163 115.85,-232.275 89.858,-360.554l-45.208,-225.505l1057.94,124.896c202.879,23.75 400.121,96.075 570.225,209.117l1865.52,1244.42c72.917,48.037 156.546,72.917 240.762,72.917c70.071,-0.001 140.713,-17.534 205.138,-51.996c141.287,-75.729 228.892,-222.1 228.892,-382.034l-0,-2393.94l571.354,-189.896c177.446,-59.342 296.7,-224.917 296.7,-411.979l-0,-450.992c-0,-187.05 -119.254,-352.637 -296.7,-411.979l-571.354,-189.896l-0,-2393.93c-0,-159.929 -87.605,-306.875 -228.892,-382.029c-71.196,-38.438 -149.2,-55.4 -226.058,-51.442Zm30.52,288.784c25.992,2.275 46.913,11.304 58.213,17.537c23.179,12.429 76.858,49.167 76.858,127.15l0,6442.62c0,77.988 -53.125,114.725 -76.3,127.154c-22.608,12.43 -83.629,36.163 -148.629,-7.341l-1865.52,-1243.32c-207.971,-139.029 -449.287,-227.746 -696.825,-256.579l-1559.79,-183.667l0.575,-3315.12l1559.22,-183.662c248.092,-28.821 488.854,-117.55 696.825,-256.579l1216.18,-810.4l0,4095.57c0,79.67 64.43,144.67 144.671,144.67c80.259,0 144.688,-65 144.688,-144.67l-0,-4231.75c-0,-18.088 3.941,-59.338 3.941,-59.338l356.042,-237.362c32.775,-22.05 63.871,-27.134 89.858,-24.88l0,-0.041Zm-4500.79,1742.35l-0,3245.03c-0,1.129 0.571,1.683 0.571,2.258l-1959.91,-230.575c-363.942,-42.396 -638.608,-351.525 -638.608,-718.296l-0,-1349.57c-0,-366.771 274.666,-675.904 638.608,-718.284l1959.34,-230.57Zm723.383,38.42c-80.242,0 -144.667,65 -144.667,144.667c0,79.688 64.425,144.688 144.667,144.688l289.358,-0c80.246,-0 144.671,-65 144.671,-144.688c0,-79.667 -64.425,-144.667 -144.671,-144.667l-289.358,0Zm0,723.384c-80.242,-0 -144.667,64.983 -144.667,144.671c0,79.687 64.425,144.67 144.667,144.67l289.358,0c80.246,0 144.671,-64.983 144.671,-144.67c0,-79.688 -64.425,-144.671 -144.671,-144.671l-289.358,-0Zm4201.83,339.654l479.792,159.358c59.342,19.792 98.904,75.171 98.904,137.325l0,450.988c0,62.171 -39.562,117.554 -98.904,137.329l-479.792,159.929l0,-1044.93Zm-4201.83,383.712c-80.242,0 -144.667,65 -144.667,144.688c0,79.687 64.425,144.671 144.667,144.671l289.358,-0c80.246,-0 144.671,-64.984 144.671,-144.671c0,-79.688 -64.425,-144.688 -144.671,-144.688l-289.358,0Zm0,723.388c-80.242,-0 -144.667,65 -144.667,144.671c0,79.687 64.425,144.687 144.667,144.687l289.358,0c80.246,0 144.671,-65 144.671,-144.687c0,-79.671 -64.425,-144.671 -144.671,-144.671l-289.358,-0Zm0,723.383c-80.242,0 -144.667,64.984 -144.667,144.671c0,79.688 64.425,144.671 144.667,144.671l289.358,-0c80.246,-0 144.671,-64.983 144.671,-144.671c0,-79.687 -64.425,-144.671 -144.671,-144.671l-289.358,0Zm3182.87,276.913c-80.242,-0 -144.671,65 -144.671,144.687l-0,614.859c-0,79.687 64.429,144.687 144.671,144.687c80.258,0 144.687,-65 144.687,-144.687l0,-614.859c0,-79.687 -64.429,-144.687 -144.687,-144.687Zm-5439.5,149.2l1252.36,148.075c0,5.083 -1.704,9.6 -1.129,15.258l251.475,2136.22c4.529,41.266 -7.9,81.387 -35.592,113.037c-28.262,31.075 -66.683,48.592 -108.504,48.592l-474.725,-0c-63.854,-0 -119.254,-40.675 -138.454,-101.146l-745.433,-2360.03Zm1544.53,181.979l443.646,52.554l63.854,317.604c8.475,42.396 -2.829,86.475 -30.521,120.379c-27.117,33.35 -68.383,52.555 -111.317,52.555l-301.233,-0l-64.429,-543.092Z" style="fill:#003e6b;fill-rule:nonzero;"/></svg>