<?xml version="1.0" encoding="UTF-8" standalone="no"?><!DOCTYPE svg PUBLIC "-//W3C//DTD SVG 1.1//EN" "http://www.w3.org/Graphics/SVG/1.1/DTD/svg11.dtd"><svg width="100%" height="100%" viewBox="0 0 2225 2225" version="1.1" xmlns="http://www.w3.org/2000/svg" xmlns:xlink="http://www.w3.org/1999/xlink" xml:space="preserve" xmlns:serif="http://www.serif.com/" style="fill-rule:evenodd;clip-rule:evenodd;stroke-linejoin:round;stroke-miterlimit:2;"><path d="M1835.26,129.8c-18.446,0.95 -36.754,6.783 -52.762,17.5l-447.725,298.529c-40.825,27.125 -88.163,44.488 -136.854,50.184l-913.9,107.558c-122.342,14.375 -214.571,118.271 -214.571,241.425l-0,323.896c-0,123.291 92.229,227.05 214.571,241.291l34.858,4.205l188.258,596.112c13.7,43.537 53.713,72.833 99.421,72.833l113.933,0c29.705,0 58.188,-12.75 77.855,-34.858c19.8,-22.242 29.158,-51.946 25.633,-81.379l-35.267,-300.429l64.159,-0c31.191,-0 60.625,-13.971 80.429,-38.113c19.937,-24.279 27.804,-55.746 21.566,-86.533l-10.85,-54.121l253.905,29.975c48.691,5.7 96.029,23.058 136.854,50.188l447.725,298.662c17.5,11.529 37.571,17.5 57.783,17.5c16.817,0 33.771,-4.208 49.233,-12.479c33.909,-18.175 54.934,-53.304 54.934,-91.688l-0,-574.545l137.125,-45.575c42.587,-14.242 71.208,-53.98 71.208,-98.875l0,-108.238c0,-44.892 -28.621,-84.633 -71.208,-98.875l-137.125,-45.575l-0,-574.542c-0,-38.383 -21.025,-73.65 -54.934,-91.687c-17.087,-9.225 -35.808,-13.296 -54.254,-12.346Zm7.325,69.308c6.238,0.546 11.259,2.713 13.971,4.209c5.563,2.983 18.446,11.8 18.446,30.516l0,1546.23c0,18.717 -12.75,27.534 -18.312,30.517c-5.426,2.983 -20.071,8.679 -35.671,-1.762l-447.725,-298.396c-49.913,-33.367 -107.829,-54.659 -167.238,-61.579l-374.35,-44.08l0.138,-795.629l374.212,-44.079c59.542,-6.917 117.325,-28.212 167.238,-61.579l291.883,-194.496l0,982.937c0,19.121 15.463,34.721 34.721,34.721c19.262,0 34.725,-15.6 34.725,-34.721l-0,-1015.62c-0,-4.341 0.946,-14.241 0.946,-14.241l85.45,-56.967c7.866,-5.292 15.329,-6.512 21.566,-5.971Zm-1080.19,418.163l-0,778.808c-0,0.271 0.137,0.404 0.137,0.542l-470.379,-55.338c-87.346,-10.175 -153.266,-84.366 -153.266,-172.391l-0,-323.896c-0,-88.025 65.92,-162.217 153.266,-172.388l470.242,-55.337Zm173.612,9.221c-19.258,-0 -34.72,15.6 -34.72,34.72c-0,19.125 15.462,34.725 34.72,34.725l69.446,0c19.259,0 34.721,-15.6 34.721,-34.725c0,-19.12 -15.462,-34.72 -34.721,-34.72l-69.446,-0Zm0,173.612c-19.258,0 -34.72,15.596 -34.72,34.721c-0,19.125 15.462,34.721 34.72,34.721l69.446,-0c19.259,-0 34.721,-15.596 34.721,-34.721c0,-19.125 -15.462,-34.721 -34.721,-34.721l-69.446,0Zm1008.44,81.517l115.15,38.246c14.242,4.75 23.737,18.041 23.737,32.958l0,108.237c0,14.921 -9.495,28.213 -23.737,32.959l-115.15,38.383l-0,-250.783Zm-1008.44,92.091c-19.258,0 -34.72,15.6 -34.72,34.725c-0,19.125 15.462,34.721 34.72,34.721l69.446,0c19.259,0 34.721,-15.596 34.721,-34.721c0,-19.125 -15.462,-34.725 -34.721,-34.725l-69.446,0Zm0,173.613c-19.258,-0 -34.72,15.6 -34.72,34.721c-0,19.125 15.462,34.725 34.72,34.725l69.446,-0c19.259,-0 34.721,-15.6 34.721,-34.725c0,-19.121 -15.462,-34.721 -34.721,-34.721l-69.446,-0Zm0,173.612c-19.258,0 -34.72,15.596 -34.72,34.721c-0,19.125 15.462,34.721 34.72,34.721l69.446,0c19.259,0 34.721,-15.596 34.721,-34.721c0,-19.125 -15.462,-34.721 -34.721,-34.721l-69.446,0Zm763.888,66.459c-19.258,-0 -34.721,15.6 -34.721,34.725l0,147.566c0,19.125 15.463,34.725 34.721,34.725c19.262,0 34.725,-15.6 34.725,-34.725l-0,-147.566c-0,-19.125 -15.463,-34.725 -34.725,-34.725Zm-1305.48,35.808l300.567,35.538c-0,1.22 -0.409,2.304 -0.271,3.662l60.354,512.692c1.087,9.904 -1.896,19.533 -8.542,27.129c-6.783,7.458 -16.004,11.662 -26.041,11.662l-113.934,0c-15.325,0 -28.621,-9.762 -33.229,-24.275l-178.904,-566.408Zm370.687,43.675l106.475,12.613l15.325,76.225c2.034,10.175 -0.679,20.754 -7.325,28.891c-6.508,8.004 -16.412,12.613 -26.716,12.613l-72.296,-0l-15.463,-130.342Z" style="fill:#627d98;fill-rule:nonzero;"/></svg>