<?xml version="1.0" encoding="UTF-8" standalone="no"?><!DOCTYPE svg PUBLIC "-//W3C//DTD SVG 1.1//EN" "http://www.w3.org/Graphics/SVG/1.1/DTD/svg11.dtd"><svg width="100%" height="100%" viewBox="0 0 37050 37050" version="1.1" xmlns="http://www.w3.org/2000/svg" xmlns:xlink="http://www.w3.org/1999/xlink" xml:space="preserve" xmlns:serif="http://www.serif.com/" style="fill-rule:evenodd;clip-rule:evenodd;stroke-linejoin:round;stroke-miterlimit:2;"><path d="M13690,2314.81c-773.125,0 -1498.75,300.663 -2045.82,847.709l-5009.42,5009.42c-547.046,547.063 -847.704,1272.69 -847.704,2045.81l-0,22768.4c-0,956.216 779.896,1736.11 1736.11,1736.11l23148.1,0c956.216,0 1736.11,-779.896 1736.11,-1736.11l-0.004,-28935.2c0.004,-956.216 -779.896,-1736.11 -1736.11,-1736.11l-16981.3,-0l0.071,0.017l0.008,-0.009Zm198.921,1157.41l16782.4,-0c318.729,-0 578.696,259.966 578.696,578.7l-0,28935.2c-0,318.733 -259.967,578.7 -578.696,578.7l-23148.1,-0c-318.734,-0 -578.7,-259.967 -578.7,-578.7l-0,-22569.5l5208.33,0.001c956.217,-0.001 1736.11,-779.896 1736.11,-1736.11l0,-5208.33l-0.071,-0.055l-0.008,0.009Zm-1157.41,289.358l-0,4918.96c-0,318.734 -259.967,578.7 -578.696,578.7l-4919,0c61.025,-94.933 135.629,-185.366 219.275,-268.995l5009.42,-5009.42c83.63,-81.388 174.063,-153.713 268.992,-219.271l0.013,0.025Zm-578.696,7812.5c-318.734,0 -578.7,259.967 -578.7,578.7c-0,318.733 259.966,578.696 578.7,578.696l9259.25,-0c318.75,-0 578.712,-259.963 578.712,-578.696c0,-318.733 -259.962,-578.7 -578.712,-578.7l-9259.25,0Zm11574.1,0c-318.75,0 -578.717,259.967 -578.717,578.7c0,318.733 259.967,578.696 578.717,578.696l2314.81,-0c318.734,-0 578.7,-259.963 578.7,-578.696c0,-318.733 -259.966,-578.7 -578.7,-578.7l-2314.81,0Zm-11574.1,3472.22c-318.734,0 -578.7,259.963 -578.7,578.696l-0,6944.46c-0,318.734 259.966,578.696 578.7,578.696l13888.9,0c318.733,0 578.7,-259.962 578.7,-578.696l-0,-6944.46c-0,-318.733 -259.967,-578.696 -578.7,-578.696l-13888.9,0Zm578.696,1157.4l1157.41,-0l0,2314.83l-1157.41,-0l-0,-2314.83Zm2314.83,-0l4629.62,-0l-0,2314.83l-4629.62,-0l-0,-2314.83Zm5787.04,-0l4629.62,-0l0,2314.83l-4629.62,-0l0,-2314.83Zm-8101.88,3472.22l1157.41,-0l-0,2314.83l-1157.41,-0l0,-2314.83Zm2314.83,-0l4629.62,-0l0,2314.83l-4629.62,-0l0,-2314.83Zm5787.04,-0l4629.62,-0l0,2314.83l-4629.62,-0l0,-2314.83Zm578.7,5787.04c-318.733,0 -578.7,259.963 -578.7,578.696c0,318.734 259.967,578.7 578.7,578.7l4629.62,0c318.733,0 578.7,-259.966 578.7,-578.7c0,-318.733 -259.967,-578.696 -578.7,-578.696l-4629.62,0Zm-12731.5,3472.22c-318.729,0 -578.696,259.967 -578.696,578.696l-0,1157.42c-0,318.729 259.967,578.696 578.696,578.696c318.733,-0 578.7,-259.967 578.7,-578.696l-0,-1157.42c-0,-318.729 -259.967,-578.696 -578.7,-578.696Zm2893.53,0c-318.75,0 -578.713,259.967 -578.713,578.696l0,1157.42c0,318.729 259.963,578.696 578.713,578.696c318.733,-0 578.7,-259.967 578.7,-578.696l-0,-1157.42c-0,-318.729 -259.967,-578.696 -578.7,-578.696Zm2893.51,0c-318.733,0 -578.7,259.967 -578.7,578.696l0,1157.42c0,318.729 259.967,578.696 578.7,578.696c318.75,-0 578.717,-259.967 578.717,-578.696l-0,-1157.42c-0,-318.729 -259.967,-578.696 -578.717,-578.696Zm2893.53,0c-318.733,0 -578.7,259.967 -578.7,578.696l0,1157.42c0,318.729 259.967,578.696 578.7,578.696c318.733,-0 578.696,-259.967 578.696,-578.696l-0,-1157.42c-0,-318.729 -259.963,-578.696 -578.696,-578.696Zm2893.53,0c-318.75,0 -578.717,259.967 -578.717,578.696l0,1157.42c0,318.729 259.967,578.696 578.717,578.696c318.729,-0 578.696,-259.967 578.696,-578.696l-0,-1157.42c-0,-318.729 -259.967,-578.696 -578.696,-578.696Zm2893.5,0c-318.733,0 -578.696,259.967 -578.696,578.696l0,1157.42c0,318.729 259.963,578.696 578.696,578.696c318.75,-0 578.717,-259.967 578.717,-578.696l-0,-1157.42c-0,-318.729 -259.967,-578.696 -578.717,-578.696Zm2893.53,0c-318.733,0 -578.696,259.967 -578.696,578.696l0,1157.42c0,318.729 259.963,578.696 578.696,578.696c318.734,-0 578.7,-259.967 578.7,-578.696l0,-1157.42c0,-318.729 -259.966,-578.696 -578.7,-578.696Zm2893.53,0c-318.75,0 -578.716,259.967 -578.716,578.696l-0,1157.42c-0,318.729 259.966,578.696 578.716,578.696c318.734,-0 578.696,-259.967 578.696,-578.696l0,-1157.42c0,-318.729 -259.962,-578.696 -578.696,-578.696Z" style="fill:#003e6b;fill-rule:nonzero;"/></svg>