<?xml version="1.0" encoding="UTF-8" standalone="no"?><!DOCTYPE svg PUBLIC "-//W3C//DTD SVG 1.1//EN" "http://www.w3.org/Graphics/SVG/1.1/DTD/svg11.dtd"><svg width="100%" height="100%" viewBox="0 0 8892 8892" version="1.1" xmlns="http://www.w3.org/2000/svg" xmlns:xlink="http://www.w3.org/1999/xlink" xml:space="preserve" xmlns:serif="http://www.serif.com/" style="fill-rule:evenodd;clip-rule:evenodd;stroke-linejoin:round;stroke-miterlimit:2;"><path d="M3285.59,555.554c-185.55,0 -359.7,72.159 -490.996,203.45l-1202.26,1202.26c-131.291,131.295 -203.449,305.445 -203.449,490.995l-0,5464.42c-0,229.492 187.175,416.667 416.666,416.667l5555.54,-0c229.492,-0 416.667,-187.175 416.667,-416.667l-0.001,-6944.46c0.001,-229.492 -187.175,-416.667 -416.666,-416.667l-4075.52,-0l0.017,0.004Zm47.741,277.779l4027.78,0c76.495,0 138.887,62.392 138.887,138.888l0,6944.46c0,76.496 -62.392,138.888 -138.887,138.888l-5555.54,-0c-76.496,-0 -138.888,-62.392 -138.888,-138.888l0,-5416.67l1250,-0c229.492,-0 416.667,-187.175 416.667,-416.667l0,-1250l-0.017,-0.013Zm-277.779,69.446l0,1180.55c0,76.496 -62.392,138.888 -138.887,138.888l-1180.56,-0c14.646,-22.784 32.551,-44.488 52.626,-64.559l1202.26,-1202.26c20.071,-19.533 41.775,-36.891 64.558,-52.625Zm-138.887,1875c-76.496,0 -138.888,62.392 -138.888,138.888c0,76.496 62.392,138.887 138.888,138.887l2222.22,0c76.5,0 138.891,-62.391 138.891,-138.887c0,-76.496 -62.391,-138.888 -138.891,-138.888l-2222.22,0Zm2777.78,0c-76.5,0 -138.892,62.392 -138.892,138.888c0,76.496 62.392,138.887 138.892,138.887l555.554,0c76.496,0 138.888,-62.391 138.888,-138.887c-0,-76.496 -62.392,-138.888 -138.888,-138.888l-555.554,0Zm-2777.78,833.334c-76.496,-0 -138.888,62.391 -138.888,138.887l0,1666.67c0,76.496 62.392,138.887 138.888,138.887l3333.33,0c76.496,0 138.888,-62.391 138.888,-138.887l-0,-1666.67c-0,-76.496 -62.392,-138.887 -138.888,-138.887l-3333.33,-0Zm138.887,277.775l277.779,-0l0,555.558l-277.779,-0l0,-555.558Zm555.558,-0l1111.11,-0l-0,555.558l-1111.11,-0l-0,-555.558Zm1388.89,-0l1111.11,-0l-0,555.558l-1111.11,-0l0,-555.558Zm-1944.45,833.333l277.779,-0l0,555.558l-277.779,0l0,-555.558Zm555.559,-0l1111.11,-0l-0,555.558l-1111.11,0l-0,-555.558Zm1388.89,-0l1111.11,-0l-0,555.558l-1111.11,0l0,-555.558Zm138.888,1388.89c-76.496,-0 -138.888,62.391 -138.888,138.887c0,76.496 62.392,138.888 138.888,138.888l1111.11,-0c76.496,-0 138.888,-62.392 138.888,-138.888c-0,-76.496 -62.392,-138.887 -138.888,-138.887l-1111.11,-0Zm-3055.55,833.333c-76.495,-0 -138.887,62.392 -138.887,138.887l-0,277.78c-0,76.495 62.392,138.887 138.887,138.887c76.496,0 138.888,-62.392 138.888,-138.887l-0,-277.78c-0,-76.495 -62.392,-138.887 -138.888,-138.887Zm694.446,-0c-76.5,-0 -138.891,62.392 -138.891,138.887l-0,277.78c-0,76.495 62.391,138.887 138.891,138.887c76.496,0 138.888,-62.392 138.888,-138.887l-0,-277.78c-0,-76.495 -62.392,-138.887 -138.888,-138.887Zm694.442,-0c-76.496,-0 -138.888,62.392 -138.888,138.887l0,277.78c0,76.495 62.392,138.887 138.888,138.887c76.5,0 138.892,-62.392 138.892,-138.887l-0,-277.78c-0,-76.495 -62.392,-138.887 -138.892,-138.887Zm694.446,-0c-76.496,-0 -138.888,62.392 -138.888,138.887l0,277.78c0,76.495 62.392,138.887 138.888,138.887c76.496,0 138.887,-62.392 138.887,-138.887l0,-277.78c0,-76.495 -62.391,-138.887 -138.887,-138.887Zm694.446,-0c-76.5,-0 -138.892,62.392 -138.892,138.887l-0,277.78c-0,76.495 62.392,138.887 138.892,138.887c76.495,0 138.887,-62.392 138.887,-138.887l0,-277.78c0,-76.495 -62.392,-138.887 -138.887,-138.887Zm694.441,-0c-76.496,-0 -138.887,62.392 -138.887,138.887l-0,277.78c-0,76.495 62.391,138.887 138.887,138.887c76.5,0 138.892,-62.392 138.892,-138.887l-0,-277.78c-0,-76.495 -62.392,-138.887 -138.892,-138.887Zm694.446,-0c-76.496,-0 -138.887,62.392 -138.887,138.887l-0,277.78c-0,76.495 62.391,138.887 138.887,138.887c76.496,0 138.888,-62.392 138.888,-138.887l-0,-277.78c-0,-76.495 -62.392,-138.887 -138.888,-138.887Zm694.446,-0c-76.5,-0 -138.892,62.392 -138.892,138.887l0,277.78c0,76.495 62.392,138.887 138.892,138.887c76.496,0 138.887,-62.392 138.887,-138.887l0,-277.78c0,-76.495 -62.391,-138.887 -138.887,-138.887Z" style="fill:#627d98;fill-rule:nonzero;"/></svg>