<svg height="64" viewBox="0 0 64 64" width="64" xmlns="http://www.w3.org/2000/svg"><path d="m19 2c-1.648438 0-3 1.351562-3 3v7h-13c-1.648438 0-3 1.351562-3 3v34c0 1.648438 1.351562 3 3 3h23v2h-2.34375c-1.335938 0-2.589844.519531-3.535156 1.464844l-2.828125 2.828125c-.285157.285156-.371094.714843-.21875 1.089843.15625.371094.523437.617188.925781.617188h28c.402344 0 .769531-.246094.925781-.617188.152344-.375.066407-.804687-.21875-1.089843l-2.828125-2.828125c-.945312-.945313-2.199218-1.464844-3.535156-1.464844h-2.34375v-2h23c1.648438 0 3-1.351562 3-3v-34c0-1.648438-1.351562-3-3-3h-13v-7c0-1.648438-1.351562-3-3-3zm0 2h26c.550781 0 1 .449219 1 1v33h-2c0-.550781-.449219-1-1-1h-2c-.550781 0-1 .449219-1 1h-16c0-.550781-.449219-1-1-1h-2c-.550781 0-1 .449219-1 1h-2v-33c0-.550781.449219-1 1-1zm13 34c3.722656 0 6.972656-1.640625 8.691406-4.0625.101563.03125.199219.0625.308594.0625h2c.550781 0 1-.449219 1-1s-.449219-1-1-1h-1.328125c.207031-.640625.328125-1.308594.328125-2s-.121094-1.359375-.328125-2h1.328125c.550781 0 1-.449219 1-1s-.449219-1-1-1h-2c-.109375 0-.207031.03125-.308594.0625-1.71875-2.421875-4.96875-4.0625-8.691406-4.0625s-6.972656 1.640625-8.691406 4.0625c-.101563-.03125-.199219-.0625-.308594-.0625h-2c-.550781 0-1 .449219-1 1s.449219 1 1 1h1.328125c-.207031.640625-.328125 1.308594-.328125 2 0 .683594.121094 1.351562.328125 2h-1.328125c-.550781 0-1 .449219-1 1s.449219 1 1 1h2c.105469 0 .203125-.03125.296875-.0625.519531.738281 1.179687 1.414062 1.972656 1.992188 1.84375 1.335937 4.234375 2.070312 6.730469 2.070312zm-10-32c-.550781 0-1 .449219-1 1v5c0 .550781.449219 1 1 1s1-.449219 1-1v-5c0-.550781-.449219-1-1-1zm20 0c-.550781 0-1 .449219-1 1v5c0 .550781.449219 1 1 1s1-.449219 1-1v-5c0-.550781-.449219-1-1-1zm-10 2c-2.207031 0-4 1.792969-4 4s1.792969 4 4 4 4-1.792969 4-4-1.792969-4-4-4zm0 2c1.101562 0 2 .898438 2 2s-.898438 2-2 2-2-.898438-2-2 .898438-2 2-2zm-29 4h13v2h-14v-1c0-.550781.449219-1 1-1zm45 0h13c.550781 0 1 .449219 1 1v29h-5c-.550781 0-1 .449219-1 1s.449219 1 1 1h5v3c0 .550781-.449219 1-1 1h-58c-.550781 0-1-.449219-1-1v-3h51.082031c.550781 0 1-.449219 1-1s-.449219-1-1-1h-51.082031v-26h14v20h-5c-.550781 0-1 .449219-1 1s.449219 1 1 1h42c.550781 0 1-.449219 1-1s-.449219-1-1-1h-5v-20h3c.550781 0 1-.449219 1-1s-.449219-1-1-1h-3zm-27 2c-.550781 0-1 .449219-1 1s.449219 1 1 1h2c.550781 0 1-.449219 1-1s-.449219-1-1-1zm20 0c-.550781 0-1 .449219-1 1s.449219 1 1 1h2c.550781 0 1-.449219 1-1s-.449219-1-1-1zm14 0c-.550781 0-1 .449219-1 1s.449219 1 1 1h4c.550781 0 1-.449219 1-1s-.449219-1-1-1zm-34 5c-.550781 0-1 .449219-1 1s.449219 1 1 1h2c.550781 0 1-.449219 1-1s-.449219-1-1-1zm20 0c-.550781 0-1 .449219-1 1s.449219 1 1 1h2c.550781 0 1-.449219 1-1s-.449219-1-1-1zm-9 3c4.410156 0 8 2.691406 8 6s-3.589844 6-8 6c-2.078125 0-4.050781-.601562-5.550781-1.691406-1.578125-1.144532-2.449219-2.675782-2.449219-4.308594 0-3.308594 3.589844-6 8-6zm-4 28h8v2h-8zm-4.34375 4h16.6875c.789062 0 1.5625.320312 2.121094.878906l1.121094 1.121094h-23.171876l1.121094-1.121094c.558594-.558594 1.332032-.878906 2.121094-.878906zm0 0" fill="#003e6b"/></svg>