<svg height="64" viewBox="0 0 64 64" width="64" xmlns="http://www.w3.org/2000/svg"><path d="m19 2c-.210938 0-.421875.066406-.597656.199219l-3.402344 2.550781-3.402344-2.550781c-.300781-.230469-.707031-.261719-1.046875-.09375-.335937.171875-.550781.515625-.550781.894531v27h-1c-4.964844 0-9 4.039062-9 9v20c0 1.652344 1.347656 3 3 3h58c1.652344 0 3-1.347656 3-3v-20c0-4.960938-4.035156-9-9-9h-1v-25c0-.265625-.105469-.519531-.292969-.707031l-2-2c-.351562-.351563-.910156-.394531-1.304687-.09375l-3.402344 2.550781-3.402344-2.550781c-.351562-.265625-.84375-.265625-1.195312 0l-3.402344 2.550781-3.402344-2.550781c-.351562-.265625-.84375-.265625-1.195312 0l-3.402344 2.550781-3.402344-2.550781c-.351562-.265625-.84375-.265625-1.195312 0l-3.402344 2.550781-3.402344-2.550781c-.175781-.132813-.386718-.199219-.597656-.199219zm0 2.25 3.402344 2.550781c.351562.265625.84375.265625 1.195312 0l3.402344-2.550781 3.402344 2.550781c.351562.265625.84375.265625 1.195312 0l3.402344-2.550781 3.402344 2.550781c.351562.265625.84375.265625 1.195312 0l3.402344-2.550781 3.402344 2.550781c.351562.265625.84375.265625 1.195312 0l3.308594-2.480469 1.09375 1.09375v29.585938c-.554688 0-1 .449219-1 1v2c0 .550781.445312 1 1 1v3h-40v-3c.554688 0 1-.449219 1-1v-2c0-.550781-.445312-1-1-1v-30l2.402344 1.800781c.351562.265625.84375.265625 1.195312 0zm0 9.75c-.554688 0-1 .449219-1 1s.445312 1 1 1h16c.554688 0 1-.449219 1-1s-.445312-1-1-1zm22 0c-.554688 0-1 .449219-1 1s.445312 1 1 1h4c.554688 0 1-.449219 1-1s-.445312-1-1-1zm-22 4c-.554688 0-1 .449219-1 1s.445312 1 1 1h11c.554688 0 1-.449219 1-1s-.445312-1-1-1zm24 0c-.554688 0-1 .449219-1 1s.445312 1 1 1h2c.554688 0 1-.449219 1-1s-.445312-1-1-1zm-24 6c-.554688 0-1 .449219-1 1s.445312 1 1 1h10c.554688 0 1-.449219 1-1s-.445312-1-1-1zm22 0c-.554688 0-1 .449219-1 1s.445312 1 1 1h4c.554688 0 1-.449219 1-1s-.445312-1-1-1zm-22 4c-.554688 0-1 .449219-1 1s.445312 1 1 1h13c.554688 0 1-.449219 1-1s-.445312-1-1-1zm22 0c-.554688 0-1 .449219-1 1s.445312 1 1 1h4c.554688 0 1-.449219 1-1s-.445312-1-1-1zm-32 4h1v4c-2.207031 0-4 1.792969-4 4s1.792969 4 4 4h44c2.207031 0 4-1.792969 4-4s-1.792969-4-4-4v-4h1c3.859375 0 7 3.140625 7 7v20c0 .550781-.449219 1-1 1h-58c-.550781 0-1-.449219-1-1v-20c0-3.859375 3.140625-7 7-7zm8 3c-.554688 0-1 .449219-1 1v2c0 .550781.445312 1 1 1s1-.449219 1-1v-2c0-.550781-.445312-1-1-1zm5 0c-.554688 0-1 .449219-1 1v2c0 .550781.445312 1 1 1s1-.449219 1-1v-2c0-.550781-.445312-1-1-1zm5 0c-.554688 0-1 .449219-1 1v2c0 .550781.445312 1 1 1s1-.449219 1-1v-2c0-.550781-.445312-1-1-1zm5 0c-.554688 0-1 .449219-1 1v2c0 .550781.445312 1 1 1s1-.449219 1-1v-2c0-.550781-.445312-1-1-1zm5 0c-.554688 0-1 .449219-1 1v2c0 .550781.445312 1 1 1s1-.449219 1-1v-2c0-.550781-.445312-1-1-1zm5 0c-.554688 0-1 .449219-1 1v2c0 .550781.445312 1 1 1s1-.449219 1-1v-2c0-.550781-.445312-1-1-1zm5 0c-.554688 0-1 .449219-1 1v2c0 .550781.445312 1 1 1s1-.449219 1-1v-2c0-.550781-.445312-1-1-1zm-37 3v4c-1.101562 0-2-.898438-2-2s.898438-2 2-2zm44 0c1.101562 0 2 .898438 2 2s-.898438 2-2 2zm-46 9.949219c-1.101562 0-2 .898437-2 2v4c0 1.101562.898438 2 2 2h26c1.101562 0 2-.898438 2-2v-4c0-1.101563-.898438-2-2-2zm34 0c-1.101562 0-2 .898437-2 2v4c0 1.101562.898438 2 2 2h4c1.101562 0 2-.898438 2-2v-4c0-1.101563-.898438-2-2-2zm10 0c-1.101562 0-2 .898437-2 2v4c0 1.101562.898438 2 2 2h4c1.101562 0 2-.898438 2-2v-4c0-1.101563-.898438-2-2-2zm-44 2h26v4h-26zm34 0h4v4h-4zm10 0h4v4h-4zm0 0" fill="#003e6b"/></svg>