<svg height="512pt" viewBox="0 0 512 512" width="512pt" xmlns="http://www.w3.org/2000/svg"><path d="m264 32c-128 0-232 104-232 232s104 232 232 232 232-104 232-232-104-232-232-232zm0 14.40625h8v32.78125h-16v-32c2.40625-.78125 5.59375-.78125 8-.78125zm-24 1.59375v33.59375c-89.59375 12-160 88.8125-160 182.40625 0 101.59375 82.40625 184 184 184 56 0 108-24.8125 143.21875-68 2.375-3.1875 2.375-8.8125-.8125-11.21875-3.1875-2.375-8.8125-2.375-11.1875.8125-27.21875 32.8125-64.8125 54.40625-106.4375 60l16-124.8125v-1.5625c2.40625-2.40625 4.8125-5.625 7.21875-8.8125l120-37.625v7.21875c0 8.8125-.78125 16.78125-1.59375 24.78125-.8125 4 2.375 8.8125 6.375 8.8125 4 .8125 8.8125-2.375 8.8125-6.375 1.59375-8.8125 2.40625-18.40625 2.40625-27.21875 0-93.59375-70.40625-170.40625-160-182.40625v-33.59375c108.8125 12 193.59375 104 193.59375 216 0 120-97.59375 217.59375-217.59375 217.59375s-217.59375-97.59375-217.59375-217.59375c0-112 84.78125-204 193.59375-216zm24 48c72.8125 0 135.21875 47.1875 158.40625 112l-119.1875 16c-10.40625-9.59375-24.03125-16-39.21875-16s-28.8125 6.40625-39.21875 16l-119.1875-16c23.1875-65.59375 85.59375-112 158.40625-112zm0 48c-4.8125 0-8 3.1875-8 8v16c0 4.8125 3.1875 8 8 8s8-3.1875 8-8v-16c0-4.8125-3.1875-8-8-8zm-43.3125 9c-1.03125 0-2.09375.1875-3.09375.59375-4 1.59375-5.59375 6.40625-4 10.40625l6.40625 14.40625c1.59375 3.1875 4 4.8125 7.21875 4.8125.78125 0 2.375 0 3.1875-.8125 4-1.59375 5.59375-6.40625 4-10.40625l-6.40625-14.40625c-1.1875-3-4.1875-4.65625-7.3125-4.59375zm87.4375 0c-3.125-.0625-6.125 1.59375-7.34375 4.59375l-6.375 14.40625c-1.59375 4 0 8.8125 4 10.40625.8125.8125 2.375.8125 3.1875.8125 3.1875 0 6.40625-1.625 7.1875-4.8125l6.4375-14.40625c1.59375-4 0-8.8125-4-10.40625-1-.40625-2.0625-.59375-3.09375-.59375zm-123.34375 23.78125c-2 0-3.96875.8125-5.5625 2.4375-3.21875 3.1875-3.21875 8 0 11.1875l11.1875 11.1875c1.59375 1.59375 4 2.40625 5.59375 2.40625s4-.8125 5.59375-2.40625c3.1875-3.1875 3.1875-8 0-11.1875l-11.1875-11.1875c-1.59375-1.625-3.625-2.4375-5.625-2.4375zm158.4375 0c-2 0-4.03125.8125-5.625 2.4375l-11.1875 11.1875c-3.1875 3.1875-3.1875 8 0 11.1875 1.59375 1.59375 4 2.40625 5.59375 2.40625s4-.8125 5.59375-2.40625l11.1875-11.1875c3.21875-3.1875 3.21875-8 0-11.1875-1.59375-1.625-3.5625-2.4375-5.5625-2.4375zm-79.21875 45.625c22.40625 0 41.59375 19.1875 41.59375 41.59375s-18.40625 41.59375-41.59375 41.59375-41.59375-19.1875-41.59375-41.59375 19.1875-41.59375 41.59375-41.59375zm-163.21875.8125c.8125 0 .8125.78125 1.625.78125l111.1875 15.21875c-4 7.1875-6.375 15.96875-6.375 25.5625.78125 3.21875.78125 6.4375 1.5625 10.4375l-110.375-35.21875h-.8125c.8125-5.59375 1.59375-11.1875 3.1875-16.78125zm325.625 0c1.59375 5.59375 2.375 11.1875 3.1875 16.78125h-.8125l-110.375 34.40625c1.59375-3.1875 1.59375-6.40625 1.59375-10.40625 0-8.8125-2.40625-17.59375-6.40625-25.59375l111.1875-14.40625c.8125 0 .8125 0 1.625-.78125zm-330.40625 33.5625 120.78125 37.625c2.40625 3.1875 4.8125 6.40625 7.21875 8.8125v1.5625l16 124.8125c-81.59375-11.1875-144-81.59375-144-165.59375zm145.59375 57.625c6.40625 4 14.40625 5.59375 22.40625 5.59375s16-1.59375 22.40625-4.78125l-14.40625 116.78125h-8c-2.40625 0-5.59375 0-8-.78125v-.8125zm187.3125 3.5c-3.125.1875-6.125 2.3125-7.3125 5.3125l-7.1875 16.78125c-1.59375 4-.8125 8.8125 3.1875 10.40625.8125.8125 2.40625.8125 3.1875.8125 3.21875 0 5.625-1.625 7.21875-4 3.1875-5.625 5.59375-12.03125 8-18.4375 1.59375-4.78125 0-8.78125-4-10.375-1-.40625-2.0625-.5625-3.09375-.5zm0 0" fill="#003e6b"/></svg>