<?xml version="1.0" encoding="UTF-8"?>
<svg xmlns="http://www.w3.org/2000/svg" xmlns:xlink="http://www.w3.org/1999/xlink" width="512pt" height="512pt" viewBox="0 0 512 512" version="1.1">
<g id="surface1305903">
<path style=" stroke:none;fill-rule:nonzero;fill:rgb(0%,24.313726%,41.960785%);fill-opacity:1;" d="M 264 32 C 136 32 32 136 32 264 C 32 392 136 496 264 496 C 392 496 496 392 496 264 C 496 136 392 32 264 32 Z M 264 46.40625 L 272 46.40625 L 272 79.1875 L 256 79.1875 L 256 47.1875 C 258.40625 46.40625 261.59375 46.40625 264 46.40625 Z M 240 48 L 240 81.59375 C 150.40625 93.59375 80 170.40625 80 264 C 80 365.59375 162.40625 448 264 448 C 320 448 372 423.1875 407.21875 380 C 409.59375 376.8125 409.59375 371.1875 406.40625 368.78125 C 403.21875 366.40625 397.59375 366.40625 395.21875 369.59375 C 368 402.40625 330.40625 424 288.78125 429.59375 L 304.78125 304.78125 L 304.78125 303.21875 C 307.1875 300.8125 309.59375 297.59375 312 294.40625 L 432 256.78125 L 432 264 C 432 272.8125 431.21875 280.78125 430.40625 288.78125 C 429.59375 292.78125 432.78125 297.59375 436.78125 297.59375 C 440.78125 298.40625 445.59375 295.21875 445.59375 291.21875 C 447.1875 282.40625 448 272.8125 448 264 C 448 170.40625 377.59375 93.59375 288 81.59375 L 288 48 C 396.8125 60 481.59375 152 481.59375 264 C 481.59375 384 384 481.59375 264 481.59375 C 144 481.59375 46.40625 384 46.40625 264 C 46.40625 152 131.1875 60 240 48 Z M 264 96 C 336.8125 96 399.21875 143.1875 422.40625 208 L 303.21875 224 C 292.8125 214.40625 279.1875 208 264 208 C 248.8125 208 235.1875 214.40625 224.78125 224 L 105.59375 208 C 128.78125 142.40625 191.1875 96 264 96 Z M 264 144 C 259.1875 144 256 147.1875 256 152 L 256 168 C 256 172.8125 259.1875 176 264 176 C 268.8125 176 272 172.8125 272 168 L 272 152 C 272 147.1875 268.8125 144 264 144 Z M 220.6875 153 C 219.65625 153 218.59375 153.1875 217.59375 153.59375 C 213.59375 155.1875 212 160 213.59375 164 L 220 178.40625 C 221.59375 181.59375 224 183.21875 227.21875 183.21875 C 228 183.21875 229.59375 183.21875 230.40625 182.40625 C 234.40625 180.8125 236 176 234.40625 172 L 228 157.59375 C 226.8125 154.59375 223.8125 152.9375 220.6875 153 Z M 308.125 153 C 305 152.9375 302 154.59375 300.78125 157.59375 L 294.40625 172 C 292.8125 176 294.40625 180.8125 298.40625 182.40625 C 299.21875 183.21875 300.78125 183.21875 301.59375 183.21875 C 304.78125 183.21875 308 181.59375 308.78125 178.40625 L 315.21875 164 C 316.8125 160 315.21875 155.1875 311.21875 153.59375 C 310.21875 153.1875 309.15625 153 308.125 153 Z M 184.78125 176.78125 C 182.78125 176.78125 180.8125 177.59375 179.21875 179.21875 C 176 182.40625 176 187.21875 179.21875 190.40625 L 190.40625 201.59375 C 192 203.1875 194.40625 204 196 204 C 197.59375 204 200 203.1875 201.59375 201.59375 C 204.78125 198.40625 204.78125 193.59375 201.59375 190.40625 L 190.40625 179.21875 C 188.8125 177.59375 186.78125 176.78125 184.78125 176.78125 Z M 343.21875 176.78125 C 341.21875 176.78125 339.1875 177.59375 337.59375 179.21875 L 326.40625 190.40625 C 323.21875 193.59375 323.21875 198.40625 326.40625 201.59375 C 328 203.1875 330.40625 204 332 204 C 333.59375 204 336 203.1875 337.59375 201.59375 L 348.78125 190.40625 C 352 187.21875 352 182.40625 348.78125 179.21875 C 347.1875 177.59375 345.21875 176.78125 343.21875 176.78125 Z M 264 222.40625 C 286.40625 222.40625 305.59375 241.59375 305.59375 264 C 305.59375 286.40625 287.1875 305.59375 264 305.59375 C 240.8125 305.59375 222.40625 286.40625 222.40625 264 C 222.40625 241.59375 241.59375 222.40625 264 222.40625 Z M 100.78125 223.21875 C 101.59375 223.21875 101.59375 224 102.40625 224 L 213.59375 239.21875 C 209.59375 246.40625 207.21875 255.1875 207.21875 264.78125 C 208 268 208 271.21875 208.78125 275.21875 L 98.40625 240 L 97.59375 240 C 98.40625 234.40625 99.1875 228.8125 100.78125 223.21875 Z M 426.40625 223.21875 C 428 228.8125 428.78125 234.40625 429.59375 240 L 428.78125 240 L 318.40625 274.40625 C 320 271.21875 320 268 320 264 C 320 255.1875 317.59375 246.40625 313.59375 238.40625 L 424.78125 224 C 425.59375 224 425.59375 224 426.40625 223.21875 Z M 96 256.78125 L 216.78125 294.40625 C 219.1875 297.59375 221.59375 300.8125 224 303.21875 L 224 304.78125 L 240 429.59375 C 158.40625 418.40625 96 348 96 264 Z M 241.59375 314.40625 C 248 318.40625 256 320 264 320 C 272 320 280 318.40625 286.40625 315.21875 L 272 432 L 264 432 C 261.59375 432 258.40625 432 256 431.21875 L 256 430.40625 Z M 428.90625 317.90625 C 425.78125 318.09375 422.78125 320.21875 421.59375 323.21875 L 414.40625 340 C 412.8125 344 413.59375 348.8125 417.59375 350.40625 C 418.40625 351.21875 420 351.21875 420.78125 351.21875 C 424 351.21875 426.40625 349.59375 428 347.21875 C 431.1875 341.59375 433.59375 335.1875 436 328.78125 C 437.59375 324 436 320 432 318.40625 C 431 318 429.9375 317.84375 428.90625 317.90625 Z M 428.90625 317.90625 "/>
</g>
</svg>
