<svg height="512pt" viewBox="0 0 512 512" width="512pt" xmlns="http://www.w3.org/2000/svg"><path d="m251.625.0625c-26.625 0-53.25 10.125-73.5 30.40625-3.15625 3.125-3.15625 8.1875 0 11.3125l81.09375 81.09375c8.0625 8.15625 10 17.78125 10.9375 27.21875l3.625 26.78125-254.0625 238.25c-15.59375 15.59375-15.59375 41 0 56.59375l22.625 22.59375c7.78125 7.78125 18 11.6875 28.21875 11.6875 10.28125 0 20.625-3.9375 28.53125-11.875l239.875-255.78125 7.625-3.625c9.875-4.71875 21.71875-2.71875 29.5 5.03125 3.03125 3.03125 4.6875 7.0625 4.6875 11.34375 0 4.25-1.65625 8.28125-4.6875 11.28125-3.03125 3.03125-4.6875 7.0625-4.6875 11.34375s1.65625 8.28125 4.6875 11.28125l16.96875 17c7.8125 7.78125 18.03125 11.6875 28.28125 11.6875s20.5-3.90625 28.28125-11.6875l45.25-45.25c15.59375-15.59375 15.625-41 0-56.59375l-16.96875-16.9375c-6.21875-6.25-16.375-6.25-22.625 0-6.21875 6.21875-16.40625 6.21875-22.625 0-3.03125-3.03125-4.6875-7.0625-4.6875-11.34375 0-4.25 1.65625-8.28125 4.6875-11.28125 3.03125-3.03125 4.71875-7.0625 4.71875-11.34375s-1.6875-8.28125-4.71875-11.28125l-107.46875-107.5c-20.28125-20.28125-46.90625-30.40625-73.5625-30.40625zm3.78125 16.0625c21.28125.875 42.28125 9.4375 58.46875 25.65625l107.5 107.46875c-6.0625 6.0625-9.40625 14.09375-9.40625 22.625 0 8.5625 3.34375 16.59375 9.40625 22.625 4.125 4.15625 9.15625 6.78125 14.4375 8.1875l-40.21875 40.21875c-1.4375-5.40625-4.125-10.40625-8.1875-14.4375-8.03125-8.0625-18.78125-12.3125-29.65625-12.3125-6.125 0-12.28125 1.34375-18.03125 4.09375l-3.90625 1.875-45.96875-46-3.75-27.90625c-1.09375-10.84375-3.84375-24.8125-15.53125-36.625l-52.40625-52.40625c21.90625-16.40625 53.1875-14.6875 73.09375 5.1875l34.15625 34.1875c1.5625 1.5625 3.625 2.34375 5.6875 2.34375 2.03125 0 4.09375-.78125 5.65625-2.34375 3.125-3.125 3.125-8.1875 0-11.3125l-34.1875-34.1875c-13.59375-13.5625-31.6875-21.0625-50.9375-21.0625-16.53125 0-32.1875 5.5625-44.875 15.75l-11.40625-11.375c17.25-14.40625 38.78125-21.15625 60.0625-20.25zm98.3125 91.40625c-2.03125 0-4.09375.78125-5.65625 2.34375-3.125 3.15625-3.125 8.1875 0 11.34375l22.375 22.375c1.5625 1.5625 3.59375 2.34375 5.65625 2.34375s4.09375-.78125 5.65625-2.34375c3.125-3.125 3.125-8.1875 0-11.3125l-22.375-22.40625c-1.5625-1.5625-3.625-2.34375-5.65625-2.34375zm-71.625 83.46875 40.9375 40.9375-21.90625 23.34375-42.375-42.375zm184.53125 3.5 16.96875 17c9.34375 9.34375 9.34375 24.5625 0 33.90625l-45.28125 45.28125c-9.0625 9.0625-24.84375 9.0625-33.9375 0l-16.96875-16.96875zm-219.5625 29.375 43.09375 43.09375-202.5625 216.03125c-9.375 9.375-24.5625 9.375-33.9375 0l-22.625-22.625c-9.375-9.34375-9.375-24.59375-.1875-33.75zm-6.71875 30.5c-2.03125 0-4.09375.78125-5.65625 2.375-3.125 3.125-3.125 8.15625 0 11.28125l11.3125 11.34375c1.53125 1.53125 3.59375 2.34375 5.625 2.34375 2.0625 0 4.125-.8125 5.65625-2.34375 3.15625-3.15625 3.15625-8.1875 0-11.34375l-11.28125-11.28125c-1.59375-1.59375-3.625-2.375-5.65625-2.375zm-28.3125 28.28125c-2.03125 0-4.0625.8125-5.65625 2.375-3.125 3.125-3.125 8.1875 0 11.3125l11.34375 11.28125c1.53125 1.5625 3.59375 2.375 5.65625 2.375 2.03125 0 4.09375-.8125 5.625-2.375 3.15625-3.125 3.15625-8.15625 0-11.28125l-11.28125-11.3125c-1.59375-1.5625-3.625-2.375-5.6875-2.375zm-28.28125 28.3125c-2.03125 0-4.0625.75-5.625 2.3125-3.15625 3.15625-3.15625 8.1875 0 11.34375l11.28125 11.28125c1.5625 1.5625 3.625 2.34375 5.6875 2.34375 2.03125 0 4.09375-.78125 5.65625-2.34375 3.125-3.125 3.125-8.15625 0-11.28125l-11.34375-11.34375c-1.5625-1.5625-3.59375-2.3125-5.65625-2.3125zm-28.25 28.28125c-2.0625 0-4.09375.75-5.65625 2.34375-3.15625 3.125-3.15625 8.1875 0 11.28125l11.28125 11.34375c1.5625 1.53125 3.625 2.3125 5.65625 2.3125 2.0625 0 4.125-.78125 5.6875-2.3125 3.125-3.15625 3.125-8.21875 0-11.34375l-11.34375-11.28125c-1.5625-1.59375-3.59375-2.34375-5.625-2.34375zm-28.3125 28.28125c-2.03125 0-4.09375.78125-5.65625 2.34375-3.125 3.125-3.125 8.1875 0 11.3125l11.3125 11.3125c1.5625 1.5625 3.59375 2.34375 5.65625 2.34375s4.09375-.78125 5.65625-2.34375c3.125-3.125 3.125-8.1875 0-11.3125l-11.3125-11.3125c-1.5625-1.5625-3.625-2.34375-5.65625-2.34375zm-28.28125 28.28125c-2.03125 0-4.09375.78125-5.65625 2.34375-3.125 3.125-3.125 8.1875 0 11.3125l11.3125 11.3125c1.5625 1.5625 3.59375 2.34375 5.65625 2.34375s4.09375-.78125 5.65625-2.34375c3.125-3.125 3.125-8.1875 0-11.3125l-11.3125-11.3125c-1.5625-1.5625-3.625-2.34375-5.65625-2.34375zm-28.28125 28.28125c-2.03125 0-4.09375.78125-5.65625 2.34375-3.125 3.125-3.125 8.1875 0 11.3125l11.3125 11.34375c1.5625 1.53125 3.59375 2.3125 5.65625 2.3125s4.09375-.78125 5.65625-2.3125c3.125-3.125 3.125-8.1875 0-11.34375l-11.3125-11.3125c-1.5625-1.5625-3.625-2.34375-5.65625-2.34375zm0 0" fill="#003e6b"/></svg>