<?xml version="1.0" encoding="UTF-8"?>
<svg xmlns="http://www.w3.org/2000/svg" xmlns:xlink="http://www.w3.org/1999/xlink" width="512pt" height="512pt" viewBox="0 0 512 512" version="1.1">
<g id="surface1359832">
<path style=" stroke:none;fill-rule:nonzero;fill:rgb(0%,24.313726%,41.960785%);fill-opacity:1;" d="M 251.625 0.0625 C 225 0.0625 198.375 10.1875 178.125 30.46875 C 174.96875 33.59375 174.96875 38.65625 178.125 41.78125 L 259.21875 122.875 C 267.28125 131.03125 269.21875 140.65625 270.15625 150.09375 L 273.78125 176.875 L 19.71875 415.125 C 4.125 430.71875 4.125 456.125 19.71875 471.71875 L 42.34375 494.3125 C 50.125 502.09375 60.34375 506 70.5625 506 C 80.84375 506 91.1875 502.0625 99.09375 494.125 L 338.96875 238.34375 L 346.59375 234.71875 C 356.46875 230 368.3125 232 376.09375 239.75 C 379.125 242.78125 380.78125 246.8125 380.78125 251.09375 C 380.78125 255.34375 379.125 259.375 376.09375 262.375 C 373.0625 265.40625 371.40625 269.4375 371.40625 273.71875 C 371.40625 278 373.0625 282 376.09375 285 L 393.0625 302 C 400.875 309.78125 411.09375 313.6875 421.34375 313.6875 C 431.59375 313.6875 441.84375 309.78125 449.625 302 L 494.875 256.75 C 510.46875 241.15625 510.5 215.75 494.875 200.15625 L 477.90625 183.21875 C 471.6875 176.96875 461.53125 176.96875 455.28125 183.21875 C 449.0625 189.4375 438.875 189.4375 432.65625 183.21875 C 429.625 180.1875 427.96875 176.15625 427.96875 171.875 C 427.96875 167.625 429.625 163.59375 432.65625 160.59375 C 435.6875 157.5625 437.375 153.53125 437.375 149.25 C 437.375 144.96875 435.6875 140.96875 432.65625 137.96875 L 325.1875 30.46875 C 304.90625 10.1875 278.28125 0.0625 251.625 0.0625 Z M 255.40625 16.125 C 276.6875 17 297.6875 25.5625 313.875 41.78125 L 421.375 149.25 C 415.3125 155.3125 411.96875 163.34375 411.96875 171.875 C 411.96875 180.4375 415.3125 188.46875 421.375 194.5 C 425.5 198.65625 430.53125 201.28125 435.8125 202.6875 L 395.59375 242.90625 C 394.15625 237.5 391.46875 232.5 387.40625 228.46875 C 379.375 220.40625 368.625 216.15625 357.75 216.15625 C 351.625 216.15625 345.46875 217.5 339.71875 220.25 L 335.8125 222.125 L 289.84375 176.125 L 286.09375 148.21875 C 285 137.375 282.25 123.40625 270.5625 111.59375 L 218.15625 59.1875 C 240.0625 42.78125 271.34375 44.5 291.25 64.375 L 325.40625 98.5625 C 326.96875 100.125 329.03125 100.90625 331.09375 100.90625 C 333.125 100.90625 335.1875 100.125 336.75 98.5625 C 339.875 95.4375 339.875 90.375 336.75 87.25 L 302.5625 53.0625 C 288.96875 39.5 270.875 32 251.625 32 C 235.09375 32 219.4375 37.5625 206.75 47.75 L 195.34375 36.375 C 212.59375 21.96875 234.125 15.21875 255.40625 16.125 Z M 353.71875 107.53125 C 351.6875 107.53125 349.625 108.3125 348.0625 109.875 C 344.9375 113.03125 344.9375 118.0625 348.0625 121.21875 L 370.4375 143.59375 C 372 145.15625 374.03125 145.9375 376.09375 145.9375 C 378.15625 145.9375 380.1875 145.15625 381.75 143.59375 C 384.875 140.46875 384.875 135.40625 381.75 132.28125 L 359.375 109.875 C 357.8125 108.3125 355.75 107.53125 353.71875 107.53125 Z M 282.09375 191 L 323.03125 231.9375 L 301.125 255.28125 L 258.75 212.90625 Z M 466.625 194.5 L 483.59375 211.5 C 492.9375 220.84375 492.9375 236.0625 483.59375 245.40625 L 438.3125 290.6875 C 429.25 299.75 413.46875 299.75 404.375 290.6875 L 387.40625 273.71875 Z M 247.0625 223.875 L 290.15625 266.96875 L 87.59375 483 C 78.21875 492.375 63.03125 492.375 53.65625 483 L 31.03125 460.375 C 21.65625 451.03125 21.65625 435.78125 30.84375 426.625 Z M 240.34375 254.375 C 238.3125 254.375 236.25 255.15625 234.6875 256.75 C 231.5625 259.875 231.5625 264.90625 234.6875 268.03125 L 246 279.375 C 247.53125 280.90625 249.59375 281.71875 251.625 281.71875 C 253.6875 281.71875 255.75 280.90625 257.28125 279.375 C 260.4375 276.21875 260.4375 271.1875 257.28125 268.03125 L 246 256.75 C 244.40625 255.15625 242.375 254.375 240.34375 254.375 Z M 212.03125 282.65625 C 210 282.65625 207.96875 283.46875 206.375 285.03125 C 203.25 288.15625 203.25 293.21875 206.375 296.34375 L 217.71875 307.625 C 219.25 309.1875 221.3125 310 223.375 310 C 225.40625 310 227.46875 309.1875 229 307.625 C 232.15625 304.5 232.15625 299.46875 229 296.34375 L 217.71875 285.03125 C 216.125 283.46875 214.09375 282.65625 212.03125 282.65625 Z M 183.75 310.96875 C 181.71875 310.96875 179.6875 311.71875 178.125 313.28125 C 174.96875 316.4375 174.96875 321.46875 178.125 324.625 L 189.40625 335.90625 C 190.96875 337.46875 193.03125 338.25 195.09375 338.25 C 197.125 338.25 199.1875 337.46875 200.75 335.90625 C 203.875 332.78125 203.875 327.75 200.75 324.625 L 189.40625 313.28125 C 187.84375 311.71875 185.8125 310.96875 183.75 310.96875 Z M 155.5 339.25 C 153.4375 339.25 151.40625 340 149.84375 341.59375 C 146.6875 344.71875 146.6875 349.78125 149.84375 352.875 L 161.125 364.21875 C 162.6875 365.75 164.75 366.53125 166.78125 366.53125 C 168.84375 366.53125 170.90625 365.75 172.46875 364.21875 C 175.59375 361.0625 175.59375 356 172.46875 352.875 L 161.125 341.59375 C 159.5625 340 157.53125 339.25 155.5 339.25 Z M 127.1875 367.53125 C 125.15625 367.53125 123.09375 368.3125 121.53125 369.875 C 118.40625 373 118.40625 378.0625 121.53125 381.1875 L 132.84375 392.5 C 134.40625 394.0625 136.4375 394.84375 138.5 394.84375 C 140.5625 394.84375 142.59375 394.0625 144.15625 392.5 C 147.28125 389.375 147.28125 384.3125 144.15625 381.1875 L 132.84375 369.875 C 131.28125 368.3125 129.21875 367.53125 127.1875 367.53125 Z M 98.90625 395.8125 C 96.875 395.8125 94.8125 396.59375 93.25 398.15625 C 90.125 401.28125 90.125 406.34375 93.25 409.46875 L 104.5625 420.78125 C 106.125 422.34375 108.15625 423.125 110.21875 423.125 C 112.28125 423.125 114.3125 422.34375 115.875 420.78125 C 119 417.65625 119 412.59375 115.875 409.46875 L 104.5625 398.15625 C 103 396.59375 100.9375 395.8125 98.90625 395.8125 Z M 70.625 424.09375 C 68.59375 424.09375 66.53125 424.875 64.96875 426.4375 C 61.84375 429.5625 61.84375 434.625 64.96875 437.75 L 76.28125 449.09375 C 77.84375 450.625 79.875 451.40625 81.9375 451.40625 C 84 451.40625 86.03125 450.625 87.59375 449.09375 C 90.71875 445.96875 90.71875 440.90625 87.59375 437.75 L 76.28125 426.4375 C 74.71875 424.875 72.65625 424.09375 70.625 424.09375 Z M 70.625 424.09375 "/>
</g>
</svg>
