<?xml version="1.0" encoding="UTF-8"?>
<svg width="20px" height="20px" viewBox="0 0 20 20" version="1.1" xmlns="http://www.w3.org/2000/svg" xmlns:xlink="http://www.w3.org/1999/xlink">
    <title>Icon/Misc/check-circle</title>
    <g id="6.0-Admin-dashboard" stroke="none" stroke-width="1" fill="none" fill-rule="evenodd">
        <g id="6.0-Admin-dashboard-Empty-State-(D)" transform="translate(-50.000000, -451.000000)">
            <g id="Icon/Misc/check-circle" transform="translate(50.000000, 451.000000)">
                <path d="M10,0 C4.47580645,0 0,4.47580645 0,10 C0,15.5241935 4.47580645,20 10,20 C15.5241935,20 20,15.5241935 20,10 C20,4.47580645 15.5241935,0 10,0 Z" id="Shape" fill="#31B237"></path>
                <path d="M8.84314516,15.2947581 C8.59122825,15.5465099 8.1829653,15.5465099 7.93104839,15.2947581 L3.7375,11.1012097 C3.48574816,10.8492928 3.48574816,10.4410298 3.7375,10.1891129 L4.64959677,9.2766129 C4.77059222,9.15558983 4.93471384,9.08759745 5.10584677,9.08759745 C5.27697971,9.08759745 5.44110133,9.15558983 5.56209677,9.2766129 L8.38709677,12.1016129 L14.4379032,6.05080645 C14.5588987,5.92978338 14.7230203,5.861791 14.8941532,5.861791 C15.0652862,5.861791 15.2294078,5.92978338 15.3504032,6.05080645 L16.2625,6.96330645 C16.5142518,7.21522336 16.5142518,7.62348632 16.2625,7.87540323 L8.84314516,15.2947581 Z" id="Path" fill="#E3F9E5"></path>
            </g>
        </g>
    </g>
</svg>