<svg height="20" viewBox="0 0 20 20" width="20" xmlns="http://www.w3.org/2000/svg"><g fill="none" fill-rule="evenodd"><path d="m10 0c-5.52419355 0-10 4.47580645-10 10 0 5.5241935 4.47580645 10 10 10 5.5241935 0 10-4.4758065 10-10 0-5.52419355-4.4758065-10-10-10z" fill="#31b237"/><path d="m8.84314516 15.2947581c-.25191691.2517518-.66017986.2517518-.91209677 0l-4.19354839-4.1935484c-.25175184-.2519169-.25175184-.6601799 0-.9120968l.91209677-.9125c.12099545-.12102307.28511707-.18901545.45625-.18901545.17113294 0 .33525456.06799238.45625.18901545l2.825 2.825 6.05080643-6.05080645c.1209955-.12102307.2851171-.18901545.45625-.18901545.171133 0 .3352546.06799238.45625.18901545l.9120968.9125c.2517518.25191691.2517518.66017987 0 .91209678z" fill="#e3f9e5"/></g></svg>