<svg height="64" viewBox="0 0 64 64" width="64" xmlns="http://www.w3.org/2000/svg"><path d="m23.65625 4c-1.335938 0-2.589844.519531-3.535156 1.464844l-6.65625 6.65625c-.945313.945312-1.464844 2.199218-1.464844 3.535156v6.777344l-8.546875 5.128906c-.894531.535156-1.453125 1.523438-1.453125 2.570312v26.867188c0 1.652344 1.347656 3 3 3h54c1.652344 0 3-1.347656 3-3v-26.867188c0-1.046874-.558594-2.035156-1.453125-2.570312l-8.546875-5.128906v-15.433594c0-1.652344-1.347656-3-3-3zm.34375 2h25c.550781 0 1 .449219 1 1v24c0 .550781.445312 1 1 1s1-.449219 1-1v-6.234375l7.515625 4.511719c.300781.179687.484375.507812.484375.855468v1.21875l-26.773438 12.003907c-.777343.347656-1.675781.347656-2.453124 0l-26.773438-12.003907v-1.21875c0-.347656.183594-.679687.484375-.855468l7.515625-4.511719v6.234375c0 .550781.445312 1 1 1s1-.449219 1-1v-15h7c1.652344 0 3-1.347656 3-3zm-2 .5v6.5c0 .550781-.449219 1-1 1h-6.5c.109375-.164062.234375-.320312.378906-.464844l6.65625-6.65625c.144532-.144531.300782-.269531.464844-.378906zm9 9.5c-3.859375 0-7 3.140625-7 7v6c0 3.859375 3.140625 7 7 7h6c.554688 0 1-.449219 1-1s-.445312-1-1-1h-6c-2.757812 0-5-2.242188-5-5v-6c0-2.757812 2.242188-5 5-5h2c2.757812 0 5 2.242188 5 5v6c0 .550781-.449219 1-1 1s-1-.449219-1-1v-5c0-2.207031-1.792969-4-4-4s-4 1.792969-4 4v4c0 2.207031 1.792969 4 4 4 1.050781 0 2-.414062 2.714844-1.078125.550781.652344 1.363281 1.078125 2.285156 1.078125 1.652344 0 3-1.347656 3-3v-6c0-3.859375-3.140625-7-7-7zm1 6c1.101562 0 2 .898438 2 2v4c0 1.101562-.898438 2-2 2s-2-.898438-2-2v-4c0-1.101562.898438-2 2-2zm-28 11.546875 25.953125 11.632813c.652344.289062 1.351563.433593 2.046875.433593s1.394531-.144531 2.046875-.433593l25.953125-11.632813v23.453125c0 .550781-.449219 1-1 1h-54c-.550781 0-1-.449219-1-1zm3 16.453125c-.554688 0-1 .449219-1 1v2c0 .550781.445312 1 1 1s1-.449219 1-1v-2c0-.550781-.445312-1-1-1zm5 0c-.554688 0-1 .449219-1 1v2c0 .550781.445312 1 1 1s1-.449219 1-1v-2c0-.550781-.445312-1-1-1zm5 0c-.554688 0-1 .449219-1 1v2c0 .550781.445312 1 1 1s1-.449219 1-1v-2c0-.550781-.445312-1-1-1zm5 0c-.554688 0-1 .449219-1 1v2c0 .550781.445312 1 1 1s1-.449219 1-1v-2c0-.550781-.445312-1-1-1zm5 0c-.554688 0-1 .449219-1 1v2c0 .550781.445312 1 1 1s1-.449219 1-1v-2c0-.550781-.445312-1-1-1zm5 0c-.554688 0-1 .449219-1 1v2c0 .550781.445312 1 1 1s1-.449219 1-1v-2c0-.550781-.445312-1-1-1zm5 0c-.554688 0-1 .449219-1 1v2c0 .550781.445312 1 1 1s1-.449219 1-1v-2c0-.550781-.445312-1-1-1zm5 0c-.554688 0-1 .449219-1 1v2c0 .550781.445312 1 1 1s1-.449219 1-1v-2c0-.550781-.445312-1-1-1zm5 0c-.554688 0-1 .449219-1 1v2c0 .550781.445312 1 1 1s1-.449219 1-1v-2c0-.550781-.445312-1-1-1zm5 0c-.554688 0-1 .449219-1 1v2c0 .550781.445312 1 1 1s1-.449219 1-1v-2c0-.550781-.445312-1-1-1zm5 0c-.554688 0-1 .449219-1 1v2c0 .550781.445312 1 1 1s1-.449219 1-1v-2c0-.550781-.445312-1-1-1zm0 0" fill="#003e6b"/></svg>