<?xml version="1.0" encoding="UTF-8"?>
<svg xmlns="http://www.w3.org/2000/svg" viewBox="0 0 64 64" width="64px" height="64px">
<g id="surface12913087">
<path style=" stroke:none;fill-rule:nonzero;fill:rgb(0%,24.313726%,41.960785%);fill-opacity:1;" d="M 23.65625 4 C 22.320312 4 21.066406 4.519531 20.121094 5.464844 L 13.464844 12.121094 C 12.519531 13.066406 12 14.320312 12 15.65625 L 12 22.433594 L 3.453125 27.5625 C 2.558594 28.097656 2 29.085938 2 30.132812 L 2 57 C 2 58.652344 3.347656 60 5 60 L 59 60 C 60.652344 60 62 58.652344 62 57 L 62 30.132812 C 62 29.085938 61.441406 28.097656 60.546875 27.5625 L 52 22.433594 L 52 7 C 52 5.347656 50.652344 4 49 4 Z M 24 6 L 49 6 C 49.550781 6 50 6.449219 50 7 L 50 31 C 50 31.550781 50.445312 32 51 32 C 51.554688 32 52 31.550781 52 31 L 52 24.765625 L 59.515625 29.277344 C 59.816406 29.457031 60 29.785156 60 30.132812 L 60 31.351562 L 33.226562 43.355469 C 32.449219 43.703125 31.550781 43.703125 30.773438 43.355469 L 4 31.351562 L 4 30.132812 C 4 29.785156 4.183594 29.453125 4.484375 29.277344 L 12 24.765625 L 12 31 C 12 31.550781 12.445312 32 13 32 C 13.554688 32 14 31.550781 14 31 L 14 16 L 21 16 C 22.652344 16 24 14.652344 24 13 Z M 22 6.5 L 22 13 C 22 13.550781 21.550781 14 21 14 L 14.5 14 C 14.609375 13.835938 14.734375 13.679688 14.878906 13.535156 L 21.535156 6.878906 C 21.679688 6.734375 21.835938 6.609375 22 6.5 Z M 31 16 C 27.140625 16 24 19.140625 24 23 L 24 29 C 24 32.859375 27.140625 36 31 36 L 37 36 C 37.554688 36 38 35.550781 38 35 C 38 34.449219 37.554688 34 37 34 L 31 34 C 28.242188 34 26 31.757812 26 29 L 26 23 C 26 20.242188 28.242188 18 31 18 L 33 18 C 35.757812 18 38 20.242188 38 23 L 38 29 C 38 29.550781 37.550781 30 37 30 C 36.449219 30 36 29.550781 36 29 L 36 24 C 36 21.792969 34.207031 20 32 20 C 29.792969 20 28 21.792969 28 24 L 28 28 C 28 30.207031 29.792969 32 32 32 C 33.050781 32 34 31.585938 34.714844 30.921875 C 35.265625 31.574219 36.078125 32 37 32 C 38.652344 32 40 30.652344 40 29 L 40 23 C 40 19.140625 36.859375 16 33 16 Z M 32 22 C 33.101562 22 34 22.898438 34 24 L 34 28 C 34 29.101562 33.101562 30 32 30 C 30.898438 30 30 29.101562 30 28 L 30 24 C 30 22.898438 30.898438 22 32 22 Z M 4 33.546875 L 29.953125 45.179688 C 30.605469 45.46875 31.304688 45.613281 32 45.613281 C 32.695312 45.613281 33.394531 45.46875 34.046875 45.179688 L 60 33.546875 L 60 57 C 60 57.550781 59.550781 58 59 58 L 5 58 C 4.449219 58 4 57.550781 4 57 Z M 7 50 C 6.445312 50 6 50.449219 6 51 L 6 53 C 6 53.550781 6.445312 54 7 54 C 7.554688 54 8 53.550781 8 53 L 8 51 C 8 50.449219 7.554688 50 7 50 Z M 12 50 C 11.445312 50 11 50.449219 11 51 L 11 53 C 11 53.550781 11.445312 54 12 54 C 12.554688 54 13 53.550781 13 53 L 13 51 C 13 50.449219 12.554688 50 12 50 Z M 17 50 C 16.445312 50 16 50.449219 16 51 L 16 53 C 16 53.550781 16.445312 54 17 54 C 17.554688 54 18 53.550781 18 53 L 18 51 C 18 50.449219 17.554688 50 17 50 Z M 22 50 C 21.445312 50 21 50.449219 21 51 L 21 53 C 21 53.550781 21.445312 54 22 54 C 22.554688 54 23 53.550781 23 53 L 23 51 C 23 50.449219 22.554688 50 22 50 Z M 27 50 C 26.445312 50 26 50.449219 26 51 L 26 53 C 26 53.550781 26.445312 54 27 54 C 27.554688 54 28 53.550781 28 53 L 28 51 C 28 50.449219 27.554688 50 27 50 Z M 32 50 C 31.445312 50 31 50.449219 31 51 L 31 53 C 31 53.550781 31.445312 54 32 54 C 32.554688 54 33 53.550781 33 53 L 33 51 C 33 50.449219 32.554688 50 32 50 Z M 37 50 C 36.445312 50 36 50.449219 36 51 L 36 53 C 36 53.550781 36.445312 54 37 54 C 37.554688 54 38 53.550781 38 53 L 38 51 C 38 50.449219 37.554688 50 37 50 Z M 42 50 C 41.445312 50 41 50.449219 41 51 L 41 53 C 41 53.550781 41.445312 54 42 54 C 42.554688 54 43 53.550781 43 53 L 43 51 C 43 50.449219 42.554688 50 42 50 Z M 47 50 C 46.445312 50 46 50.449219 46 51 L 46 53 C 46 53.550781 46.445312 54 47 54 C 47.554688 54 48 53.550781 48 53 L 48 51 C 48 50.449219 47.554688 50 47 50 Z M 52 50 C 51.445312 50 51 50.449219 51 51 L 51 53 C 51 53.550781 51.445312 54 52 54 C 52.554688 54 53 53.550781 53 53 L 53 51 C 53 50.449219 52.554688 50 52 50 Z M 57 50 C 56.445312 50 56 50.449219 56 51 L 56 53 C 56 53.550781 56.445312 54 57 54 C 57.554688 54 58 53.550781 58 53 L 58 51 C 58 50.449219 57.554688 50 57 50 Z M 57 50 "/>
</g>
</svg>
