<?xml version="1.0" encoding="UTF-8" standalone="no"?><!DOCTYPE svg PUBLIC "-//W3C//DTD SVG 1.1//EN" "http://www.w3.org/Graphics/SVG/1.1/DTD/svg11.dtd"><svg width="100%" height="100%" viewBox="0 0 100 100" version="1.1" xmlns="http://www.w3.org/2000/svg" xmlns:xlink="http://www.w3.org/1999/xlink" xml:space="preserve" xmlns:serif="http://www.serif.com/" style="fill-rule:evenodd;clip-rule:evenodd;stroke-linejoin:round;stroke-miterlimit:2;"><path d="M79.167,0l-58.334,0c-11.504,0 -20.833,9.329 -20.833,20.833l0,58.334c0,11.504 9.329,20.833 20.833,20.833l58.334,0c11.508,0 20.833,-9.329 20.833,-20.833l0,-58.334c0,-11.504 -9.325,-20.833 -20.833,-20.833Zm-12.5,29.167l-8.017,-0c-2.563,-0 -4.483,1.05 -4.483,3.704l-0,4.629l12.5,0l-0.992,12.5l-11.508,0l-0,33.333l-12.5,0l-0,-33.333l-8.334,0l0,-12.5l8.334,0l-0,-8.012c-0,-8.426 4.433,-12.821 14.421,-12.821l10.579,-0l-0,12.5Z" style="fill:#fff;fill-rule:nonzero;"/></svg>