<svg height="512pt" viewBox="0 0 512 512" width="512pt" xmlns="http://www.w3.org/2000/svg"><path d="m216 0c-13.199219 0-24 10.800781-24 24v93.4375c-.078125.078125-.234375.171875-.3125.25l-62.09375 54.796875c-12 10.558594-20.230469 25.113281-23.109375 40.875l-14 76.078125c-6.320313 34.398438-24.5625 65.84375-51.28125 88.484375l-16.71875 14.15625c-5.121094 4.320313-8.164063 10.5625-8.484375 17.28125-.238281 6.71875 2.328125 13.28125 7.046875 18l77.59375 77.59375c4.71875 4.71875 10.792969 7.046875 16.953125 7.046875 5.359375 0 10.804688-1.757812 15.203125-5.4375l122.71875-100.40625c2.398437-2 4.808594-3.996094 7.046875-6.15625h177.4375c13.199219 0 24-10.800781 24-24v-352c0-13.199219-10.800781-24-24-24zm0 16h224c4.398438 0 8 3.601562 8 8v352c0 4.398438-3.601562 8-8 8h-162.078125c12.558594-15.039062 22.484375-32.15625 29.203125-50.796875l26.71875-73.921875c2.480469-6.878906 1.683594-14.480469-2.15625-20.71875-1.039062-1.679688-2.25-3.203125-3.609375-4.484375-3.679687-3.761719-8.5625-6.15625-13.921875-6.796875l-.953125-.078125c-18.558594-2.320313-36.886719 4.71875-49.125 18.796875l-32.953125 37.921875c-6.480469 7.441406-14.324219 13.433594-23.125 17.59375v-277.515625c0-4.398438 3.601562-8 8-8zm208 16c-4.425781 0-8 3.585938-8 8v32c0 4.414062 3.574219 8 8 8s8-3.585938 8-8v-32c0-4.414062-3.574219-8-8-8zm0 64c-4.425781 0-8 3.585938-8 8v256c0 4.414062 3.574219 8 8 8s8-3.585938 8-8v-256c0-4.414062-3.574219-8-8-8zm-232 42.71875v168.484375l-23.515625 6.15625c-3.359375.878906-5.605469 3.753906-5.84375 6.953125-.160156.878906-.082031 1.851562.15625 2.8125 1.121094 4.320312 5.527344 6.792969 9.765625 5.671875l19.4375-5.109375 7.359375-1.921875c2.960937-.800781 5.839844-1.773437 8.640625-2.8125 13.519531-5.121094 25.601562-13.507813 35.203125-24.546875l32.953125-37.921875c8.800781-10 21.847656-15.039063 35.046875-13.4375l1.03125.15625c2.398437.320313 4.5625 1.671875 5.84375 3.75s1.519531 4.570313.71875 6.890625l-26.71875 73.921875c-7.679687 21.28125-20 40.554687-36 56.234375-3.441406 3.519531-6.957031 6.726562-10.71875 9.765625l-7.59375 6.234375-83.84375 68.640625c-.398437-.960937-.964844-1.917969-1.765625-2.71875-3.121094-3.121094-8.160156-3.121094-11.28125 0l-11.359375 11.359375c-3.121094 3.121094-3.121094 8.160156 0 11.28125l-6.796875 5.59375c-3.199219 2.640625-7.839844 2.410156-10.71875-.46875l-77.6875-77.6875c-1.601562-1.601562-2.390625-3.679688-2.3125-6 .078125-2.238281 1.117188-4.246094 2.796875-5.765625l7.609375-6.390625c-.078125 2.160156.632812 4.242188 2.234375 5.921875 1.601563 1.519531 3.671875 2.3125 5.671875 2.3125 2.078125 0 4.085938-.792969 5.6875-2.3125l11.28125-11.359375c3.121094-3.121094 3.121094-8.160156 0-11.28125-1.121094-1.121094-2.558594-1.757812-4-2.078125 23.121094-23.761719 38.875-53.933594 44.953125-86.734375l7.359375-40.15625 6.5625-35.84375c2.320312-12.320312 8.71875-23.589844 18.078125-31.828125zm-102.0625 268.328125c-2.046875 0-4.109375.785156-5.671875 2.34375l-11.3125 11.3125c-3.128906 3.128906-3.128906 8.191406 0 11.3125 1.558594 1.558594 3.609375 2.34375 5.65625 2.34375s4.097656-.785156 5.65625-2.34375l11.3125-11.3125c3.128906-3.128906 3.128906-8.191406 0-11.3125-1.558594-1.558594-3.59375-2.34375-5.640625-2.34375zm28.28125 28.28125c-2.046875 0-4.09375.773437-5.65625 2.328125l-11.328125 11.3125c-3.128906 3.128906-3.128906 8.199219 0 11.328125 1.558594 1.558594 3.609375 2.34375 5.65625 2.34375s4.097656-.792969 5.65625-2.34375l11.328125-11.3125c3.128906-3.128906 3.128906-8.183594 0-11.3125-1.5625-1.5625-3.609375-2.34375-5.65625-2.34375zm0 0" fill="#003e6b"/></svg>