<?xml version="1.0" encoding="UTF-8"?>
<svg xmlns="http://www.w3.org/2000/svg" xmlns:xlink="http://www.w3.org/1999/xlink" width="512pt" height="512pt" viewBox="0 0 512 512" version="1.1">
<g id="surface4496356">
<path style=" stroke:none;fill-rule:nonzero;fill:rgb(0%,24.313726%,41.960785%);fill-opacity:1;" d="M 216 0 C 202.800781 0 192 10.800781 192 24 L 192 117.4375 C 191.921875 117.515625 191.765625 117.609375 191.6875 117.6875 L 129.59375 172.484375 C 117.59375 183.042969 109.363281 197.597656 106.484375 213.359375 L 92.484375 289.4375 C 86.164062 323.835938 67.921875 355.28125 41.203125 377.921875 L 24.484375 392.078125 C 19.363281 396.398438 16.320312 402.640625 16 409.359375 C 15.761719 416.078125 18.328125 422.640625 23.046875 427.359375 L 100.640625 504.953125 C 105.359375 509.671875 111.433594 512 117.59375 512 C 122.953125 512 128.398438 510.242188 132.796875 506.5625 L 255.515625 406.15625 C 257.914062 404.15625 260.324219 402.160156 262.5625 400 L 440 400 C 453.199219 400 464 389.199219 464 376 L 464 24 C 464 10.800781 453.199219 0 440 0 Z M 216 16 L 440 16 C 444.398438 16 448 19.601562 448 24 L 448 376 C 448 380.398438 444.398438 384 440 384 L 277.921875 384 C 290.480469 368.960938 300.40625 351.84375 307.125 333.203125 L 333.84375 259.28125 C 336.324219 252.402344 335.527344 244.800781 331.6875 238.5625 C 330.648438 236.882812 329.4375 235.359375 328.078125 234.078125 C 324.398438 230.316406 319.515625 227.921875 314.15625 227.28125 L 313.203125 227.203125 C 294.644531 224.882812 276.316406 231.921875 264.078125 246 L 231.125 283.921875 C 224.644531 291.363281 216.800781 297.355469 208 301.515625 L 208 24 C 208 19.601562 211.601562 16 216 16 Z M 424 32 C 419.574219 32 416 35.585938 416 40 L 416 72 C 416 76.414062 419.574219 80 424 80 C 428.425781 80 432 76.414062 432 72 L 432 40 C 432 35.585938 428.425781 32 424 32 Z M 424 96 C 419.574219 96 416 99.585938 416 104 L 416 360 C 416 364.414062 419.574219 368 424 368 C 428.425781 368 432 364.414062 432 360 L 432 104 C 432 99.585938 428.425781 96 424 96 Z M 192 138.71875 L 192 307.203125 L 168.484375 313.359375 C 165.125 314.238281 162.878906 317.113281 162.640625 320.3125 C 162.480469 321.191406 162.558594 322.164062 162.796875 323.125 C 163.917969 327.445312 168.324219 329.917969 172.5625 328.796875 L 192 323.6875 L 199.359375 321.765625 C 202.320312 320.964844 205.199219 319.992188 208 318.953125 C 221.519531 313.832031 233.601562 305.445312 243.203125 294.40625 L 276.15625 256.484375 C 284.957031 246.484375 298.003906 241.445312 311.203125 243.046875 L 312.234375 243.203125 C 314.632812 243.523438 316.796875 244.875 318.078125 246.953125 C 319.359375 249.03125 319.597656 251.523438 318.796875 253.84375 L 292.078125 327.765625 C 284.398438 349.046875 272.078125 368.320312 256.078125 384 C 252.636719 387.519531 249.121094 390.726562 245.359375 393.765625 L 237.765625 400 L 153.921875 468.640625 C 153.523438 467.679688 152.957031 466.722656 152.15625 465.921875 C 149.035156 462.800781 143.996094 462.800781 140.875 465.921875 L 129.515625 477.28125 C 126.394531 480.402344 126.394531 485.441406 129.515625 488.5625 L 122.71875 494.15625 C 119.519531 496.796875 114.878906 496.566406 112 493.6875 L 34.3125 416 C 32.710938 414.398438 31.921875 412.320312 32 410 C 32.078125 407.761719 33.117188 405.753906 34.796875 404.234375 L 42.40625 397.84375 C 42.328125 400.003906 43.039062 402.085938 44.640625 403.765625 C 46.242188 405.285156 48.3125 406.078125 50.3125 406.078125 C 52.390625 406.078125 54.398438 405.285156 56 403.765625 L 67.28125 392.40625 C 70.402344 389.285156 70.402344 384.246094 67.28125 381.125 C 66.160156 380.003906 64.722656 379.367188 63.28125 379.046875 C 86.402344 355.285156 102.15625 325.113281 108.234375 292.3125 L 115.59375 252.15625 L 122.15625 216.3125 C 124.476562 203.992188 130.875 192.722656 140.234375 184.484375 Z M 89.9375 407.046875 C 87.890625 407.046875 85.828125 407.832031 84.265625 409.390625 L 72.953125 420.703125 C 69.824219 423.832031 69.824219 428.894531 72.953125 432.015625 C 74.511719 433.574219 76.5625 434.359375 78.609375 434.359375 C 80.65625 434.359375 82.707031 433.574219 84.265625 432.015625 L 95.578125 420.703125 C 98.707031 417.574219 98.707031 412.511719 95.578125 409.390625 C 94.019531 407.832031 91.984375 407.046875 89.9375 407.046875 Z M 118.21875 435.328125 C 116.171875 435.328125 114.125 436.101562 112.5625 437.65625 L 101.234375 448.96875 C 98.105469 452.097656 98.105469 457.167969 101.234375 460.296875 C 102.792969 461.855469 104.84375 462.640625 106.890625 462.640625 C 108.9375 462.640625 110.988281 461.847656 112.546875 460.296875 L 123.875 448.984375 C 127.003906 445.855469 127.003906 440.800781 123.875 437.671875 C 122.3125 436.109375 120.265625 435.328125 118.21875 435.328125 Z M 118.21875 435.328125 "/>
</g>
</svg>
