<?xml version="1.0" encoding="UTF-8" standalone="no"?><!DOCTYPE svg PUBLIC "-//W3C//DTD SVG 1.1//EN" "http://www.w3.org/Graphics/SVG/1.1/DTD/svg11.dtd"><svg width="100%" height="100%" viewBox="0 0 3071 1294" version="1.1" xmlns="http://www.w3.org/2000/svg" xmlns:xlink="http://www.w3.org/1999/xlink" xml:space="preserve" xmlns:serif="http://www.serif.com/" style="fill-rule:evenodd;clip-rule:evenodd;stroke-linejoin:round;stroke-miterlimit:2;"><g><path d="M3070.32,940.295c0,-16.5 -13.375,-29.875 -29.875,-29.875c-296.94,-0 -2713.63,-0 -3010.57,-0c-16.5,-0 -29.875,13.375 -29.875,29.875c-0,0.003 -0,0.006 -0,0.008c-0,16.5 13.375,29.875 29.875,29.875c296.94,0 2713.63,0 3010.57,0c16.5,0 29.875,-13.375 29.875,-29.875c0,-0.002 0,-0.005 0,-0.008Z" style="fill:#9eb2c7;"/><path d="M513.152,730.093c-177.333,-25.827 -313.709,-178.675 -313.709,-363.124c-0,-202.536 164.433,-366.969 366.969,-366.969c202.535,0 366.968,164.433 366.968,366.969c0,184.449 -136.376,337.297 -313.708,363.124l-53.26,89.438l-53.26,-89.438Zm53.26,-634.26c149.643,0 271.135,121.492 271.135,271.136c0,149.644 -121.492,271.135 -271.135,271.135c-149.644,0 -271.136,-121.491 -271.136,-271.135c-0,-149.644 121.492,-271.136 271.136,-271.136Z" style="fill:#003e6b;"/><path d="M1481.9,730.093c-177.333,-25.827 -313.709,-178.675 -313.709,-363.124c-0,-202.536 164.433,-366.969 366.969,-366.969c202.535,0 366.968,164.433 366.968,366.969c0,184.449 -136.376,337.297 -313.708,363.124l-53.26,89.438l-53.26,-89.438Zm53.26,-634.26c149.643,0 271.135,121.492 271.135,271.136c0,149.644 -121.492,271.135 -271.135,271.135c-149.644,0 -271.136,-121.491 -271.136,-271.135c-0,-149.644 121.492,-271.136 271.136,-271.136Z" style="fill:#003e6b;"/><path d="M2450.65,730.093c-177.333,-25.827 -313.709,-178.675 -313.709,-363.124c-0,-202.536 164.433,-366.969 366.969,-366.969c202.535,0 366.968,164.433 366.968,366.969c0,184.449 -136.376,337.297 -313.708,363.124l-53.26,89.438l-53.26,-89.438Zm53.26,-634.26c149.643,0 271.135,121.492 271.135,271.136c0,149.644 -121.492,271.135 -271.135,271.135c-149.644,0 -271.136,-121.491 -271.136,-271.135c-0,-149.644 121.492,-271.136 271.136,-271.136Z" style="fill:#003e6b;"/><circle cx="566.412" cy="940.299" r="50.323" style="fill:#003e6b;"/><circle cx="566.412" cy="940.299" r="25.323" style="fill:#f1f5f8;"/><circle cx="1535.16" cy="940.299" r="50.323" style="fill:#003e6b;"/><circle cx="1535.16" cy="940.299" r="25.323" style="fill:#f1f5f8;"/><circle cx="2503.91" cy="940.299" r="50.323" style="fill:#003e6b;"/><circle cx="2503.91" cy="940.299" r="25.323" style="fill:#f1f5f8;"/><g><path d="M476.089,1138.99l12.71,-0c-0.25,-12.318 -10.752,-21.041 -26.275,-21.041c-15.309,0 -26.808,8.616 -26.773,21.504c0,10.467 7.441,16.484 19.439,19.581l8.296,2.136c7.868,1.994 13.066,4.45 13.101,10.111c-0.035,6.23 -5.945,10.396 -14.561,10.396c-8.26,-0 -14.668,-3.703 -15.202,-11.357l-12.995,-0c0.534,14.49 11.321,22.643 28.304,22.643c17.48,-0 27.627,-8.723 27.663,-21.575c-0.036,-12.639 -10.468,-18.406 -21.433,-21.005l-6.836,-1.709c-5.981,-1.424 -12.46,-3.952 -12.389,-10.04c0.035,-5.483 4.949,-9.506 13.208,-9.506c7.868,0 13.066,3.667 13.743,9.862Z" style="fill:#003e6b;fill-rule:nonzero;"/><path d="M501.544,1191.85l47.707,0l0,-11.072l-34.498,-0l-0,-19.902l31.757,0l-0,-11.072l-31.757,-0l-0,-19.795l34.213,0l0,-11.072l-47.422,-0l0,72.913Z" style="fill:#003e6b;fill-rule:nonzero;"/><path d="M622.378,1118.94l-13.137,-0l-0,49.701l-0.641,-0l-34.32,-49.701l-11.82,-0l-0,72.913l13.208,0l0,-49.665l0.605,0l34.356,49.665l11.749,0l0,-72.913Z" style="fill:#003e6b;fill-rule:nonzero;"/><path d="M661.434,1191.85c22.216,0 35.388,-13.742 35.388,-36.528c0,-22.714 -13.172,-36.385 -34.89,-36.385l-25.206,-0l-0,72.913l24.708,0Zm-11.5,-11.428l0,-50.057l11.251,0c14.81,0 22.536,8.26 22.536,24.957c-0,16.769 -7.726,25.1 -22.928,25.1l-10.859,-0Z" style="fill:#003e6b;fill-rule:nonzero;"/><rect x="334.766" y="1219.2" width="13.208" height="72.913" style="fill:#003e6b;fill-rule:nonzero;"/><path d="M422.24,1219.2l-13.137,-0l0,49.7l-0.641,0l-34.32,-49.7l-11.82,-0l-0,72.913l13.208,-0l0,-49.665l0.606,-0l34.356,49.665l11.748,-0l0,-72.913Z" style="fill:#003e6b;fill-rule:nonzero;"/><path d="M446.343,1219.2l-14.49,-0l25.669,72.913l16.306,-0l25.705,-72.913l-14.526,-0l-18.94,57.39l-0.748,0l-18.976,-57.39Z" style="fill:#003e6b;fill-rule:nonzero;"/><path d="M570.417,1255.65c-0,-23.568 -14.384,-37.453 -33.502,-37.453c-19.154,-0 -33.502,13.885 -33.502,37.453c0,23.533 14.348,37.454 33.502,37.454c19.118,-0 33.502,-13.885 33.502,-37.454Zm-13.28,0c0,16.591 -8.331,25.598 -20.222,25.598c-11.855,0 -20.222,-9.007 -20.222,-25.598c0,-16.59 8.367,-25.598 20.222,-25.598c11.891,0 20.222,9.008 20.222,25.598Z" style="fill:#003e6b;fill-rule:nonzero;"/><rect x="582.949" y="1219.2" width="13.208" height="72.913" style="fill:#003e6b;fill-rule:nonzero;"/><path d="M672.916,1243.8c-2.243,-16.199 -14.704,-25.598 -30.868,-25.598c-19.047,-0 -33.394,13.885 -33.394,37.453c-0,23.533 14.169,37.454 33.394,37.454c17.339,-0 28.838,-11.215 30.868,-25.135l-13.316,-0.072c-1.673,8.545 -8.651,13.351 -17.374,13.351c-11.819,0 -20.293,-8.865 -20.293,-25.598c0,-16.448 8.402,-25.598 20.329,-25.598c8.865,0 15.807,5.02 17.338,13.743l13.316,-0Z" style="fill:#003e6b;fill-rule:nonzero;"/><path d="M685.056,1292.11l47.707,-0l-0,-11.072l-34.499,-0l0,-19.902l31.757,0l0,-11.072l-31.757,-0l0,-19.795l34.214,-0l0,-11.072l-47.422,-0l-0,72.913Z" style="fill:#003e6b;fill-rule:nonzero;"/><path d="M785.597,1239.24l12.71,-0c-0.25,-12.319 -10.752,-21.041 -26.275,-21.041c-15.309,-0 -26.808,8.616 -26.773,21.504c0,10.467 7.441,16.483 19.439,19.581l8.295,2.136c7.868,1.994 13.066,4.45 13.102,10.111c-0.036,6.23 -5.946,10.396 -14.561,10.396c-8.26,-0 -14.668,-3.703 -15.202,-11.357l-12.995,-0c0.534,14.49 11.321,22.643 28.303,22.643c17.481,-0 27.628,-8.723 27.663,-21.575c-0.035,-12.639 -10.467,-18.407 -21.432,-21.006l-6.836,-1.708c-5.981,-1.425 -12.461,-3.952 -12.389,-10.04c0.035,-5.483 4.948,-9.506 13.208,-9.506c7.868,-0 13.066,3.667 13.743,9.862Z" style="fill:#003e6b;fill-rule:nonzero;"/></g><g><path d="M1291.79,1118.94l-0,72.913l12.674,0l0,-50.199l0.677,0l20.15,49.986l9.471,-0l20.15,-49.879l0.677,-0l-0,50.092l12.674,0l0,-72.913l-16.163,-0l-21.646,52.833l-0.855,0l-21.646,-52.833l-16.163,-0Z" style="fill:#003e6b;fill-rule:nonzero;"/><path d="M1382.64,1191.85l47.707,0l-0,-11.072l-34.499,-0l0,-19.902l31.757,0l0,-11.072l-31.757,-0l0,-19.795l34.214,0l-0,-11.072l-47.422,-0l-0,72.913Z" style="fill:#003e6b;fill-rule:nonzero;"/><path d="M1443.56,1118.94l0,72.913l12.674,0l0,-50.199l0.677,0l20.151,49.986l9.47,-0l20.151,-49.879l0.676,-0l0,50.092l12.675,0l-0,-72.913l-16.164,-0l-21.646,52.833l-0.854,0l-21.647,-52.833l-16.163,-0Z" style="fill:#003e6b;fill-rule:nonzero;"/><path d="M1534.41,1191.85l29.514,0c16.698,0 24.886,-8.509 24.886,-19.866c0,-11.037 -7.832,-17.516 -15.594,-17.908l0,-0.712c7.121,-1.673 12.746,-6.657 12.746,-15.522c-0,-10.859 -7.833,-18.905 -23.64,-18.905l-27.912,-0l-0,72.913Zm13.208,-11.037l0,-21.361l14.562,0c8.153,0 13.208,4.984 13.208,11.5c0,5.803 -3.987,9.861 -13.564,9.861l-14.206,0Zm0,-30.867l0,-20.115l13.351,0c7.761,0 11.784,4.094 11.784,9.72c0,6.408 -5.197,10.395 -12.069,10.395l-13.066,0Z" style="fill:#003e6b;fill-rule:nonzero;"/><path d="M1600.31,1191.85l47.707,0l-0,-11.072l-34.499,-0l0,-19.902l31.757,0l0,-11.072l-31.757,-0l0,-19.795l34.214,0l-0,-11.072l-47.422,-0l-0,72.913Z" style="fill:#003e6b;fill-rule:nonzero;"/><path d="M1661.23,1191.85l13.208,0l0,-26.702l13.458,0l14.312,26.702l14.739,0l-15.771,-28.909c8.58,-3.453 13.101,-10.787 13.101,-20.685c0,-13.92 -8.972,-23.319 -25.705,-23.319l-27.342,-0l-0,72.913Zm13.208,-37.667l0,-24.209l12.105,-0c9.862,-0 14.277,4.521 14.277,12.282c-0,7.762 -4.415,11.927 -14.206,11.927l-12.176,0Z" style="fill:#003e6b;fill-rule:nonzero;"/><path d="M1766.08,1138.99l12.71,-0c-0.249,-12.318 -10.751,-21.041 -26.274,-21.041c-15.309,0 -26.808,8.616 -26.773,21.504c0,10.467 7.441,16.484 19.439,19.581l8.295,2.136c7.868,1.994 13.066,4.45 13.102,10.111c-0.036,6.23 -5.946,10.396 -14.561,10.396c-8.26,-0 -14.668,-3.703 -15.203,-11.357l-12.994,-0c0.534,14.49 11.321,22.643 28.303,22.643c17.481,-0 27.628,-8.723 27.663,-21.575c-0.035,-12.639 -10.467,-18.406 -21.432,-21.005l-6.836,-1.709c-5.981,-1.424 -12.461,-3.952 -12.389,-10.04c0.035,-5.483 4.948,-9.506 13.208,-9.506c7.868,0 13.066,3.667 13.742,9.862Z" style="fill:#003e6b;fill-rule:nonzero;"/><path d="M1247.39,1292.11l13.208,-0l0,-24.637l13.956,0c16.84,0 25.883,-10.111 25.883,-24.138c0,-13.92 -8.936,-24.138 -25.705,-24.138l-27.342,-0l-0,72.913Zm13.208,-35.495l0,-26.382l12.105,0c9.897,0 14.276,5.341 14.276,13.102c0,7.761 -4.379,13.28 -14.205,13.28l-12.176,-0Z" style="fill:#003e6b;fill-rule:nonzero;"/><path d="M1313.18,1292.11l6.017,-17.979l27.413,-0l6.053,17.979l14.098,-0l-25.705,-72.913l-16.306,-0l-25.669,72.913l14.099,-0Zm9.577,-28.589l9.862,-29.371l0.569,-0l9.862,29.371l-20.293,0Z" style="fill:#003e6b;fill-rule:nonzero;"/><path d="M1363.99,1219.2l26.524,45.713l-0,27.2l13.173,-0l-0,-27.2l26.523,-45.713l-14.917,-0l-17.837,32.255l-0.712,0l-17.837,-32.255l-14.917,-0Z" style="fill:#003e6b;fill-rule:nonzero;"/><path d="M1529.64,1255.65c0,-23.568 -14.383,-37.453 -33.502,-37.453c-19.153,-0 -33.501,13.885 -33.501,37.453c-0,23.533 14.348,37.454 33.501,37.454c19.119,-0 33.502,-13.885 33.502,-37.454Zm-13.279,0c-0,16.591 -8.331,25.598 -20.223,25.598c-11.855,0 -20.222,-9.007 -20.222,-25.598c0,-16.59 8.367,-25.598 20.222,-25.598c11.892,0 20.223,9.008 20.223,25.598Z" style="fill:#003e6b;fill-rule:nonzero;"/><path d="M1602.09,1219.2l-13.138,-0l0,49.7l-0.64,0l-34.321,-49.7l-11.82,-0l0,72.913l13.209,-0l-0,-49.665l0.605,-0l34.356,49.665l11.749,-0l-0,-72.913Z" style="fill:#003e6b;fill-rule:nonzero;"/><path d="M1616.44,1292.11l45.322,-0l-0,-11.072l-32.113,-0l-0,-61.841l-13.209,-0l0,72.913Z" style="fill:#003e6b;fill-rule:nonzero;"/><rect x="1673.19" y="1219.2" width="13.208" height="72.913" style="fill:#003e6b;fill-rule:nonzero;"/><path d="M1760.67,1219.2l-13.137,-0l-0,49.7l-0.641,0l-34.321,-49.7l-11.82,-0l0,72.913l13.209,-0l-0,-49.665l0.605,-0l34.356,49.665l11.749,-0l-0,-72.913Z" style="fill:#003e6b;fill-rule:nonzero;"/><path d="M1775.01,1292.11l47.707,-0l-0,-11.072l-34.499,-0l0,-19.902l31.757,0l0,-11.072l-31.757,-0l0,-19.795l34.214,-0l-0,-11.072l-47.422,-0l-0,72.913Z" style="fill:#003e6b;fill-rule:nonzero;"/></g><g><path d="M2335.55,1191.85l13.208,0l0,-24.637l13.956,0c16.84,0 25.883,-10.111 25.883,-24.138c-0,-13.92 -8.936,-24.138 -25.705,-24.138l-27.342,-0l-0,72.913Zm13.208,-35.495l0,-26.381l12.105,-0c9.897,-0 14.276,5.34 14.276,13.101c0,7.761 -4.379,13.28 -14.205,13.28l-12.176,-0Z" style="fill:#003e6b;fill-rule:nonzero;"/><path d="M2401.34,1191.85l6.016,-17.979l27.414,0l6.052,17.979l14.099,0l-25.705,-72.913l-16.306,-0l-25.669,72.913l14.099,0Zm9.577,-28.588l9.861,-29.372l0.57,-0l9.862,29.372l-20.293,-0Z" style="fill:#003e6b;fill-rule:nonzero;"/><path d="M2452.15,1118.94l26.524,45.713l-0,27.2l13.172,0l0,-27.2l26.524,-45.713l-14.917,-0l-17.837,32.255l-0.712,0l-17.837,-32.255l-14.917,-0Z" style="fill:#003e6b;fill-rule:nonzero;"/><path d="M2526.41,1191.85l53.973,0l0,-11.072l-37.56,-0l37.346,-53.617l0,-8.224l-53.972,-0l-0,11.072l37.595,0l-37.382,53.617l0,8.224Z" style="fill:#003e6b;fill-rule:nonzero;"/><rect x="2593.2" y="1118.94" width="13.208" height="72.913" style="fill:#003e6b;fill-rule:nonzero;"/><path d="M2620.76,1191.85l13.208,0l0,-24.637l13.956,0c16.84,0 25.883,-10.111 25.883,-24.138c0,-13.92 -8.936,-24.138 -25.705,-24.138l-27.342,-0l0,72.913Zm13.208,-35.495l0,-26.381l12.105,-0c9.898,-0 14.277,5.34 14.277,13.101c-0,7.761 -4.379,13.28 -14.206,13.28l-12.176,-0Z" style="fill:#003e6b;fill-rule:nonzero;"/><path d="M2260.43,1292.11l13.208,-0l0,-24.637l13.956,0c16.84,0 25.883,-10.111 25.883,-24.138c0,-13.92 -8.936,-24.138 -25.705,-24.138l-27.342,-0l0,72.913Zm13.208,-35.495l0,-26.382l12.105,0c9.898,0 14.277,5.341 14.277,13.102c-0,7.761 -4.379,13.28 -14.206,13.28l-12.176,-0Z" style="fill:#003e6b;fill-rule:nonzero;"/><path d="M2326.22,1292.11l6.017,-17.979l27.413,-0l6.053,17.979l14.098,-0l-25.705,-72.913l-16.305,-0l-25.67,72.913l14.099,-0Zm9.577,-28.589l9.862,-29.371l0.569,-0l9.862,29.371l-20.293,0Z" style="fill:#003e6b;fill-rule:nonzero;"/><path d="M2377.03,1219.2l26.524,45.713l-0,27.2l13.173,-0l-0,-27.2l26.523,-45.713l-14.917,-0l-17.837,32.255l-0.712,0l-17.836,-32.255l-14.918,-0Z" style="fill:#003e6b;fill-rule:nonzero;"/><path d="M2492.27,1239.24l12.71,-0c-0.25,-12.319 -10.752,-21.041 -26.275,-21.041c-15.309,-0 -26.808,8.616 -26.773,21.504c0,10.467 7.441,16.483 19.439,19.581l8.295,2.136c7.868,1.994 13.066,4.45 13.102,10.111c-0.036,6.23 -5.946,10.396 -14.561,10.396c-8.26,-0 -14.668,-3.703 -15.202,-11.357l-12.995,-0c0.534,14.49 11.321,22.643 28.304,22.643c17.48,-0 27.627,-8.723 27.662,-21.575c-0.035,-12.639 -10.467,-18.407 -21.432,-21.006l-6.836,-1.708c-5.981,-1.425 -12.46,-3.952 -12.389,-10.04c0.035,-5.483 4.948,-9.506 13.208,-9.506c7.868,-0 13.066,3.667 13.743,9.862Z" style="fill:#003e6b;fill-rule:nonzero;"/><path d="M2537.63,1219.2l26.523,45.713l0,27.2l13.173,-0l0,-27.2l26.524,-45.713l-14.917,-0l-17.837,32.255l-0.712,0l-17.837,-32.255l-14.917,-0Z" style="fill:#003e6b;fill-rule:nonzero;"/><path d="M2674.3,1255.65c-0,-23.568 -14.384,-37.453 -33.502,-37.453c-19.154,-0 -33.502,13.885 -33.502,37.453c0,23.533 14.348,37.454 33.502,37.454c19.118,-0 33.502,-13.885 33.502,-37.454Zm-13.28,0c0,16.591 -8.331,25.598 -20.222,25.598c-11.855,0 -20.222,-9.007 -20.222,-25.598c-0,-16.59 8.367,-25.598 20.222,-25.598c11.891,0 20.222,9.008 20.222,25.598Z" style="fill:#003e6b;fill-rule:nonzero;"/><path d="M2732.8,1219.2l0,46.532c0,9.15 -6.373,15.7 -16.377,15.7c-10.04,0 -16.377,-6.55 -16.377,-15.7l0,-46.532l-13.208,-0l-0,47.635c-0,15.665 11.748,26.382 29.585,26.382c17.766,-0 29.586,-10.717 29.586,-26.382l-0,-47.635l-13.209,-0Z" style="fill:#003e6b;fill-rule:nonzero;"/></g><path d="M593.187,306.973l-23.846,0l-29.705,18.807l0,22.499l27.479,-17.225l0.703,-0l-0,95.911l25.369,-0l-0,-119.992Z" style="fill:#003e6b;fill-rule:nonzero;"/><path d="M1498.13,426.965l85.541,-0l-0,-20.741l-50.387,-0l-0,-0.82l17.518,-17.167c24.666,-22.498 31.287,-33.748 31.287,-47.399c-0,-20.799 -16.991,-35.505 -42.712,-35.505c-25.194,-0 -42.477,15.057 -42.419,38.61l24.08,0c-0.058,-11.483 7.207,-18.514 18.163,-18.514c10.546,-0 18.397,6.562 18.397,17.108c0,9.55 -5.859,16.112 -16.756,26.6l-42.712,39.548l-0,18.28Z" style="fill:#003e6b;fill-rule:nonzero;"/><path d="M2508.8,428.605c26.951,0 46.227,-14.823 46.168,-35.329c0.059,-14.941 -9.433,-25.604 -27.068,-27.83l-0,-0.938c13.417,-2.402 22.674,-11.894 22.616,-25.369c0.058,-18.925 -16.523,-33.806 -41.365,-33.806c-24.607,-0 -43.122,14.413 -43.473,35.153l24.315,0c0.292,-9.14 8.671,-15.057 19.041,-15.057c10.253,-0 17.108,6.21 17.05,15.233c0.058,9.433 -7.969,15.819 -19.511,15.819l-11.19,0l-0,18.632l11.19,-0c13.593,-0 22.089,6.796 22.03,16.464c0.059,9.55 -8.144,16.112 -19.745,16.112c-11.19,-0 -19.569,-5.859 -20.037,-14.648l-25.545,0c0.41,20.975 19.158,35.564 45.524,35.564Z" style="fill:#003e6b;fill-rule:nonzero;"/></g></svg>