<?xml version="1.0" encoding="UTF-8" standalone="no"?><!DOCTYPE svg PUBLIC "-//W3C//DTD SVG 1.1//EN" "http://www.w3.org/Graphics/SVG/1.1/DTD/svg11.dtd"><svg width="100%" height="100%" viewBox="0 0 1024 1024" version="1.1" xmlns="http://www.w3.org/2000/svg" xmlns:xlink="http://www.w3.org/1999/xlink" xml:space="preserve" xmlns:serif="http://www.serif.com/" style="fill-rule:evenodd;clip-rule:evenodd;stroke-linejoin:round;stroke-miterlimit:2;"><rect id="Black-Background" serif:id="Black Background" x="0" y="0" width="1024" height="1024" style="fill:#231f20;fill-rule:nonzero;"/><g id="Hockey-Wales" serif:id="Hockey Wales"><path d="M409.636,571.878c-31.526,-21.01 -45.589,-8.934 -45.589,-8.934c1.308,22.784 -15.291,39.047 -15.291,39.047c6.831,-6.831 30.42,-12.849 57.589,14.309c27.166,27.173 54.006,30.905 54.006,30.905c0,-13.334 21.801,-36.11 21.801,-36.11c-14.973,10.739 -40.994,-18.218 -72.516,-39.217Zm-56.975,37.262c-4.397,13.504 23.101,16.263 23.101,16.263c0,0 1.785,-12.271 9.432,-16.263c0,0 -26.233,-19.362 -32.533,0Zm125.25,-2.604c8.641,-3.858 -10.169,-19.677 -19.623,-27.003c-2.178,6.697 -4.147,12.799 -5.642,18.416c6.39,4.935 17.574,12.044 25.265,8.587Zm0.141,-67.253l-9.36,1.29l-10.404,38.96l21.491,-7.565l-1.727,-32.685Z" style="fill:#80c341;fill-rule:nonzero;"/><path d="M674.811,601.991c-0,0 -16.596,-16.263 -15.299,-39.047c0,0 -14.059,-12.076 -45.578,8.934c-31.522,20.999 -57.55,49.956 -72.516,39.217c-0,-0 21.801,22.776 21.801,36.11c-0,-0 26.84,-3.732 54.002,-30.905c27.173,-27.158 50.751,-21.14 57.59,-14.309Zm-36.435,7.149c7.64,3.992 9.432,16.263 9.432,16.263c-0,0 27.49,-2.759 23.094,-16.263c-6.3,-19.362 -32.526,0 -32.526,0Zm-92.724,-2.604c7.691,3.457 18.871,-3.652 25.272,-8.587c-1.502,-5.617 -3.464,-11.719 -5.653,-18.416c-9.454,7.326 -28.257,23.145 -19.619,27.003Zm-0.141,-67.253l-1.731,32.685l21.491,7.565l-10.397,-38.96l-9.363,-1.29Z" style="fill:#80c341;fill-rule:nonzero;"/><path d="M389.909,663.8l-0,10.498l9.764,-9.772c4.4,-4.403 11.47,-20.298 16.346,-32.089c-2.362,-1.806 -4.768,-3.775 -7.188,-5.906l-18.922,37.269Zm20.796,-98.428c0.813,0.517 1.619,1.037 2.428,1.575c9.06,6.047 17.448,12.542 25.562,18.839c3.189,2.474 6.336,4.916 9.392,7.218c4.028,-14.006 10.342,-30.565 15.584,-51.261c-15.346,3.374 -33.271,8.814 -52.25,17.535c-0.228,2.109 -0.466,4.147 -0.716,6.094Zm101.842,-29.026c-0.148,0 -0.303,0.007 -0.458,0.007c-0.156,0 -0.304,-0.007 -0.452,-0.007c-0.119,-0.007 -0.954,-0.036 -2.428,-0.036c-4.692,-0 -14.139,0.282 -26.789,2.063c1.571,38.494 1.82,65.291 2.413,71.071c1.925,18.654 17.787,34.657 17.787,34.657c4.339,6.871 3.562,54.469 3.562,54.469l5.744,9.389l5.744,-9.389c-0,-0 -0.777,-47.598 3.554,-54.469c0,0 15.87,-16.003 17.788,-34.657c0.592,-5.78 0.845,-32.599 2.42,-71.115c-12.488,-1.737 -21.801,-2.019 -26.454,-2.019c-1.484,-0 -2.311,0.029 -2.431,0.036Zm100.737,29.026c-0.239,-1.976 -0.477,-4.042 -0.712,-6.188c-18.98,-8.699 -36.915,-14.125 -52.254,-17.481c5.238,20.707 11.56,37.281 15.595,51.301c3.06,-2.302 6.21,-4.744 9.389,-7.218c8.113,-6.297 16.505,-12.792 25.572,-18.839c0.809,-0.538 1.622,-1.058 2.41,-1.575Zm-5.296,67.065c4.866,11.791 11.935,27.686 16.339,32.089l9.772,9.772l-0,-10.498l-18.922,-37.269c-2.421,2.131 -4.827,4.1 -7.189,5.906Zm121.107,-364.062c-0,0 0.755,18.807 -12.268,31.83c-15.833,15.829 -28.589,49.884 -28.589,49.884c0,-0 -0.65,-19.461 20.1,-50.589c20.757,-31.125 1.947,-45.39 1.947,-45.39c-0,-0 -51.232,-57.066 -72.621,-4.541c-21.407,52.528 1.94,113.481 43.44,135.528c-0,-0 86.897,-27.881 86.897,-86.89c-0,-23.907 -38.906,-29.832 -38.906,-29.832Zm-101.105,-22.747c0.972,-2.381 2.001,-4.566 3.067,-6.582c-18.405,13.89 -42.847,46.131 -63.532,120.435c-8.081,29.048 -12.672,54.779 -14.818,77.714c3.648,-2.976 8.077,-4.703 12.376,-4.703c0.979,0 1.962,0.09 2.886,0.275c3.902,0.783 7.196,1.983 9.967,3.406c4.819,-11.755 15.736,-18.131 24.229,-19.774c0.664,-0.13 1.329,-0.192 1.99,-0.192c4.722,0 8.97,3.215 10.126,7.958c0.365,1.489 2.807,12.142 1.008,23.691c0.989,0.036 1.932,0.115 2.828,0.22c6.387,-25.518 17.387,-50.361 35.554,-70.612c-12.113,-12.12 -21.78,-27.733 -27.762,-45.34c-9.724,-28.611 -8.991,-59.331 2.081,-86.496Zm-241.647,3.941c-21.4,-52.525 -72.632,4.541 -72.632,4.541c0,-0 -18.802,14.265 1.948,45.39c20.753,31.128 20.096,50.589 20.096,50.589c-0,-0 -12.749,-34.055 -28.575,-49.884c-13.026,-13.023 -12.271,-31.83 -12.271,-31.83c-0,0 -38.91,5.426 -38.91,29.832c0,59.009 86.894,86.89 86.894,86.89c41.51,-22.047 64.85,-83 43.45,-135.528Zm128.036,27.895c-0.813,0.195 -1.629,0.293 -2.453,0.293c-0.827,-0 -1.651,-0.098 -2.457,-0.293c-2.384,-0.574 -35.636,-8.861 -63.387,-27.837c15.32,57.716 24.301,124.217 29.683,184.296l3.346,-2.598c1.784,-1.387 3.915,-2.193 6.108,-2.283l2.836,-4.819c1.503,-2.561 3.627,-4.617 6.535,-5.202c0.82,-0.17 1.615,-0.26 2.377,-0.26c1.907,0 3.677,0.535 5.335,1.705c0.81,0.318 3.924,1.398 9.787,1.398c5.87,0 8.987,-1.08 9.793,-1.398c1.658,-1.17 3.428,-1.705 5.325,-1.705c0.776,0 1.567,0.09 2.387,0.26c2.905,0.585 5.029,2.645 6.532,5.202l2.886,4.909c2.175,0.069 4.302,0.817 6.062,2.193l3.034,2.359c5.383,-60.017 14.363,-126.421 29.658,-184.057c-27.747,18.976 -61.007,27.263 -63.387,27.837Zm-2.453,-10.147c-0,-0 93.226,-22.549 93.226,-78.047c0,-55.498 -85.719,-43.851 -85.719,-43.851l-7.507,95.137l-7.507,-95.137c0,-0 -85.726,-11.647 -85.726,43.851c-0,55.498 93.233,78.047 93.233,78.047Zm-118.994,-28.271c1.08,2.016 2.11,4.201 3.078,6.582c11.069,27.165 11.813,57.885 2.081,86.496c-5.982,17.607 -15.649,33.22 -27.755,45.34c18.16,20.258 29.167,45.105 35.55,70.634c0.99,-0.119 2.027,-0.206 3.122,-0.242c-1.597,-11.86 1.643,-22.809 2.116,-24.319c1.38,-4.429 5.473,-7.33 9.953,-7.33c0.686,0 1.391,0.069 2.091,0.21c7.16,1.463 18.5,7.246 23.304,19.637c2.724,-1.369 5.939,-2.518 9.728,-3.28c0.947,-0.192 1.911,-0.282 2.908,-0.282c4.213,0 8.573,1.669 12.171,4.548c-2.153,-22.896 -6.737,-48.576 -14.804,-77.559c-20.685,-74.304 -45.119,-106.545 -63.543,-120.435Z" style="fill:#fff;fill-rule:nonzero;"/><path d="M593.968,476.044c-7.741,23.65 6.351,26.988 6.351,26.988c10.721,0 6.946,-11.318 6.946,-11.318c-3.695,7.381 -10.519,2.977 -11.314,-4.367c-0.791,-7.344 5.762,-20.255 15.295,-15.093c9.526,5.166 -3.385,11.318 -3.385,11.318c0,-0 10.328,4.172 17.073,-5.159c6.759,-9.331 1.405,-17.271 -1.976,-18.463c-3.378,-1.192 -21.245,-7.55 -28.99,16.094Zm-18.586,46.221c-4.479,-0 -8.106,-3.634 -8.106,-8.107c-0,-4.479 3.627,-8.106 8.106,-8.106c4.483,0 8.106,3.627 8.106,8.106c0,4.473 -3.623,8.107 -8.106,8.107Zm-63.387,-8.558l-8.1,-8.106l8.1,-8.107l8.11,8.107l-8.11,8.106Zm-63.012,8.308c-4.48,0 -8.107,-3.626 -8.107,-8.102c0,-4.483 3.627,-8.107 8.107,-8.107c4.479,0 8.106,3.624 8.106,8.107c0,4.476 -3.627,8.102 -8.106,8.102Zm204.977,-60.302l-4.281,1.673c0,-0 6.517,11.346 2.052,23.82c-0,0 -8.934,-5.025 -8.009,-18.795l-6.13,-0c-0,-0 -5.502,18.513 -14.154,27.169l2.793,5.216c-0,0 5.581,-6.705 20.475,-3.352c0,-0 -20.663,27.086 -48.576,8.933c-22.896,-14.887 -0.372,-40.571 4.649,-52.481c5.025,-11.91 1.271,-27.249 1.271,-27.249c0,0 -20.623,3.981 -18.018,26.32c2.608,22.329 -2.414,41.684 -28.654,43.545c-26.248,1.864 -37.414,-17.68 -37.414,-29.218c-0,0 8.655,-2.236 17.495,13.211l4.84,-2.605c0,0 -8.008,-15.627 1.304,-34.423l-5.028,-3.915c-0,-0 -5.773,13.405 -19.536,15.074c-0,0 -0.192,-12.091 11.719,-18.795l-3.721,-6.329c-0,-0 -4.57,2.796 -15.035,2.796c-10.462,-0 -15.035,-2.796 -15.035,-2.796l-3.725,6.329c11.911,6.704 11.726,18.795 11.726,18.795c-13.77,-1.669 -19.543,-15.074 -19.543,-15.074l-5.025,3.915c9.309,18.796 1.308,34.423 1.308,34.423l4.841,2.605c8.839,-15.447 17.487,-13.211 17.487,-13.211c0,11.538 -11.162,31.082 -37.406,29.218c-26.241,-1.861 -31.262,-21.216 -28.662,-43.545c2.612,-22.339 -16.974,-26.32 -16.974,-26.32c-0,0 -4.798,15.339 0.227,27.249c5.021,11.91 27.545,37.594 4.649,52.481c-27.913,18.153 -48.572,-8.933 -48.572,-8.933c14.886,-3.353 20.475,3.352 20.475,3.352l2.789,-5.216c-8.659,-8.656 -14.147,-27.169 -14.147,-27.169l-6.137,-0c0.928,13.77 -8.002,18.795 -8.002,18.795c-4.468,-12.474 2.045,-23.82 2.045,-23.82l-4.274,-1.673l-16.303,13.167l47.529,77.596c59.14,-28.9 110.729,-26.566 110.729,-26.566c-0,-0 51.585,-2.334 110.732,26.566l47.518,-77.596l-16.292,-13.167Zm-193.157,29.889c9.204,-5.491 0.173,-13.279 0.173,-13.279c0.593,8.233 -7.514,7.951 -11.957,2.048c-4.447,-5.906 -5.426,-20.341 5.404,-20.786c10.83,-0.451 2.894,11.444 2.894,11.444c-0,0 11.007,-1.708 12.022,-13.181c1.019,-11.473 -7.648,-15.545 -11.163,-14.837c-3.507,0.698 -22.104,4.393 -16.649,28.672c5.458,24.272 19.276,19.919 19.276,19.919Zm105.88,-20.573c0,0 -7.929,-11.895 2.901,-11.444c10.83,0.445 9.84,14.88 5.404,20.786c-4.447,5.903 -12.56,6.185 -11.96,-2.048c-0,0 -9.039,7.788 0.177,13.279c-0,0 13.813,4.353 19.275,-19.919c5.455,-24.279 -13.149,-27.974 -16.656,-28.672c-3.508,-0.708 -12.178,3.364 -11.163,14.837c1.015,11.473 12.022,13.181 12.022,13.181Zm-150.552,12.543c0,-0 -12.903,-6.152 -3.363,-11.318c9.523,-5.162 16.079,7.749 15.281,15.093c-0.791,7.344 -7.619,11.748 -11.318,4.367c-0,0 -3.775,11.318 6.95,11.318c0,0 14.1,-3.338 6.351,-26.988c-7.741,-23.644 -25.612,-17.286 -28.983,-16.094c-3.381,1.192 -8.735,9.132 -1.99,18.463c6.752,9.331 17.072,5.159 17.072,5.159Z" style="fill:#ffcb03;fill-rule:nonzero;"/><path d="M655.669,588.52c-0,0 -8.818,-20.883 -8.818,-22.075c-0,-1.192 0.69,-2.074 1.661,-2.294c0.983,-0.202 0.762,-1.524 -0.231,-1.806c-1.008,-0.289 -8.157,2.189 -9.681,2.478c-1.525,0.289 4.862,2.474 5.534,2.474c0.661,0 4.62,12.738 4.62,12.738l-25.695,-8.728l-5.202,2.948c0,1.152 2.962,1.199 5.3,2.012c2.333,0.809 11.202,16.307 11.487,17.737c0.289,1.434 -0.285,2.478 -1.243,2.858c-0.953,0.383 0.289,2.098 0.289,2.098c0,0 7.677,-4.717 7.677,-5.155c-0,-0.422 -1.763,-0.422 -2.915,-0.422c-1.142,-0 -8.768,-14.02 -8.768,-14.02c0,-0 13.254,4.581 15.732,5.39c2.479,0.813 10.253,3.767 10.253,3.767Zm-28.373,7.059l-1.665,0.571c0,-0 -0.282,-0 -0.282,2.857c0,2.858 -3.717,5.715 -5.722,6.81c-2.001,1.102 -7.597,-8.742 -7.597,-8.742c0,-0 2.778,-2.789 4.256,-3.41c1.488,-0.622 2.673,0.48 3.442,1.242c0.755,0.77 1.424,-0.52 1.424,-0.52c-0,0 -4.53,-7.727 -5.101,-7.727c-0.571,0 -0.43,1.095 -0.239,2.764c0.188,1.672 -5.722,5.104 -5.722,5.104c0,-0 -3.572,-4.906 -4.663,-6.914c-1.102,-1.998 3.471,-4.433 5.621,-5.195c2.145,-0.762 4.382,0.91 5.194,1.236c0.81,0.339 1.142,-0.326 1.142,-0.326c-0,0 -4.57,-5.671 -5.198,-5.671c-0.615,-0 -16.249,11.726 -16.249,11.726c-0.192,2.287 1.763,0.993 3.666,0.993c1.908,0 12.301,16.151 13.063,17.676c0.762,1.532 1.091,2.391 -0.043,3.529c-1.149,1.149 0.231,1.911 0.231,1.911c-0,0 14.544,-10.194 15.544,-10.667c1.001,-0.481 0.481,-1.955 0.289,-2.865c-0.191,-0.903 -1.391,-4.382 -1.391,-4.382Zm-21.306,19.818c-2.193,0.249 -11.961,-14.244 -13.442,-17.051c-1.481,-2.817 0.474,-4.06 0.474,-4.06l-1.283,-2.045l-9.482,7.149c2.283,3.237 0.78,0.069 3.717,0.474c2.933,0.408 12.488,15.006 13.731,17.249c1.239,2.236 0.209,3.695 -0.672,4.588c-0.882,0.874 0.43,2.135 0.43,2.135c-0,-0 0.805,-0.802 2.196,-2.193c1.383,-1.384 8.316,-5.744 8.316,-5.744l-1.077,-1.073c0,0 -0.715,0.333 -2.908,0.571Zm-28.834,18.29c-2.872,-0 -12.095,-20.107 -12.095,-20.107c8.616,-7.416 20.862,-1.665 21.624,8.457c0.755,10.133 -6.661,11.65 -9.529,11.65Zm-20.873,-18.453l0.686,2.5l2.193,-1.293c0,0 11.332,13.893 12.857,21.331c0.238,1.193 -1.821,2.421 -1.821,2.421l1.741,1.741c0,0 16.863,-9.15 18.225,-13.229c1.362,-4.085 2.42,-11.953 -3.027,-17.397c-5.448,-5.448 -13.305,-7.854 -30.854,3.926Z" style="fill:#fff;fill-rule:nonzero;"/><path d="M451.967,607.934c-1.03,1.022 -0.055,2.2 1.08,3.338c1.13,1.134 -4.1,9.269 -4.1,9.269l-12.727,-8.514c0,-0 3.88,-5.936 5.285,-7.33c1.402,-1.398 3.555,-0 3.555,-0l0.762,-1.723l-11.007,-7.341c-0.748,0.755 -0,2.056 1.185,3.241c1.192,1.185 -7.005,14.117 -9.808,17.892c-2.807,3.775 -4.967,2.272 -6.474,2.272c-1.502,0 0,1.503 0,1.503c0,0 8.634,5.935 9.172,6.47c0.535,0.538 1.72,0 1.72,0c-0,0 -1.615,-2.8 -1.615,-3.659c0,-0.864 4.53,-9.06 5.502,-9.06c0.968,-0 12.73,8.409 12.73,9.164c0,0.755 -2.272,4.96 -4.002,6.68c-1.72,1.73 -1.608,1.625 -2.905,1.625c-1.3,0 -3.128,1.402 -0.87,2.052c2.272,0.643 9.06,5.173 9.06,5.173c0.975,-0.975 -1.283,-3.24 -1.283,-3.24c0,-2.695 7.218,-15.53 9.92,-18.225c2.688,-2.695 3.663,-1.127 4.797,-1.127c1.127,0 1.452,-1.456 1.452,-1.456l-11.429,-7.004Zm-54.032,-15.751c2.479,-15.414 21.032,-12.932 26.317,3.132l2.048,-3.666c0,-0 -7.333,-13.908 -22.754,-12.3c-15.426,1.625 -17.907,23.404 8.622,31.59l3.028,-3.984c-0,-0 -19.742,0.646 -17.261,-14.772Zm-18.979,-23.191c1.455,1.463 -2.157,16.617 -3.562,19.528c-1.405,2.908 -4.523,3.02 -5.173,3.02c-0.647,0 -0.535,2.161 -0.535,2.161c4.418,-0 11.965,3.338 13.153,3.338c1.185,-0 0.697,-1.453 0.697,-1.453c0,0 -1.022,0.484 -2.64,-2.973c-1.825,-3.894 3.89,-18.654 4.847,-20.706c0.976,-2.056 5.188,-0.968 5.188,-0.968l-0,-2.045l-15.212,-2.59c-0,2.59 1.777,1.235 3.237,2.688Z" style="fill:#fff;fill-rule:nonzero;"/><path d="M745.929,778.065c-1.593,-0.607 -3.02,-1.279 -4.288,-1.998c-1.264,-0.733 -2.345,-1.593 -3.233,-2.604c-0.889,-1.008 -1.579,-2.215 -2.074,-3.62c-0.487,-1.401 -0.733,-3.096 -0.733,-5.057c-0,-2.392 0.408,-4.501 1.228,-6.329c0.817,-1.828 1.976,-3.36 3.479,-4.599c1.503,-1.242 3.302,-2.182 5.411,-2.817c2.11,-0.629 4.473,-0.943 7.095,-0.943c2.395,-0 4.631,0.209 6.712,0.625c2.088,0.426 4.281,1.036 6.575,1.828c-0.282,2.723 -1.03,5.389 -2.251,8.015c-0.704,-0.281 -1.416,-0.563 -2.146,-0.845c-0.718,-0.285 -1.495,-0.516 -2.312,-0.701c-0.827,-0.184 -1.752,-0.339 -2.781,-0.458c-1.03,-0.12 -2.2,-0.177 -3.511,-0.177c-0.799,-0 -1.612,0.072 -2.428,0.213c-0.82,0.141 -1.561,0.401 -2.211,0.776c-0.654,0.372 -1.199,0.925 -1.615,1.651c-0.422,0.726 -0.635,1.673 -0.635,2.843c-0,0.94 0.162,1.723 0.487,2.356c0.333,0.628 0.777,1.174 1.341,1.618c0.563,0.444 1.192,0.816 1.9,1.12c0.697,0.303 1.401,0.599 2.102,0.881l4.219,1.619c1.785,0.704 3.393,1.43 4.852,2.178c1.449,0.748 2.684,1.672 3.685,2.774c1.008,1.098 1.799,2.435 2.355,4.006c0.564,1.576 0.849,3.508 0.849,5.802c-0,2.384 -0.437,4.563 -1.301,6.531c-0.874,1.969 -2.124,3.656 -3.767,5.065c-1.637,1.405 -3.66,2.507 -6.073,3.298c-2.413,0.795 -5.195,1.199 -8.334,1.199c-1.539,0 -2.929,-0.05 -4.14,-0.14c-1.221,-0.094 -2.387,-0.25 -3.478,-0.459c-1.102,-0.213 -2.197,-0.481 -3.27,-0.806c-1.08,-0.332 -2.207,-0.726 -3.377,-1.199c0.141,-1.355 0.401,-2.774 0.776,-4.248c0.372,-1.481 0.817,-2.963 1.333,-4.465c1.969,0.794 3.822,1.398 5.553,1.791c1.734,0.401 3.583,0.6 5.552,0.6c2.948,0 5.271,-0.549 6.958,-1.651c1.687,-1.102 2.532,-2.781 2.532,-5.025c-0,-1.127 -0.199,-2.066 -0.6,-2.814c-0.394,-0.748 -0.917,-1.383 -1.546,-1.896c-0.636,-0.517 -1.347,-0.947 -2.146,-1.301c-0.794,-0.35 -1.614,-0.69 -2.453,-1.015l-4.291,-1.622Zm-354.568,13.85c0.607,1.312 1.116,2.659 1.51,4.035c0.394,1.384 0.69,2.778 0.874,4.184c-2.435,0.895 -4.62,1.473 -6.567,1.755c-1.94,0.286 -4.036,0.426 -6.29,0.426c-3.984,0 -7.477,-0.643 -10.469,-1.936c-3.005,-1.282 -5.516,-3.088 -7.564,-5.411c-2.034,-2.319 -3.569,-5.072 -4.602,-8.255c-1.03,-3.189 -1.543,-6.654 -1.543,-10.407c0,-3.746 0.535,-7.225 1.615,-10.433c1.08,-3.211 2.637,-5.986 4.671,-8.327c2.048,-2.34 4.544,-4.168 7.528,-5.483c2.973,-1.311 6.358,-1.965 10.155,-1.965c2.25,-0 4.324,0.141 6.224,0.422c1.889,0.275 3.941,0.86 6.145,1.756c-0.094,1.405 -0.376,2.774 -0.849,4.107c-0.466,1.341 -0.979,2.688 -1.543,4.043c-1.64,-0.564 -3.092,-0.961 -4.353,-1.192c-1.264,-0.235 -2.767,-0.355 -4.504,-0.355c-4.494,0 -7.951,1.467 -10.364,4.397c-2.414,2.93 -3.62,7.268 -3.62,13.03c-0,11.437 4.848,17.152 14.551,17.152c1.734,-0 3.251,-0.119 4.562,-0.351c1.315,-0.234 2.789,-0.635 4.433,-1.192Zm-65.577,10.4c-3.796,0 -7.077,-0.657 -9.836,-1.968c-2.764,-1.315 -5.036,-3.129 -6.821,-5.448c-1.777,-2.323 -3.099,-5.061 -3.973,-8.225c-0.86,-3.161 -1.297,-6.615 -1.297,-10.368c-0,-3.746 0.437,-7.225 1.297,-10.433c0.874,-3.211 2.196,-5.986 3.973,-8.327c1.785,-2.34 4.057,-4.168 6.821,-5.483c2.759,-1.311 6.04,-1.965 9.836,-1.965c3.797,-0 7.077,0.654 9.844,1.965c2.764,1.315 5.029,3.143 6.813,5.483c1.788,2.341 3.107,5.116 3.974,8.327c0.867,3.208 1.297,6.687 1.297,10.433c-0,3.753 -0.43,7.207 -1.297,10.368c-0.867,3.164 -2.186,5.902 -3.974,8.225c-1.784,2.319 -4.049,4.133 -6.813,5.448c-2.767,1.311 -6.047,1.968 -9.844,1.968Zm-69.785,-51.379c1.734,-0.275 3.443,-0.416 5.13,-0.416c1.683,0 3.421,0.141 5.198,0.416l0,19.818l16.942,-0l0,-19.818c1.727,-0.275 3.443,-0.416 5.13,-0.416c1.683,0 3.414,0.141 5.198,0.416l0,50.531c-1.784,0.281 -3.493,0.422 -5.129,0.422c-1.734,0 -3.472,-0.141 -5.199,-0.422l0,-21.859l-16.942,-0l0,21.859c-1.777,0.281 -3.493,0.422 -5.13,0.422c-1.734,0 -3.464,-0.141 -5.198,-0.422l0,-50.531Zm158.904,25.088l13.709,-25.088c1.073,-0.184 2.07,-0.304 2.988,-0.354c0.91,-0.04 1.741,-0.062 2.496,-0.062c0.791,0 1.68,0.04 2.666,0.141c0.99,0.091 2.019,0.184 3.092,0.275l-13.843,24.391l15.035,26.14c-1.073,0.101 -2.117,0.191 -3.124,0.281c-1.005,0.101 -1.908,0.141 -2.703,0.141c-0.747,0 -1.582,-0.018 -2.499,-0.068c-0.911,-0.044 -1.933,-0.163 -3.056,-0.354l-14.761,-25.443Zm-11.74,-25.161c0.899,-0.14 1.759,-0.231 2.604,-0.281c0.842,-0.04 1.709,-0.062 2.605,-0.062c0.791,0 1.607,0.022 2.456,0.062c0.846,0.05 1.705,0.141 2.601,0.281l0,50.676c-0.896,0.141 -1.755,0.238 -2.601,0.282c-0.849,0.05 -1.687,0.068 -2.528,0.068c-0.846,0 -1.691,-0.018 -2.533,-0.068c-0.845,-0.044 -1.705,-0.141 -2.604,-0.282l-0,-50.676Zm95.867,32.541l-15.743,-32.468c1.968,-0.275 3.937,-0.416 5.906,-0.416c1.777,0 3.562,0.141 5.339,0.416l9.978,22.917l9.844,-22.917c1.726,-0.275 3.511,-0.416 5.339,-0.416c1.687,0 3.493,0.141 5.411,0.416l-15.739,32.468l-0,18.135c-0.94,0.141 -1.828,0.238 -2.673,0.282c-0.842,0.05 -1.687,0.068 -2.533,0.068c-0.798,0 -1.633,-0.018 -2.492,-0.068c-0.867,-0.044 -1.749,-0.141 -2.637,-0.282l-0,-18.135Zm127.493,-32.468c0.979,-0.141 1.919,-0.246 2.807,-0.318c0.896,-0.065 1.875,-0.098 2.955,-0.098c0.939,0 1.85,0.033 2.746,0.098c0.881,0.072 1.871,0.177 2.947,0.318l15.812,50.531c-1.918,0.281 -3.793,0.422 -5.621,0.422c-1.777,0 -3.515,-0.141 -5.202,-0.422l-2.807,-10.119l-16.729,0l-2.886,10.119c-1.687,0.281 -3.295,0.422 -4.848,0.422c-1.727,0 -3.443,-0.141 -5.126,-0.422l15.952,-50.531Zm-80.618,-0c1.694,-0.275 3.605,-0.416 5.772,-0.416c0.838,0 1.694,0.022 2.561,0.062c0.867,0.05 1.72,0.17 2.569,0.354l7.239,38.021l8.713,-38.021c0.932,-0.141 1.799,-0.246 2.594,-0.318c0.798,-0.065 1.619,-0.098 2.464,-0.098c1.405,0 2.93,0.141 4.566,0.416l9.067,39.01l7.236,-39.01c1.456,-0.275 2.951,-0.416 4.505,-0.416c0.935,0 1.846,0.04 2.734,0.141c0.896,0.091 1.759,0.184 2.605,0.275l-12.163,50.531c-1.68,0.281 -3.436,0.422 -5.271,0.422c-1.777,0 -3.724,-0.141 -5.827,-0.422l-8.088,-33.661l-8.713,33.661c-1.12,0.101 -2.124,0.191 -2.984,0.281c-0.867,0.101 -1.821,0.141 -2.85,0.141c-1.452,0 -3.02,-0.141 -4.707,-0.422l-12.022,-50.531Zm115.33,-0c1.734,-0.275 3.4,-0.416 4.996,-0.416c1.637,0 3.349,0.141 5.13,0.416l-0,41.676l17.502,0c0.141,0.799 0.235,1.561 0.278,2.287c0.047,0.726 0.069,1.416 0.069,2.074c-0,0.747 -0.022,1.488 -0.069,2.214c-0.043,0.73 -0.137,1.488 -0.278,2.28l-27.628,-0l0,-50.531Zm-212.808,-0l28.679,-0c0.274,1.405 0.415,2.836 0.415,4.288c0,1.546 -0.141,3.02 -0.415,4.432l-18.413,0l0,10.957l14.609,-0c0.292,1.502 0.433,2.958 0.433,4.36c0,1.503 -0.141,2.977 -0.433,4.432l-14.609,0l0,13.348l18.9,0c0.282,1.406 0.423,2.836 0.423,4.292c-0,1.542 -0.141,3.02 -0.423,4.422l-29.166,-0l-0,-50.531Zm249.222,-0l28.675,-0c0.282,1.405 0.423,2.836 0.423,4.288c-0,1.546 -0.141,3.02 -0.423,4.432l-18.416,0l0,10.957l14.62,-0c0.281,1.502 0.422,2.958 0.422,4.36c0,1.503 -0.141,2.977 -0.422,4.432l-14.62,0l0,13.348l18.9,0c0.289,1.406 0.43,2.836 0.43,4.292c0,1.542 -0.141,3.02 -0.43,4.422l-29.159,-0l-0,-50.531Zm-371.865,42.807c7.268,0 10.895,-5.816 10.895,-17.437c0,-5.805 -0.874,-10.165 -2.633,-13.074c-1.756,-2.897 -4.487,-4.353 -8.19,-4.353c-7.354,0 -11.036,5.809 -11.036,17.427c0,11.621 3.656,17.437 10.964,17.437Zm311.985,-10.895l-5.834,-21.23l-6.12,21.23l11.954,0Z" style="fill:#fff;fill-rule:nonzero;"/><path d="M683.383,828.22c1.12,-0.141 2.341,-0.209 3.656,-0.209c1.261,-0 2.431,0.068 3.511,0.209l0,28.676c0,2.908 0.184,5.39 0.564,7.449c0.368,2.062 0.982,3.742 1.82,5.025c0.849,1.293 1.955,2.236 3.338,2.85c1.384,0.607 3.085,0.91 5.101,0.91c2.012,0 3.699,-0.303 5.061,-0.91c1.355,-0.614 2.46,-1.557 3.302,-2.85c0.838,-1.283 1.452,-2.963 1.828,-5.025c0.372,-2.059 0.563,-4.541 0.563,-7.449l0,-28.676c1.171,-0.141 2.363,-0.209 3.584,-0.209c1.311,-0 2.525,0.068 3.656,0.209l-0,29.94c-0,3.378 -0.318,6.398 -0.954,9.064c-0.629,2.677 -1.665,4.927 -3.089,6.751c-1.427,1.828 -3.291,3.219 -5.588,4.18c-2.294,0.957 -5.083,1.445 -8.363,1.445c-3.28,-0 -6.065,-0.488 -8.366,-1.445c-2.294,-0.961 -4.158,-2.352 -5.589,-4.18c-1.427,-1.824 -2.456,-4.074 -3.088,-6.751c-0.636,-2.666 -0.947,-5.686 -0.947,-9.064l0,-29.94Zm-243.529,43.154c1.03,2.016 1.687,3.956 1.969,5.835c-1.969,0.845 -3.981,1.452 -6.047,1.827c-2.059,0.373 -4.292,0.564 -6.676,0.564c-3.656,-0 -6.943,-0.6 -9.876,-1.792c-2.93,-1.199 -5.397,-2.908 -7.41,-5.129c-2.019,-2.229 -3.561,-4.931 -4.642,-8.121c-1.08,-3.19 -1.614,-6.774 -1.614,-10.751c-0,-4.031 0.534,-7.676 1.614,-10.931c1.081,-3.258 2.623,-6.033 4.642,-8.334c2.013,-2.29 4.465,-4.057 7.373,-5.303c2.908,-1.243 6.167,-1.864 9.772,-1.864c2.673,-0 4.967,0.191 6.893,0.563c1.914,0.376 3.626,0.821 5.129,1.333c-0.097,1.081 -0.296,2.078 -0.599,2.995c-0.304,0.911 -0.669,1.882 -1.095,2.912c-0.697,-0.231 -1.38,-0.445 -2.03,-0.636c-0.665,-0.181 -1.362,-0.35 -2.11,-0.484c-0.755,-0.141 -1.586,-0.249 -2.496,-0.318c-0.91,-0.072 -1.954,-0.105 -3.128,-0.105c-5.108,0 -9.078,1.734 -11.911,5.199c-2.843,3.471 -4.259,8.46 -4.259,14.973c0,3.327 0.401,6.206 1.2,8.641c0.798,2.435 1.918,4.454 3.37,6.047c1.456,1.586 3.204,2.786 5.238,3.584c2.038,0.798 4.324,1.192 6.857,1.192c1.968,-0 3.746,-0.163 5.335,-0.495c1.593,-0.321 3.096,-0.787 4.501,-1.402Zm84.9,0c1.029,2.016 1.69,3.956 1.968,5.835c-1.968,0.845 -3.98,1.452 -6.047,1.827c-2.055,0.373 -4.284,0.564 -6.676,0.564c-3.655,-0 -6.943,-0.6 -9.869,-1.792c-2.929,-1.199 -5.397,-2.908 -7.416,-5.129c-2.019,-2.229 -3.562,-4.931 -4.635,-8.121c-1.08,-3.19 -1.622,-6.774 -1.622,-10.751c0,-4.031 0.542,-7.676 1.622,-10.931c1.073,-3.258 2.616,-6.033 4.635,-8.334c2.019,-2.29 4.472,-4.057 7.38,-5.303c2.901,-1.243 6.159,-1.864 9.765,-1.864c2.673,-0 4.967,0.191 6.892,0.563c1.922,0.376 3.627,0.821 5.13,1.333c-0.098,1.081 -0.296,2.078 -0.6,2.995c-0.303,0.911 -0.668,1.882 -1.087,2.912c-0.705,-0.231 -1.38,-0.445 -2.038,-0.636c-0.657,-0.181 -1.361,-0.35 -2.109,-0.484c-0.748,-0.141 -1.583,-0.249 -2.493,-0.318c-0.914,-0.072 -1.958,-0.105 -3.132,-0.105c-5.108,0 -9.078,1.734 -11.91,5.199c-2.836,3.471 -4.252,8.46 -4.252,14.973c0,3.327 0.394,6.206 1.199,8.641c0.788,2.435 1.911,4.454 3.371,6.047c1.448,1.586 3.197,2.786 5.238,3.584c2.037,0.798 4.317,1.192 6.849,1.192c1.969,-0 3.746,-0.163 5.343,-0.495c1.586,-0.321 3.088,-0.787 4.494,-1.402Zm-150.679,8.226c-3.656,-0 -6.816,-0.65 -9.49,-1.933c-2.673,-1.289 -4.884,-3.096 -6.643,-5.411c-1.756,-2.323 -3.067,-5.072 -3.941,-8.262c-0.863,-3.182 -1.301,-6.676 -1.301,-10.472c0,-3.793 0.438,-7.287 1.301,-10.469c0.874,-3.19 2.185,-5.943 3.941,-8.262c1.759,-2.315 3.97,-4.136 6.643,-5.447c2.674,-1.304 5.834,-1.969 9.49,-1.969c3.649,-0 6.813,0.665 9.483,1.969c2.673,1.311 4.888,3.132 6.647,5.447c1.755,2.319 3.052,5.072 3.894,8.262c0.845,3.182 1.268,6.676 1.268,10.469c-0,3.796 -0.423,7.29 -1.268,10.472c-0.842,3.19 -2.139,5.939 -3.894,8.262c-1.759,2.315 -3.974,4.122 -6.647,5.411c-2.67,1.283 -5.834,1.933 -9.483,1.933Zm-69.442,-51.38c0.564,-0.09 1.149,-0.159 1.756,-0.209c0.607,-0.044 1.214,-0.073 1.828,-0.073c0.607,0 1.214,0.029 1.828,0.073c0.607,0.05 1.192,0.119 1.755,0.209l0,20.801l21.505,-0l0,-20.801c0.517,-0.09 1.08,-0.159 1.687,-0.209c0.607,-0.044 1.221,-0.073 1.828,-0.073c0.607,0 1.236,0.029 1.861,0.073c0.635,0.05 1.235,0.119 1.795,0.209l-0,50.535c-0.517,0.09 -1.08,0.162 -1.687,0.209c-0.607,0.044 -1.243,0.072 -1.9,0.072c-0.607,0 -1.228,-0.028 -1.861,-0.072c-0.628,-0.047 -1.206,-0.119 -1.723,-0.209l0,-23.405l-21.505,-0l0,23.405c-0.563,0.09 -1.134,0.162 -1.723,0.209c-0.585,0.044 -1.206,0.072 -1.86,0.072c-0.614,0 -1.236,-0.028 -1.864,-0.072c-0.636,-0.047 -1.207,-0.119 -1.72,-0.209l0,-50.535Zm148.154,0c0.556,-0.09 1.141,-0.159 1.755,-0.209c0.607,-0.044 1.221,-0.073 1.828,-0.073c0.607,0 1.221,0.029 1.828,0.073c0.607,0.05 1.192,0.119 1.756,0.209l-0,50.535c-0.564,0.09 -1.135,0.162 -1.72,0.209c-0.585,0.044 -1.206,0.072 -1.864,0.072c-0.607,0 -1.228,-0.028 -1.864,-0.072c-0.625,-0.047 -1.206,-0.119 -1.719,-0.209l-0,-50.535Zm96.004,32.05l-16.025,-32.05c0.607,-0.09 1.272,-0.159 1.969,-0.209c0.708,-0.044 1.405,-0.073 2.11,-0.073c0.606,0 1.278,0.029 2.004,0.073c0.727,0.05 1.37,0.119 1.926,0.209l11.813,25.092l11.668,-25.092c0.607,-0.09 1.214,-0.159 1.828,-0.209c0.607,-0.044 1.235,-0.073 1.896,-0.073c0.658,0 1.308,0.029 1.969,0.073c0.65,0.05 1.286,0.119 1.893,0.209l-15.812,32.05l0,18.485c-0.607,0.09 -1.221,0.162 -1.828,0.209c-0.607,0.044 -1.213,0.072 -1.828,0.072c-0.606,0 -1.228,-0.028 -1.86,-0.072c-0.636,-0.047 -1.207,-0.119 -1.723,-0.209l-0,-18.485Zm33.668,-32.05c0.567,-0.09 1.199,-0.159 1.925,-0.209c0.737,-0.044 1.427,-0.073 2.077,-0.073c0.654,0 1.377,0.029 2.143,0.073c0.776,0.05 1.419,0.119 1.936,0.209l13.073,31.624l13.135,-31.624c0.473,-0.09 1.059,-0.159 1.767,-0.209c0.697,-0.044 1.376,-0.073 2.037,-0.073c0.607,0 1.286,0.029 2.034,0.073c0.755,0.05 1.383,0.119 1.896,0.209l2.392,50.535c-0.564,0.09 -1.135,0.162 -1.72,0.209c-0.585,0.044 -1.185,0.072 -1.792,0.072c-0.606,0 -1.206,-0.028 -1.795,-0.072c-0.585,-0.047 -1.134,-0.119 -1.651,-0.209l-1.615,-39.286l-12.369,28.813c-0.935,0.141 -1.896,0.213 -2.882,0.213c-0.893,0 -1.781,-0.072 -2.677,-0.213l-11.943,-29.026l-1.618,39.499c-0.513,0.09 -1.051,0.162 -1.615,0.209c-0.556,0.044 -1.102,0.072 -1.615,0.072c-0.614,0 -1.199,-0.028 -1.755,-0.072c-0.56,-0.047 -1.102,-0.119 -1.619,-0.209l2.251,-50.535Zm57.842,-0.068c1.03,-0.091 1.969,-0.185 2.807,-0.282c0.842,-0.094 1.673,-0.177 2.493,-0.249c0.816,-0.069 1.679,-0.127 2.568,-0.167c0.889,-0.05 1.868,-0.079 2.955,-0.079c2.384,-0 4.75,0.242 7.091,0.704c2.341,0.474 4.433,1.294 6.257,2.464c1.828,1.17 3.316,2.753 4.469,4.743c1.148,1.987 1.719,4.509 1.719,7.554c0,1.828 -0.311,3.493 -0.917,4.989c-0.607,1.502 -1.38,2.835 -2.312,4.009c-0.94,1.171 -2.005,2.186 -3.197,3.053c-1.2,0.87 -2.356,1.582 -3.486,2.146l-0.838,0.422l14.68,21.296c-1.26,0.141 -2.694,0.209 -4.28,0.209c-1.265,0 -2.536,-0.068 -3.797,-0.209l-16.166,-23.405l0,-0.282l0.568,-0.141c1.26,-0.325 2.593,-0.769 4.006,-1.333c1.405,-0.564 2.702,-1.297 3.894,-2.214c1.199,-0.911 2.193,-2.013 2.991,-3.302c0.798,-1.286 1.192,-2.847 1.192,-4.671c0,-3.381 -0.993,-5.885 -2.984,-7.521c-1.997,-1.647 -4.678,-2.464 -8.048,-2.464c-0.799,0 -1.532,0.022 -2.211,0.069c-0.683,0.05 -1.445,0.115 -2.294,0.213l0,45.051c-0.506,0.047 -1.084,0.09 -1.712,0.141c-0.636,0.047 -1.236,0.068 -1.799,0.068c-0.56,0 -1.171,-0.014 -1.821,-0.032c-0.665,-0.022 -1.264,-0.087 -1.828,-0.177l0,-50.603Zm-266.226,45.26c2.341,-0 4.368,-0.459 6.073,-1.369c1.716,-0.918 3.135,-2.236 4.255,-3.97c1.124,-1.738 1.969,-3.819 2.533,-6.261c0.559,-2.434 0.841,-5.198 0.841,-8.29c0,-3.046 -0.282,-5.798 -0.841,-8.255c-0.564,-2.46 -1.409,-4.544 -2.533,-6.256c-1.12,-1.709 -2.539,-3.02 -4.255,-3.938c-1.705,-0.91 -3.732,-1.369 -6.073,-1.369c-2.351,-0 -4.367,0.459 -6.083,1.369c-1.712,0.918 -3.132,2.229 -4.256,3.938c-1.119,1.712 -1.961,3.796 -2.525,6.256c-0.563,2.457 -0.849,5.209 -0.849,8.255c0,3.092 0.286,5.856 0.849,8.29c0.564,2.442 1.406,4.523 2.525,6.261c1.124,1.734 2.544,3.052 4.256,3.97c1.716,0.91 3.732,1.369 6.083,1.369Z" style="fill:#fff;fill-rule:nonzero;"/></g></svg>