<svg clip-rule="evenodd" fill-rule="evenodd" stroke-linejoin="round" stroke-miterlimit="2" viewBox="0 0 1024 1024" xmlns="http://www.w3.org/2000/svg"><g fill-rule="nonzero"><path d="m0 0h1024v1024h-1024z" fill="#231f20"/><path d="m409.636 571.878c-31.526-21.01-45.589-8.934-45.589-8.934 1.308 22.784-15.291 39.047-15.291 39.047 6.831-6.831 30.42-12.849 57.589 14.309 27.166 27.173 54.006 30.905 54.006 30.905 0-13.334 21.801-36.11 21.801-36.11-14.973 10.739-40.994-18.218-72.516-39.217zm-56.975 37.262c-4.397 13.504 23.101 16.263 23.101 16.263s1.785-12.271 9.432-16.263c0 0-26.233-19.362-32.533 0zm125.25-2.604c8.641-3.858-10.169-19.677-19.623-27.003-2.178 6.697-4.147 12.799-5.642 18.416 6.39 4.935 17.574 12.044 25.265 8.587zm.141-67.253-9.36 1.29-10.404 38.96 21.491-7.565z" fill="#80c341"/><path d="m674.811 601.991s-16.596-16.263-15.299-39.047c0 0-14.059-12.076-45.578 8.934-31.522 20.999-57.55 49.956-72.516 39.217 0 0 21.801 22.776 21.801 36.11 0 0 26.84-3.732 54.002-30.905 27.173-27.158 50.751-21.14 57.59-14.309zm-36.435 7.149c7.64 3.992 9.432 16.263 9.432 16.263s27.49-2.759 23.094-16.263c-6.3-19.362-32.526 0-32.526 0zm-92.724-2.604c7.691 3.457 18.871-3.652 25.272-8.587-1.502-5.617-3.464-11.719-5.653-18.416-9.454 7.326-28.257 23.145-19.619 27.003zm-.141-67.253-1.731 32.685 21.491 7.565-10.397-38.96z" fill="#80c341"/><path d="m389.909 663.8v10.498l9.764-9.772c4.4-4.403 11.47-20.298 16.346-32.089-2.362-1.806-4.768-3.775-7.188-5.906zm20.796-98.428c.813.517 1.619 1.037 2.428 1.575 9.06 6.047 17.448 12.542 25.562 18.839 3.189 2.474 6.336 4.916 9.392 7.218 4.028-14.006 10.342-30.565 15.584-51.261-15.346 3.374-33.271 8.814-52.25 17.535-.228 2.109-.466 4.147-.716 6.094zm101.842-29.026c-.148 0-.303.007-.458.007-.156 0-.304-.007-.452-.007-.119-.007-.954-.036-2.428-.036-4.692 0-14.139.282-26.789 2.063 1.571 38.494 1.82 65.291 2.413 71.071 1.925 18.654 17.787 34.657 17.787 34.657 4.339 6.871 3.562 54.469 3.562 54.469l5.744 9.389 5.744-9.389s-.777-47.598 3.554-54.469c0 0 15.87-16.003 17.788-34.657.592-5.78.845-32.599 2.42-71.115-12.488-1.737-21.801-2.019-26.454-2.019-1.484 0-2.311.029-2.431.036zm100.737 29.026c-.239-1.976-.477-4.042-.712-6.188-18.98-8.699-36.915-14.125-52.254-17.481 5.238 20.707 11.56 37.281 15.595 51.301 3.06-2.302 6.21-4.744 9.389-7.218 8.113-6.297 16.505-12.792 25.572-18.839.809-.538 1.622-1.058 2.41-1.575zm-5.296 67.065c4.866 11.791 11.935 27.686 16.339 32.089l9.772 9.772v-10.498l-18.922-37.269c-2.421 2.131-4.827 4.1-7.189 5.906zm121.107-364.062s.755 18.807-12.268 31.83c-15.833 15.829-28.589 49.884-28.589 49.884s-.65-19.461 20.1-50.589c20.757-31.125 1.947-45.39 1.947-45.39s-51.232-57.066-72.621-4.541c-21.407 52.528 1.94 113.481 43.44 135.528 0 0 86.897-27.881 86.897-86.89 0-23.907-38.906-29.832-38.906-29.832zm-101.105-22.747c.972-2.381 2.001-4.566 3.067-6.582-18.405 13.89-42.847 46.131-63.532 120.435-8.081 29.048-12.672 54.779-14.818 77.714 3.648-2.976 8.077-4.703 12.376-4.703.979 0 1.962.09 2.886.275 3.902.783 7.196 1.983 9.967 3.406 4.819-11.755 15.736-18.131 24.229-19.774.664-.13 1.329-.192 1.99-.192 4.722 0 8.97 3.215 10.126 7.958.365 1.489 2.807 12.142 1.008 23.691.989.036 1.932.115 2.828.22 6.387-25.518 17.387-50.361 35.554-70.612-12.113-12.12-21.78-27.733-27.762-45.34-9.724-28.611-8.991-59.331 2.081-86.496zm-241.647 3.941c-21.4-52.525-72.632 4.541-72.632 4.541s-18.802 14.265 1.948 45.39c20.753 31.128 20.096 50.589 20.096 50.589s-12.749-34.055-28.575-49.884c-13.026-13.023-12.271-31.83-12.271-31.83s-38.91 5.426-38.91 29.832c0 59.009 86.894 86.89 86.894 86.89 41.51-22.047 64.85-83 43.45-135.528zm128.036 27.895c-.813.195-1.629.293-2.453.293-.827 0-1.651-.098-2.457-.293-2.384-.574-35.636-8.861-63.387-27.837 15.32 57.716 24.301 124.217 29.683 184.296l3.346-2.598c1.784-1.387 3.915-2.193 6.108-2.283l2.836-4.819c1.503-2.561 3.627-4.617 6.535-5.202.82-.17 1.615-.26 2.377-.26 1.907 0 3.677.535 5.335 1.705.81.318 3.924 1.398 9.787 1.398 5.87 0 8.987-1.08 9.793-1.398 1.658-1.17 3.428-1.705 5.325-1.705.776 0 1.567.09 2.387.26 2.905.585 5.029 2.645 6.532 5.202l2.886 4.909c2.175.069 4.302.817 6.062 2.193l3.034 2.359c5.383-60.017 14.363-126.421 29.658-184.057-27.747 18.976-61.007 27.263-63.387 27.837zm-2.453-10.147s93.226-22.549 93.226-78.047-85.719-43.851-85.719-43.851l-7.507 95.137-7.507-95.137s-85.726-11.647-85.726 43.851 93.233 78.047 93.233 78.047zm-118.994-28.271c1.08 2.016 2.11 4.201 3.078 6.582 11.069 27.165 11.813 57.885 2.081 86.496-5.982 17.607-15.649 33.22-27.755 45.34 18.16 20.258 29.167 45.105 35.55 70.634.99-.119 2.027-.206 3.122-.242-1.597-11.86 1.643-22.809 2.116-24.319 1.38-4.429 5.473-7.33 9.953-7.33.686 0 1.391.069 2.091.21 7.16 1.463 18.5 7.246 23.304 19.637 2.724-1.369 5.939-2.518 9.728-3.28.947-.192 1.911-.282 2.908-.282 4.213 0 8.573 1.669 12.171 4.548-2.153-22.896-6.737-48.576-14.804-77.559-20.685-74.304-45.119-106.545-63.543-120.435z" fill="#fff"/><path d="m593.968 476.044c-7.741 23.65 6.351 26.988 6.351 26.988 10.721 0 6.946-11.318 6.946-11.318-3.695 7.381-10.519 2.977-11.314-4.367-.791-7.344 5.762-20.255 15.295-15.093 9.526 5.166-3.385 11.318-3.385 11.318s10.328 4.172 17.073-5.159c6.759-9.331 1.405-17.271-1.976-18.463-3.378-1.192-21.245-7.55-28.99 16.094zm-18.586 46.221c-4.479 0-8.106-3.634-8.106-8.107 0-4.479 3.627-8.106 8.106-8.106 4.483 0 8.106 3.627 8.106 8.106 0 4.473-3.623 8.107-8.106 8.107zm-63.387-8.558-8.1-8.106 8.1-8.107 8.11 8.107zm-63.012 8.308c-4.48 0-8.107-3.626-8.107-8.102 0-4.483 3.627-8.107 8.107-8.107 4.479 0 8.106 3.624 8.106 8.107 0 4.476-3.627 8.102-8.106 8.102zm204.977-60.302-4.281 1.673s6.517 11.346 2.052 23.82c0 0-8.934-5.025-8.009-18.795h-6.13s-5.502 18.513-14.154 27.169l2.793 5.216s5.581-6.705 20.475-3.352c0 0-20.663 27.086-48.576 8.933-22.896-14.887-.372-40.571 4.649-52.481 5.025-11.91 1.271-27.249 1.271-27.249s-20.623 3.981-18.018 26.32c2.608 22.329-2.414 41.684-28.654 43.545-26.248 1.864-37.414-17.68-37.414-29.218 0 0 8.655-2.236 17.495 13.211l4.84-2.605s-8.008-15.627 1.304-34.423l-5.028-3.915s-5.773 13.405-19.536 15.074c0 0-.192-12.091 11.719-18.795l-3.721-6.329s-4.57 2.796-15.035 2.796c-10.462 0-15.035-2.796-15.035-2.796l-3.725 6.329c11.911 6.704 11.726 18.795 11.726 18.795-13.77-1.669-19.543-15.074-19.543-15.074l-5.025 3.915c9.309 18.796 1.308 34.423 1.308 34.423l4.841 2.605c8.839-15.447 17.487-13.211 17.487-13.211 0 11.538-11.162 31.082-37.406 29.218-26.241-1.861-31.262-21.216-28.662-43.545 2.612-22.339-16.974-26.32-16.974-26.32s-4.798 15.339.227 27.249c5.021 11.91 27.545 37.594 4.649 52.481-27.913 18.153-48.572-8.933-48.572-8.933 14.886-3.353 20.475 3.352 20.475 3.352l2.789-5.216c-8.659-8.656-14.147-27.169-14.147-27.169h-6.137c.928 13.77-8.002 18.795-8.002 18.795-4.468-12.474 2.045-23.82 2.045-23.82l-4.274-1.673-16.303 13.167 47.529 77.596c59.14-28.9 110.729-26.566 110.729-26.566s51.585-2.334 110.732 26.566l47.518-77.596zm-193.157 29.889c9.204-5.491.173-13.279.173-13.279.593 8.233-7.514 7.951-11.957 2.048-4.447-5.906-5.426-20.341 5.404-20.786 10.83-.451 2.894 11.444 2.894 11.444s11.007-1.708 12.022-13.181c1.019-11.473-7.648-15.545-11.163-14.837-3.507.698-22.104 4.393-16.649 28.672 5.458 24.272 19.276 19.919 19.276 19.919zm105.88-20.573s-7.929-11.895 2.901-11.444c10.83.445 9.84 14.88 5.404 20.786-4.447 5.903-12.56 6.185-11.96-2.048 0 0-9.039 7.788.177 13.279 0 0 13.813 4.353 19.275-19.919 5.455-24.279-13.149-27.974-16.656-28.672-3.508-.708-12.178 3.364-11.163 14.837s12.022 13.181 12.022 13.181zm-150.552 12.543s-12.903-6.152-3.363-11.318c9.523-5.162 16.079 7.749 15.281 15.093-.791 7.344-7.619 11.748-11.318 4.367 0 0-3.775 11.318 6.95 11.318 0 0 14.1-3.338 6.351-26.988-7.741-23.644-25.612-17.286-28.983-16.094-3.381 1.192-8.735 9.132-1.99 18.463 6.752 9.331 17.072 5.159 17.072 5.159z" fill="#ffcb03"/><g fill="#fff"><path d="m655.669 588.52s-8.818-20.883-8.818-22.075.69-2.074 1.661-2.294c.983-.202.762-1.524-.231-1.806-1.008-.289-8.157 2.189-9.681 2.478-1.525.289 4.862 2.474 5.534 2.474.661 0 4.62 12.738 4.62 12.738l-25.695-8.728-5.202 2.948c0 1.152 2.962 1.199 5.3 2.012 2.333.809 11.202 16.307 11.487 17.737.289 1.434-.285 2.478-1.243 2.858-.953.383.289 2.098.289 2.098s7.677-4.717 7.677-5.155c0-.422-1.763-.422-2.915-.422-1.142 0-8.768-14.02-8.768-14.02s13.254 4.581 15.732 5.39c2.479.813 10.253 3.767 10.253 3.767zm-28.373 7.059-1.665.571s-.282 0-.282 2.857c0 2.858-3.717 5.715-5.722 6.81-2.001 1.102-7.597-8.742-7.597-8.742s2.778-2.789 4.256-3.41c1.488-.622 2.673.48 3.442 1.242.755.77 1.424-.52 1.424-.52s-4.53-7.727-5.101-7.727-.43 1.095-.239 2.764c.188 1.672-5.722 5.104-5.722 5.104s-3.572-4.906-4.663-6.914c-1.102-1.998 3.471-4.433 5.621-5.195 2.145-.762 4.382.91 5.194 1.236.81.339 1.142-.326 1.142-.326s-4.57-5.671-5.198-5.671c-.615 0-16.249 11.726-16.249 11.726-.192 2.287 1.763.993 3.666.993 1.908 0 12.301 16.151 13.063 17.676.762 1.532 1.091 2.391-.043 3.529-1.149 1.149.231 1.911.231 1.911s14.544-10.194 15.544-10.667c1.001-.481.481-1.955.289-2.865-.191-.903-1.391-4.382-1.391-4.382zm-21.306 19.818c-2.193.249-11.961-14.244-13.442-17.051-1.481-2.817.474-4.06.474-4.06l-1.283-2.045-9.482 7.149c2.283 3.237.78.069 3.717.474 2.933.408 12.488 15.006 13.731 17.249 1.239 2.236.209 3.695-.672 4.588-.882.874.43 2.135.43 2.135s.805-.802 2.196-2.193c1.383-1.384 8.316-5.744 8.316-5.744l-1.077-1.073s-.715.333-2.908.571zm-28.834 18.29c-2.872 0-12.095-20.107-12.095-20.107 8.616-7.416 20.862-1.665 21.624 8.457.755 10.133-6.661 11.65-9.529 11.65zm-20.873-18.453.686 2.5 2.193-1.293s11.332 13.893 12.857 21.331c.238 1.193-1.821 2.421-1.821 2.421l1.741 1.741s16.863-9.15 18.225-13.229c1.362-4.085 2.42-11.953-3.027-17.397-5.448-5.448-13.305-7.854-30.854 3.926z"/><path d="m451.967 607.934c-1.03 1.022-.055 2.2 1.08 3.338 1.13 1.134-4.1 9.269-4.1 9.269l-12.727-8.514s3.88-5.936 5.285-7.33c1.402-1.398 3.555 0 3.555 0l.762-1.723-11.007-7.341c-.748.755 0 2.056 1.185 3.241 1.192 1.185-7.005 14.117-9.808 17.892-2.807 3.775-4.967 2.272-6.474 2.272-1.502 0 0 1.503 0 1.503s8.634 5.935 9.172 6.47c.535.538 1.72 0 1.72 0s-1.615-2.8-1.615-3.659c0-.864 4.53-9.06 5.502-9.06.968 0 12.73 8.409 12.73 9.164s-2.272 4.96-4.002 6.68c-1.72 1.73-1.608 1.625-2.905 1.625-1.3 0-3.128 1.402-.87 2.052 2.272.643 9.06 5.173 9.06 5.173.975-.975-1.283-3.24-1.283-3.24 0-2.695 7.218-15.53 9.92-18.225 2.688-2.695 3.663-1.127 4.797-1.127 1.127 0 1.452-1.456 1.452-1.456zm-54.032-15.751c2.479-15.414 21.032-12.932 26.317 3.132l2.048-3.666s-7.333-13.908-22.754-12.3c-15.426 1.625-17.907 23.404 8.622 31.59l3.028-3.984s-19.742.646-17.261-14.772zm-18.979-23.191c1.455 1.463-2.157 16.617-3.562 19.528-1.405 2.908-4.523 3.02-5.173 3.02-.647 0-.535 2.161-.535 2.161 4.418 0 11.965 3.338 13.153 3.338 1.185 0 .697-1.453.697-1.453s-1.022.484-2.64-2.973c-1.825-3.894 3.89-18.654 4.847-20.706.976-2.056 5.188-.968 5.188-.968v-2.045l-15.212-2.59c0 2.59 1.777 1.235 3.237 2.688z"/><path d="m745.929 778.065c-1.593-.607-3.02-1.279-4.288-1.998-1.264-.733-2.345-1.593-3.233-2.604-.889-1.008-1.579-2.215-2.074-3.62-.487-1.401-.733-3.096-.733-5.057 0-2.392.408-4.501 1.228-6.329.817-1.828 1.976-3.36 3.479-4.599 1.503-1.242 3.302-2.182 5.411-2.817 2.11-.629 4.473-.943 7.095-.943 2.395 0 4.631.209 6.712.625 2.088.426 4.281 1.036 6.575 1.828-.282 2.723-1.03 5.389-2.251 8.015-.704-.281-1.416-.563-2.146-.845-.718-.285-1.495-.516-2.312-.701-.827-.184-1.752-.339-2.781-.458-1.03-.12-2.2-.177-3.511-.177-.799 0-1.612.072-2.428.213-.82.141-1.561.401-2.211.776-.654.372-1.199.925-1.615 1.651-.422.726-.635 1.673-.635 2.843 0 .94.162 1.723.487 2.356.333.628.777 1.174 1.341 1.618.563.444 1.192.816 1.9 1.12.697.303 1.401.599 2.102.881l4.219 1.619c1.785.704 3.393 1.43 4.852 2.178 1.449.748 2.684 1.672 3.685 2.774 1.008 1.098 1.799 2.435 2.355 4.006.564 1.576.849 3.508.849 5.802 0 2.384-.437 4.563-1.301 6.531-.874 1.969-2.124 3.656-3.767 5.065-1.637 1.405-3.66 2.507-6.073 3.298-2.413.795-5.195 1.199-8.334 1.199-1.539 0-2.929-.05-4.14-.14-1.221-.094-2.387-.25-3.478-.459-1.102-.213-2.197-.481-3.27-.806-1.08-.332-2.207-.726-3.377-1.199.141-1.355.401-2.774.776-4.248.372-1.481.817-2.963 1.333-4.465 1.969.794 3.822 1.398 5.553 1.791 1.734.401 3.583.6 5.552.6 2.948 0 5.271-.549 6.958-1.651s2.532-2.781 2.532-5.025c0-1.127-.199-2.066-.6-2.814-.394-.748-.917-1.383-1.546-1.896-.636-.517-1.347-.947-2.146-1.301-.794-.35-1.614-.69-2.453-1.015zm-354.568 13.85c.607 1.312 1.116 2.659 1.51 4.035.394 1.384.69 2.778.874 4.184-2.435.895-4.62 1.473-6.567 1.755-1.94.286-4.036.426-6.29.426-3.984 0-7.477-.643-10.469-1.936-3.005-1.282-5.516-3.088-7.564-5.411-2.034-2.319-3.569-5.072-4.602-8.255-1.03-3.189-1.543-6.654-1.543-10.407 0-3.746.535-7.225 1.615-10.433 1.08-3.211 2.637-5.986 4.671-8.327 2.048-2.34 4.544-4.168 7.528-5.483 2.973-1.311 6.358-1.965 10.155-1.965 2.25 0 4.324.141 6.224.422 1.889.275 3.941.86 6.145 1.756-.094 1.405-.376 2.774-.849 4.107-.466 1.341-.979 2.688-1.543 4.043-1.64-.564-3.092-.961-4.353-1.192-1.264-.235-2.767-.355-4.504-.355-4.494 0-7.951 1.467-10.364 4.397-2.414 2.93-3.62 7.268-3.62 13.03 0 11.437 4.848 17.152 14.551 17.152 1.734 0 3.251-.119 4.562-.351 1.315-.234 2.789-.635 4.433-1.192zm-65.577 10.4c-3.796 0-7.077-.657-9.836-1.968-2.764-1.315-5.036-3.129-6.821-5.448-1.777-2.323-3.099-5.061-3.973-8.225-.86-3.161-1.297-6.615-1.297-10.368 0-3.746.437-7.225 1.297-10.433.874-3.211 2.196-5.986 3.973-8.327 1.785-2.34 4.057-4.168 6.821-5.483 2.759-1.311 6.04-1.965 9.836-1.965 3.797 0 7.077.654 9.844 1.965 2.764 1.315 5.029 3.143 6.813 5.483 1.788 2.341 3.107 5.116 3.974 8.327.867 3.208 1.297 6.687 1.297 10.433 0 3.753-.43 7.207-1.297 10.368-.867 3.164-2.186 5.902-3.974 8.225-1.784 2.319-4.049 4.133-6.813 5.448-2.767 1.311-6.047 1.968-9.844 1.968zm-69.785-51.379c1.734-.275 3.443-.416 5.13-.416 1.683 0 3.421.141 5.198.416v19.818h16.942v-19.818c1.727-.275 3.443-.416 5.13-.416 1.683 0 3.414.141 5.198.416v50.531c-1.784.281-3.493.422-5.129.422-1.734 0-3.472-.141-5.199-.422v-21.859h-16.942v21.859c-1.777.281-3.493.422-5.13.422-1.734 0-3.464-.141-5.198-.422zm158.904 25.088 13.709-25.088c1.073-.184 2.07-.304 2.988-.354.91-.04 1.741-.062 2.496-.062.791 0 1.68.04 2.666.141.99.091 2.019.184 3.092.275l-13.843 24.391 15.035 26.14c-1.073.101-2.117.191-3.124.281-1.005.101-1.908.141-2.703.141-.747 0-1.582-.018-2.499-.068-.911-.044-1.933-.163-3.056-.354zm-11.74-25.161c.899-.14 1.759-.231 2.604-.281.842-.04 1.709-.062 2.605-.062.791 0 1.607.022 2.456.062.846.05 1.705.141 2.601.281v50.676c-.896.141-1.755.238-2.601.282-.849.05-1.687.068-2.528.068-.846 0-1.691-.018-2.533-.068-.845-.044-1.705-.141-2.604-.282zm95.867 32.541-15.743-32.468c1.968-.275 3.937-.416 5.906-.416 1.777 0 3.562.141 5.339.416l9.978 22.917 9.844-22.917c1.726-.275 3.511-.416 5.339-.416 1.687 0 3.493.141 5.411.416l-15.739 32.468v18.135c-.94.141-1.828.238-2.673.282-.842.05-1.687.068-2.533.068-.798 0-1.633-.018-2.492-.068-.867-.044-1.749-.141-2.637-.282zm127.493-32.468c.979-.141 1.919-.246 2.807-.318.896-.065 1.875-.098 2.955-.098.939 0 1.85.033 2.746.098.881.072 1.871.177 2.947.318l15.812 50.531c-1.918.281-3.793.422-5.621.422-1.777 0-3.515-.141-5.202-.422l-2.807-10.119h-16.729l-2.886 10.119c-1.687.281-3.295.422-4.848.422-1.727 0-3.443-.141-5.126-.422zm-80.618 0c1.694-.275 3.605-.416 5.772-.416.838 0 1.694.022 2.561.062.867.05 1.72.17 2.569.354l7.239 38.021 8.713-38.021c.932-.141 1.799-.246 2.594-.318.798-.065 1.619-.098 2.464-.098 1.405 0 2.93.141 4.566.416l9.067 39.01 7.236-39.01c1.456-.275 2.951-.416 4.505-.416.935 0 1.846.04 2.734.141.896.091 1.759.184 2.605.275l-12.163 50.531c-1.68.281-3.436.422-5.271.422-1.777 0-3.724-.141-5.827-.422l-8.088-33.661-8.713 33.661c-1.12.101-2.124.191-2.984.281-.867.101-1.821.141-2.85.141-1.452 0-3.02-.141-4.707-.422zm115.33 0c1.734-.275 3.4-.416 4.996-.416 1.637 0 3.349.141 5.13.416v41.676h17.502c.141.799.235 1.561.278 2.287.047.726.069 1.416.069 2.074 0 .747-.022 1.488-.069 2.214-.043.73-.137 1.488-.278 2.28h-27.628zm-212.808 0h28.679c.274 1.405.415 2.836.415 4.288 0 1.546-.141 3.02-.415 4.432h-18.413v10.957h14.609c.292 1.502.433 2.958.433 4.36 0 1.503-.141 2.977-.433 4.432h-14.609v13.348h18.9c.282 1.406.423 2.836.423 4.292 0 1.542-.141 3.02-.423 4.422h-29.166zm249.222 0h28.675c.282 1.405.423 2.836.423 4.288 0 1.546-.141 3.02-.423 4.432h-18.416v10.957h14.62c.281 1.502.422 2.958.422 4.36 0 1.503-.141 2.977-.422 4.432h-14.62v13.348h18.9c.289 1.406.43 2.836.43 4.292 0 1.542-.141 3.02-.43 4.422h-29.159zm-371.865 42.807c7.268 0 10.895-5.816 10.895-17.437 0-5.805-.874-10.165-2.633-13.074-1.756-2.897-4.487-4.353-8.19-4.353-7.354 0-11.036 5.809-11.036 17.427 0 11.621 3.656 17.437 10.964 17.437zm311.985-10.895-5.834-21.23-6.12 21.23z"/><path d="m683.383 828.22c1.12-.141 2.341-.209 3.656-.209 1.261 0 2.431.068 3.511.209v28.676c0 2.908.184 5.39.564 7.449.368 2.062.982 3.742 1.82 5.025.849 1.293 1.955 2.236 3.338 2.85 1.384.607 3.085.91 5.101.91 2.012 0 3.699-.303 5.061-.91 1.355-.614 2.46-1.557 3.302-2.85.838-1.283 1.452-2.963 1.828-5.025.372-2.059.563-4.541.563-7.449v-28.676c1.171-.141 2.363-.209 3.584-.209 1.311 0 2.525.068 3.656.209v29.94c0 3.378-.318 6.398-.954 9.064-.629 2.677-1.665 4.927-3.089 6.751-1.427 1.828-3.291 3.219-5.588 4.18-2.294.957-5.083 1.445-8.363 1.445s-6.065-.488-8.366-1.445c-2.294-.961-4.158-2.352-5.589-4.18-1.427-1.824-2.456-4.074-3.088-6.751-.636-2.666-.947-5.686-.947-9.064zm-243.529 43.154c1.03 2.016 1.687 3.956 1.969 5.835-1.969.845-3.981 1.452-6.047 1.827-2.059.373-4.292.564-6.676.564-3.656 0-6.943-.6-9.876-1.792-2.93-1.199-5.397-2.908-7.41-5.129-2.019-2.229-3.561-4.931-4.642-8.121-1.08-3.19-1.614-6.774-1.614-10.751 0-4.031.534-7.676 1.614-10.931 1.081-3.258 2.623-6.033 4.642-8.334 2.013-2.29 4.465-4.057 7.373-5.303 2.908-1.243 6.167-1.864 9.772-1.864 2.673 0 4.967.191 6.893.563 1.914.376 3.626.821 5.129 1.333-.097 1.081-.296 2.078-.599 2.995-.304.911-.669 1.882-1.095 2.912-.697-.231-1.38-.445-2.03-.636-.665-.181-1.362-.35-2.11-.484-.755-.141-1.586-.249-2.496-.318-.91-.072-1.954-.105-3.128-.105-5.108 0-9.078 1.734-11.911 5.199-2.843 3.471-4.259 8.46-4.259 14.973 0 3.327.401 6.206 1.2 8.641.798 2.435 1.918 4.454 3.37 6.047 1.456 1.586 3.204 2.786 5.238 3.584 2.038.798 4.324 1.192 6.857 1.192 1.968 0 3.746-.163 5.335-.495 1.593-.321 3.096-.787 4.501-1.402zm84.9 0c1.029 2.016 1.69 3.956 1.968 5.835-1.968.845-3.98 1.452-6.047 1.827-2.055.373-4.284.564-6.676.564-3.655 0-6.943-.6-9.869-1.792-2.929-1.199-5.397-2.908-7.416-5.129-2.019-2.229-3.562-4.931-4.635-8.121-1.08-3.19-1.622-6.774-1.622-10.751 0-4.031.542-7.676 1.622-10.931 1.073-3.258 2.616-6.033 4.635-8.334 2.019-2.29 4.472-4.057 7.38-5.303 2.901-1.243 6.159-1.864 9.765-1.864 2.673 0 4.967.191 6.892.563 1.922.376 3.627.821 5.13 1.333-.098 1.081-.296 2.078-.6 2.995-.303.911-.668 1.882-1.087 2.912-.705-.231-1.38-.445-2.038-.636-.657-.181-1.361-.35-2.109-.484-.748-.141-1.583-.249-2.493-.318-.914-.072-1.958-.105-3.132-.105-5.108 0-9.078 1.734-11.91 5.199-2.836 3.471-4.252 8.46-4.252 14.973 0 3.327.394 6.206 1.199 8.641.788 2.435 1.911 4.454 3.371 6.047 1.448 1.586 3.197 2.786 5.238 3.584 2.037.798 4.317 1.192 6.849 1.192 1.969 0 3.746-.163 5.343-.495 1.586-.321 3.088-.787 4.494-1.402zm-150.679 8.226c-3.656 0-6.816-.65-9.49-1.933-2.673-1.289-4.884-3.096-6.643-5.411-1.756-2.323-3.067-5.072-3.941-8.262-.863-3.182-1.301-6.676-1.301-10.472 0-3.793.438-7.287 1.301-10.469.874-3.19 2.185-5.943 3.941-8.262 1.759-2.315 3.97-4.136 6.643-5.447 2.674-1.304 5.834-1.969 9.49-1.969 3.649 0 6.813.665 9.483 1.969 2.673 1.311 4.888 3.132 6.647 5.447 1.755 2.319 3.052 5.072 3.894 8.262.845 3.182 1.268 6.676 1.268 10.469 0 3.796-.423 7.29-1.268 10.472-.842 3.19-2.139 5.939-3.894 8.262-1.759 2.315-3.974 4.122-6.647 5.411-2.67 1.283-5.834 1.933-9.483 1.933zm-69.442-51.38c.564-.09 1.149-.159 1.756-.209.607-.044 1.214-.073 1.828-.073.607 0 1.214.029 1.828.073.607.05 1.192.119 1.755.209v20.801h21.505v-20.801c.517-.09 1.08-.159 1.687-.209.607-.044 1.221-.073 1.828-.073s1.236.029 1.861.073c.635.05 1.235.119 1.795.209v50.535c-.517.09-1.08.162-1.687.209-.607.044-1.243.072-1.9.072-.607 0-1.228-.028-1.861-.072-.628-.047-1.206-.119-1.723-.209v-23.405h-21.505v23.405c-.563.09-1.134.162-1.723.209-.585.044-1.206.072-1.86.072-.614 0-1.236-.028-1.864-.072-.636-.047-1.207-.119-1.72-.209zm148.154 0c.556-.09 1.141-.159 1.755-.209.607-.044 1.221-.073 1.828-.073s1.221.029 1.828.073c.607.05 1.192.119 1.756.209v50.535c-.564.09-1.135.162-1.72.209-.585.044-1.206.072-1.864.072-.607 0-1.228-.028-1.864-.072-.625-.047-1.206-.119-1.719-.209zm96.004 32.05-16.025-32.05c.607-.09 1.272-.159 1.969-.209.708-.044 1.405-.073 2.11-.073.606 0 1.278.029 2.004.073.727.05 1.37.119 1.926.209l11.813 25.092 11.668-25.092c.607-.09 1.214-.159 1.828-.209.607-.044 1.235-.073 1.896-.073.658 0 1.308.029 1.969.073.65.05 1.286.119 1.893.209l-15.812 32.05v18.485c-.607.09-1.221.162-1.828.209-.607.044-1.213.072-1.828.072-.606 0-1.228-.028-1.86-.072-.636-.047-1.207-.119-1.723-.209zm33.668-32.05c.567-.09 1.199-.159 1.925-.209.737-.044 1.427-.073 2.077-.073.654 0 1.377.029 2.143.073.776.05 1.419.119 1.936.209l13.073 31.624 13.135-31.624c.473-.09 1.059-.159 1.767-.209.697-.044 1.376-.073 2.037-.073.607 0 1.286.029 2.034.073.755.05 1.383.119 1.896.209l2.392 50.535c-.564.09-1.135.162-1.72.209-.585.044-1.185.072-1.792.072-.606 0-1.206-.028-1.795-.072-.585-.047-1.134-.119-1.651-.209l-1.615-39.286-12.369 28.813c-.935.141-1.896.213-2.882.213-.893 0-1.781-.072-2.677-.213l-11.943-29.026-1.618 39.499c-.513.09-1.051.162-1.615.209-.556.044-1.102.072-1.615.072-.614 0-1.199-.028-1.755-.072-.56-.047-1.102-.119-1.619-.209zm57.842-.068c1.03-.091 1.969-.185 2.807-.282.842-.094 1.673-.177 2.493-.249.816-.069 1.679-.127 2.568-.167.889-.05 1.868-.079 2.955-.079 2.384 0 4.75.242 7.091.704 2.341.474 4.433 1.294 6.257 2.464 1.828 1.17 3.316 2.753 4.469 4.743 1.148 1.987 1.719 4.509 1.719 7.554 0 1.828-.311 3.493-.917 4.989-.607 1.502-1.38 2.835-2.312 4.009-.94 1.171-2.005 2.186-3.197 3.053-1.2.87-2.356 1.582-3.486 2.146l-.838.422 14.68 21.296c-1.26.141-2.694.209-4.28.209-1.265 0-2.536-.068-3.797-.209l-16.166-23.405v-.282l.568-.141c1.26-.325 2.593-.769 4.006-1.333 1.405-.564 2.702-1.297 3.894-2.214 1.199-.911 2.193-2.013 2.991-3.302.798-1.286 1.192-2.847 1.192-4.671 0-3.381-.993-5.885-2.984-7.521-1.997-1.647-4.678-2.464-8.048-2.464-.799 0-1.532.022-2.211.069-.683.05-1.445.115-2.294.213v45.051c-.506.047-1.084.09-1.712.141-.636.047-1.236.068-1.799.068-.56 0-1.171-.014-1.821-.032-.665-.022-1.264-.087-1.828-.177zm-266.226 45.26c2.341 0 4.368-.459 6.073-1.369 1.716-.918 3.135-2.236 4.255-3.97 1.124-1.738 1.969-3.819 2.533-6.261.559-2.434.841-5.198.841-8.29 0-3.046-.282-5.798-.841-8.255-.564-2.46-1.409-4.544-2.533-6.256-1.12-1.709-2.539-3.02-4.255-3.938-1.705-.91-3.732-1.369-6.073-1.369-2.351 0-4.367.459-6.083 1.369-1.712.918-3.132 2.229-4.256 3.938-1.119 1.712-1.961 3.796-2.525 6.256-.563 2.457-.849 5.209-.849 8.255 0 3.092.286 5.856.849 8.29.564 2.442 1.406 4.523 2.525 6.261 1.124 1.734 2.544 3.052 4.256 3.97 1.716.91 3.732 1.369 6.083 1.369z"/></g></g></svg>