<svg height="64" viewBox="0 0 64 64" width="64" xmlns="http://www.w3.org/2000/svg"><path d="m31 2c-15.992188 0-29 13.011719-29 29s13.007812 29 29 29 29-13.011719 29-29-13.007812-29-29-29zm0 2c14.886719 0 27 12.113281 27 27s-12.113281 27-27 27-27-12.113281-27-27 12.113281-27 27-27zm.265625 4c-5.980469-.074219-11.632813 2.121094-16.015625 6.234375-4.605469 4.332031-7.25 10.445313-7.25 16.765625 0 4.433594 1.265625 8.738281 3.65625 12.449219.5.773437 1.304688 1.273437 2.207031 1.378906.902344.097656 1.808594-.210937 2.472657-.859375 3.941406-3.847656 9.152343-5.96875 14.664062-5.96875s10.71875 2.121094 14.664062 5.96875c.582032.566406 1.34375.875 2.132813.875.113281 0 .230469-.003906.34375-.015625.898437-.105469 1.703125-.605469 2.199219-1.375 2.574218-3.988281 3.835937-8.625 3.640625-13.40625-.261719-6.511719-3.351563-12.652344-8.464844-16.84375-.429687-.351563-1.058594-.289063-1.40625.140625-.351563.425781-.292969 1.054688.136719 1.40625 4.675781 3.828125 7.496094 9.4375 7.738281 15.375.175781 4.367188-.976563 8.601562-3.328125 12.246094-.171875.265625-.433594.433594-.742188.46875-.304687.035156-.621093-.078125-.851562-.304688-3.101562-3.023437-6.921875-5.054687-11.0625-5.972656v-13.5625c0-.472656-.332031-.878906-.792969-.980469-.457031-.09375-.929687.144531-1.117187.574219l-6.058594 13.621094c-4.917969.632812-9.488281 2.804687-13.09375 6.320312-.234375.230469-.535156.335938-.847656.304688-.3125-.035156-.574219-.203125-.75-.476563-2.183594-3.382812-3.339844-7.3125-3.339844-11.363281 0-5.855469 2.351562-11.292969 6.621094-15.308594 4.265625-4.007812 9.84375-6.015625 15.722656-5.648437.53125.03125 1.054688.085937 1.578125.160156.546875.078125 1.050781-.304687 1.128906-.851563.078125-.550781-.304687-1.054687-.851562-1.132812-.570313-.078125-1.152344-.140625-1.730469-.171875-.402344-.027344-.804688-.042969-1.203125-.046875zm7.394531 1.386719c-.390625.015625-.75.261719-.894531.648437-.195313.519532.066406 1.09375.585937 1.289063.710938.261719 1.414063.570312 2.097657.914062.144531.074219.300781.109375.453125.109375.363281 0 .714844-.199218.894531-.550781.246094-.488281.046875-1.09375-.445313-1.34375-.75-.375-1.523437-.714844-2.300781-1.007813-.128906-.046874-.261719-.0625-.390625-.058593zm-7.660156 4.613281c-.550781 0-1 .445312-1 1v2c0 .554688.449219 1 1 1s1-.445312 1-1v-2c0-.554688-.449219-1-1-1zm-5.976562 1.164062c-.128907-.003906-.261719.023438-.390626.074219-.511718.207031-.761718.789063-.554687 1.300781l.75 1.851563c.15625.390625.53125.628906.925781.628906.125 0 .253906-.023437.375-.074219.515625-.207031.761719-.789062.554688-1.300781l-.75-1.851562c-.15625-.386719-.519532-.621094-.910156-.628907zm11.957031 0c-.390625.007813-.757813.242188-.914063.628907l-.75 1.851562c-.207031.511719.039063 1.09375.554688 1.300781.121094.050782.25.074219.375.074219.394531 0 .769531-.238281.925781-.628906l.75-1.851563c.207031-.511718-.042969-1.09375-.554687-1.300781-.128907-.050781-.257813-.078125-.386719-.074219zm5.117187 3.324219c-.257812.007813-.511718.109375-.703125.308594l-1.390625 1.4375c-.382812.398437-.371094 1.03125.027344 1.414063.195312.1875.441406.28125.691406.28125.265625 0 .523438-.105469.71875-.304688l1.390625-1.441406c.386719-.398438.375-1.03125-.023437-1.414063-.199219-.191406-.453125-.285156-.710938-.28125zm-22.195312.003907c-.257813-.003907-.515625.085937-.714844.277343-.394531.386719-.40625 1.019531-.023438 1.417969l1.390626 1.4375c.195312.203125.457031.304688.722656.304688.25 0 .496094-.09375.691406-.277344.398438-.386719.410156-1.019532.027344-1.417969l-1.390625-1.4375c-.191407-.199219-.445313-.300781-.703125-.304687zm-3.5 5c-.390625-.007813-.761719.214843-.933594.597656-.222656.503906.003906 1.09375.507812 1.316406l1.828126.8125c.132812.058594.269531.089844.40625.089844.382812 0 .746093-.222656.914062-.59375.222656-.507813-.003906-1.097656-.507812-1.324219l-1.828126-.8125c-.125-.054687-.257812-.082031-.386718-.085937zm29.195312 0c-.128906.003906-.261718.027343-.386718.085937l-1.828126.8125c-.503906.226563-.730468.816406-.507812 1.320313.167969.371093.53125.59375.914062.59375.136719 0 .273438-.027344.40625-.085938l1.828126-.8125c.503906-.226562.730468-.816406.507812-1.320312-.171875-.378907-.542969-.601563-.933594-.59375zm-11.597656 4.222656v8.503906c-.988281-.128906-1.988281-.21875-3-.21875-.234375 0-.464844.027344-.699219.03125zm-19 2.285156c-.550781 0-1 .445312-1 1s.449219 1 1 1h2c.550781 0 1-.445312 1-1s-.449219-1-1-1zm30 0c-.550781 0-1 .445312-1 1s.449219 1 1 1h2c.550781 0 1-.445312 1-1s-.449219-1-1-1zm-26.964844 5.246094c-.128906-.003906-.261718.019531-.390625.070312l-1.851562.75c-.515625.207032-.761719.789063-.554688 1.304688.15625.386718.53125.625.929688.625.125 0 .25-.023438.375-.074219l1.851562-.75c.511719-.207031.757813-.789063.554688-1.300781-.15625-.386719-.523438-.621094-.914063-.625zm25.929688 0c-.390625.003906-.757813.238281-.914063.625-.203125.511718.042969 1.09375.554688 1.300781l1.851562.75c.125.050781.25.074219.375.074219.398438 0 .773438-.238282.929688-.625.207031-.515625-.039063-1.097656-.550781-1.304688l-1.855469-.75c-.128907-.050781-.261719-.074218-.390625-.070312zm-21.046875 8.753906c-.550781 0-1 .445312-1 1s.449219 1 1 1h16.25c.550781 0 1-.445312 1-1s-.449219-1-1-1zm2 4c-.550781 0-1 .445312-1 1s.449219 1 1 1h6.25c.550781 0 1-.445312 1-1s-.449219-1-1-1zm10 0c-.550781 0-1 .445312-1 1s.449219 1 1 1h2.25c.550781 0 1-.445312 1-1s-.449219-1-1-1zm0 0" fill="#003e6b"/></svg>