<?xml version="1.0" encoding="UTF-8"?>
<svg xmlns="http://www.w3.org/2000/svg" xmlns:xlink="http://www.w3.org/1999/xlink" viewBox="0 0 64 64" width="64px" height="64px">
<g id="surface17020081">
<path style=" stroke:none;fill-rule:nonzero;fill:rgb(1.568628%,30.588236%,32.941177%);fill-opacity:1;" d="M 45.949219 2.007812 C 42.878906 2.007812 39.71875 2.988281 37.160156 4.949219 C 36.019531 4.339844 34.558594 4.511719 33.597656 5.46875 C 33.039062 6.039062 32.730469 6.789062 32.730469 7.601562 C 32.730469 8.25 32.929688 8.859375 33.300781 9.367188 C 32.199219 11.257812 31.378906 13.429688 30.980469 15.652344 C 30.601562 15.761719 30.261719 15.980469 30.011719 16.28125 L 10.671875 39.488281 C 10.09375 40.179688 9.886719 41.050781 10.015625 41.875 L 7.65625 45.292969 C 6.703125 46.488281 6.796875 48.203125 7.878906 49.285156 L 8.679688 50.09375 L 8.382812 50.390625 C 6.050781 52.722656 5.386719 56.066406 6.65625 59.117188 C 7.917969 62.15625 10.746094 64.046875 14.042969 64.046875 L 14.0625 64.046875 L 25.003906 64 C 25.558594 63.996094 26.003906 63.546875 26 62.996094 C 25.996094 62.445312 25.550781 62 25 62 L 24.996094 62 L 14.058594 62.046875 L 14.035156 62.046875 C 11.089844 62.046875 9.246094 60.136719 8.5 58.347656 C 7.757812 56.558594 7.707031 53.894531 9.796875 51.800781 L 10.09375 51.503906 L 11.003906 52.410156 C 11.59375 53.003906 12.371094 53.300781 13.140625 53.300781 C 13.785156 53.300781 14.425781 53.089844 14.941406 52.675781 L 18.417969 50.277344 C 18.570312 50.300781 18.726562 50.320312 18.878906 50.320312 C 19.550781 50.320312 20.242188 50.089844 20.800781 49.621094 L 44.011719 30.28125 C 44.308594 30.03125 44.519531 29.699219 44.640625 29.328125 C 46.851562 28.929688 49.03125 28.121094 50.9375 26.988281 C 51.460938 27.371094 52.078125 27.5625 52.699219 27.5625 C 53.460938 27.5625 54.230469 27.269531 54.820312 26.6875 C 55.378906 26.121094 55.699219 25.371094 55.699219 24.570312 C 55.699219 24.058594 55.578125 23.582031 55.339844 23.152344 C 57.058594 20.871094 58.109375 18.011719 58.269531 15.070312 C 58.46875 11.308594 57.25 7.902344 54.820312 5.46875 C 52.5 3.152344 49.269531 2.007812 45.949219 2.007812 Z M 46.363281 3.984375 C 49.011719 4.074219 51.550781 5.035156 53.402344 6.890625 C 55.429688 8.910156 56.449219 11.78125 56.269531 14.96875 C 56.140625 17.371094 55.332031 19.699219 53.988281 21.609375 L 38.679688 6.300781 C 40.960938 4.675781 43.714844 3.894531 46.363281 3.984375 Z M 35.730469 6.601562 C 35.980469 6.601562 36.238281 6.691406 36.429688 6.890625 L 37.140625 7.601562 L 52.6875 23.152344 L 53.402344 23.859375 C 53.589844 24.050781 53.699219 24.300781 53.699219 24.570312 C 53.699219 24.761719 53.640625 24.949219 53.53125 25.109375 L 53.53125 25.121094 C 53.488281 25.167969 53.449219 25.21875 53.402344 25.269531 C 53.332031 25.339844 53.25 25.390625 53.171875 25.429688 C 53.160156 25.441406 53.152344 25.449219 53.140625 25.449219 C 52.769531 25.640625 52.300781 25.578125 51.988281 25.269531 L 51.171875 24.449219 L 35.847656 9.132812 L 35.019531 8.300781 C 34.828125 8.109375 34.730469 7.859375 34.730469 7.601562 C 34.730469 7.460938 34.761719 7.339844 34.800781 7.21875 C 34.8125 7.199219 34.8125 7.199219 34.8125 7.1875 C 34.859375 7.078125 34.929688 6.980469 35.019531 6.890625 C 35.078125 6.832031 35.140625 6.78125 35.199219 6.75 C 35.359375 6.648438 35.550781 6.601562 35.730469 6.601562 Z M 34.75 10.871094 L 49.4375 25.550781 C 47.820312 26.429688 46 27.0625 44.179688 27.378906 C 44.167969 27.359375 44.160156 27.351562 44.140625 27.328125 L 32.960938 16.152344 L 32.929688 16.121094 C 33.25 14.277344 33.878906 12.46875 34.75 10.871094 Z M 31.550781 17.5625 L 32.679688 18.6875 L 41.609375 27.621094 L 42.730469 28.738281 L 41.679688 29.621094 L 19.519531 48.078125 C 19.121094 48.421875 18.539062 48.390625 18.171875 48.019531 L 12.269531 42.121094 C 11.898438 41.75 11.871094 41.167969 12.210938 40.769531 L 30.679688 18.597656 Z M 31.484375 20.734375 C 31.226562 20.738281 30.972656 20.835938 30.777344 21.03125 L 29.359375 22.441406 C 28.96875 22.835938 28.96875 23.464844 29.359375 23.859375 C 29.554688 24.050781 29.8125 24.152344 30.066406 24.152344 C 30.324219 24.152344 30.582031 24.050781 30.777344 23.859375 L 32.1875 22.441406 C 32.582031 22.050781 32.582031 21.421875 32.1875 21.03125 C 31.992188 20.832031 31.738281 20.734375 31.484375 20.734375 Z M 35.019531 24.273438 C 34.761719 24.273438 34.507812 24.371094 34.3125 24.566406 L 32.898438 25.980469 C 32.507812 26.371094 32.507812 27.003906 32.898438 27.394531 C 33.09375 27.589844 33.347656 27.6875 33.605469 27.6875 C 33.863281 27.6875 34.117188 27.589844 34.3125 27.394531 L 35.726562 25.980469 C 36.117188 25.589844 36.117188 24.957031 35.726562 24.566406 C 35.53125 24.371094 35.277344 24.273438 35.019531 24.273438 Z M 38.550781 27.808594 C 38.296875 27.808594 38.042969 27.90625 37.847656 28.101562 L 36.433594 29.515625 C 36.042969 29.90625 36.042969 30.539062 36.433594 30.929688 C 36.628906 31.125 36.882812 31.222656 37.140625 31.222656 C 37.398438 31.222656 37.652344 31.125 37.847656 30.929688 L 39.261719 29.515625 C 39.652344 29.125 39.652344 28.492188 39.261719 28.101562 C 39.066406 27.90625 38.808594 27.808594 38.550781 27.808594 Z M 28.65625 28.667969 C 27.875 28.664062 27.101562 28.949219 26.53125 29.515625 L 23.703125 32.34375 C 23.140625 32.910156 22.828125 33.664062 22.828125 34.46875 C 22.828125 35.269531 23.136719 36.023438 23.703125 36.589844 C 24.289062 37.171875 25.058594 37.464844 25.828125 37.464844 C 26.59375 37.464844 27.363281 37.171875 27.949219 36.589844 L 30.777344 33.761719 C 31.945312 32.589844 31.945312 30.6875 30.777344 29.515625 C 30.210938 28.949219 29.433594 28.667969 28.65625 28.667969 Z M 28.65625 30.636719 C 28.921875 30.636719 29.171875 30.742188 29.359375 30.929688 C 29.75 31.320312 29.75 31.953125 29.359375 32.34375 L 26.53125 35.171875 C 26.152344 35.550781 25.5 35.550781 25.121094 35.171875 C 24.929688 34.984375 24.828125 34.734375 24.828125 34.464844 C 24.828125 34.195312 24.929688 33.945312 25.121094 33.757812 L 27.949219 30.929688 C 28.136719 30.742188 28.386719 30.636719 28.65625 30.636719 Z M 11.113281 43.800781 L 16.050781 48.734375 L 16.496094 49.171875 L 13.75 51.074219 C 13.351562 51.390625 12.777344 51.359375 12.417969 51 L 9.292969 47.875 C 8.933594 47.511719 8.902344 46.9375 9.261719 46.484375 Z M 29 62 C 28.445312 62 28 62.449219 28 63 C 28 63.550781 28.445312 64 29 64 L 33 64 C 33.554688 64 34 63.550781 34 63 C 34 62.449219 33.554688 62 33 62 Z M 29 62 "/>
</g>
</svg>
