<svg height="64" viewBox="0 0 64 64" width="64" xmlns="http://www.w3.org/2000/svg"><path d="m32 7.984375c-5.941406 0-11.878906.332031-17.78125.984375l-3.1875.355469c-4.066406.453125-7.316406 3.597656-7.898438 7.65625-1.421874 9.964843-1.484374 20.074219-.179687 30.054687l.242187 1.886719c.539063 4.113281 3.792969 7.304687 7.914063 7.765625l3.109375.34375c5.902344.65625 11.839844.984375 17.78125.984375s11.882812-.328125 17.78125-.984375l3.109375-.34375c4.121094-.460938 7.375-3.652344 7.910156-7.765625l.246094-1.890625c1.304687-9.976562 1.242187-20.089844-.183594-30.050781-.578125-4.058594-3.828125-7.203125-7.894531-7.65625l-3.1875-.355469c-5.902344-.652344-11.839844-.984375-17.78125-.984375zm0 2c5.867188 0 11.734375.324219 17.558594.972656l3.1875.355469c3.164062.347656 5.6875 2.796875 6.140625 5.949219 1.394531 9.785156 1.457031 19.714843.175781 29.511719l-.246094 1.886718c-.417968 3.199219-2.945312 5.679688-6.148437 6.039063l-3.109375.34375c-11.652344 1.292969-23.464844 1.296875-35.117188 0l-3.109375-.34375c-3.203125-.359375-5.734375-2.839844-6.152343-6.039063l-.242188-1.882812c-1.28125-9.800782-1.21875-19.730469.179688-29.515625.449218-3.152344 2.972656-5.601563 6.136718-5.949219l3.1875-.355469c5.828125-.648437 11.691406-.972656 17.558594-.972656zm-23 4.015625c-.550781 0-1 .445312-1 1v2c0 .554688.449219 1 1 1s1-.445312 1-1v-2c0-.554688-.449219-1-1-1zm5 0c-.550781 0-1 .445312-1 1v2c0 .554688.449219 1 1 1s1-.445312 1-1v-2c0-.554688-.449219-1-1-1zm5 0c-.550781 0-1 .445312-1 1v2c0 .554688.449219 1 1 1s1-.445312 1-1v-2c0-.554688-.449219-1-1-1zm5 0c-.550781 0-1 .445312-1 1v2c0 .554688.449219 1 1 1s1-.445312 1-1v-2c0-.554688-.449219-1-1-1zm5 0c-.550781 0-1 .445312-1 1v2c0 .554688.449219 1 1 1s1-.445312 1-1v-2c0-.554688-.449219-1-1-1zm5 0c-.550781 0-1 .445312-1 1v2c0 .554688.449219 1 1 1s1-.445312 1-1v-2c0-.554688-.449219-1-1-1zm5 0c-.550781 0-1 .445312-1 1v2c0 .554688.449219 1 1 1s1-.445312 1-1v-2c0-.554688-.449219-1-1-1zm5 0c-.550781 0-1 .445312-1 1v2c0 .554688.449219 1 1 1s1-.445312 1-1v-2c0-.554688-.449219-1-1-1zm5 0c-.550781 0-1 .445312-1 1v2c0 .554688.449219 1 1 1s1-.445312 1-1v-2c0-.554688-.449219-1-1-1zm5 0c-.550781 0-1 .445312-1 1v2c0 .554688.449219 1 1 1s1-.445312 1-1v-2c0-.554688-.449219-1-1-1zm-29.015625 7.890625c-.171875.003906-.339844.050781-.492187.140625-.304688.179688-.492188.503906-.492188.859375v20.109375c0 .355469.1875.679688.492188.859375.15625.09375.332031.140625.507812.140625.167969 0 .332031-.042969.484375-.125l18.285156-10.019531c.320313-.179688.523438-.511719.523438-.875 0-.367188-.199219-.703125-.515625-.878907l-18.292969-10.085937c-.15625-.085937-.328125-.128906-.5-.125zm1.015625 2.691406 15.21875 8.390625-15.21875 8.339844zm-17 23.417969c-.550781 0-1 .445312-1 1v2c0 .554688.449219 1 1 1s1-.445312 1-1v-2c0-.554688-.449219-1-1-1zm5 0c-.550781 0-1 .445312-1 1v2c0 .554688.449219 1 1 1s1-.445312 1-1v-2c0-.554688-.449219-1-1-1zm5 0c-.550781 0-1 .445312-1 1v2c0 .554688.449219 1 1 1s1-.445312 1-1v-2c0-.554688-.449219-1-1-1zm5 0c-.550781 0-1 .445312-1 1v2c0 .554688.449219 1 1 1s1-.445312 1-1v-2c0-.554688-.449219-1-1-1zm5 0c-.550781 0-1 .445312-1 1v2c0 .554688.449219 1 1 1s1-.445312 1-1v-2c0-.554688-.449219-1-1-1zm5 0c-.550781 0-1 .445312-1 1v2c0 .554688.449219 1 1 1s1-.445312 1-1v-2c0-.554688-.449219-1-1-1zm5 0c-.550781 0-1 .445312-1 1v2c0 .554688.449219 1 1 1s1-.445312 1-1v-2c0-.554688-.449219-1-1-1zm5 0c-.550781 0-1 .445312-1 1v2c0 .554688.449219 1 1 1s1-.445312 1-1v-2c0-.554688-.449219-1-1-1zm5 0c-.550781 0-1 .445312-1 1v2c0 .554688.449219 1 1 1s1-.445312 1-1v-2c0-.554688-.449219-1-1-1zm5 0c-.550781 0-1 .445312-1 1v2c0 .554688.449219 1 1 1s1-.445312 1-1v-2c0-.554688-.449219-1-1-1zm0 0" fill="#044e54"/></svg>