<svg height="64" viewBox="0 0 64 64" width="64" xmlns="http://www.w3.org/2000/svg"><path d="m7 4c-1.652344 0-3 1.347656-3 3v46c0 3.859375 3.140625 7 7 7h44c3.859375 0 7-3.140625 7-7v-25c0-2.207031-1.792969-4-4-4h-8v-17c0-1.652344-1.347656-3-3-3zm0 2h40c.550781 0 1 .449219 1 1v46c0 1.996094.753906 3.75 2.007812 5h-39.007812c-2.757812 0-5-2.242188-5-5v-3h31c.554688 0 1-.445312 1-1s-.445312-1-1-1h-31v-41c0-.550781.449219-1 1-1zm6 6c-.554688 0-1 .445312-1 1s.445312 1 1 1h16c.554688 0 1-.445312 1-1s-.445312-1-1-1zm20 0c-.554688 0-1 .445312-1 1s.445312 1 1 1h6c.554688 0 1-.445312 1-1s-.445312-1-1-1zm-20 4c-.554688 0-1 .445312-1 1s.445312 1 1 1h10c.554688 0 1-.445312 1-1s-.445312-1-1-1zm14 0c-.554688 0-1 .445312-1 1s.445312 1 1 1h12c.554688 0 1-.445312 1-1s-.445312-1-1-1zm-14 8c-.554688 0-1 .445312-1 1s.445312 1 1 1h10c.554688 0 1-.445312 1-1s-.445312-1-1-1zm16 0c-.554688 0-1 .445312-1 1s.445312 1 1 1h10c.554688 0 1-.445312 1-1s-.445312-1-1-1zm21 2h4.558594c-.347656.589844-.558594 1.269531-.558594 2v17c0 .554688.445312 1 1 1s1-.445312 1-1v-17c0-1.101562.898438-2 2-2s2 .898438 2 2v25c0 2.757812-2.242188 5-5 5-2.898438 0-5-2.101562-5-5zm-37 2c-.554688 0-1 .445312-1 1s.445312 1 1 1h10c.554688 0 1-.445312 1-1s-.445312-1-1-1zm16 0c-.554688 0-1 .445312-1 1s.445312 1 1 1h10c.554688 0 1-.445312 1-1s-.445312-1-1-1zm-16 4c-.554688 0-1 .445312-1 1s.445312 1 1 1h10c.554688 0 1-.445312 1-1s-.445312-1-1-1zm16 0c-.554688 0-1 .445312-1 1s.445312 1 1 1h10c.554688 0 1-.445312 1-1s-.445312-1-1-1zm-16 4c-.554688 0-1 .445312-1 1s.445312 1 1 1h10c.554688 0 1-.445312 1-1s-.445312-1-1-1zm16 0c-.554688 0-1 .445312-1 1s.445312 1 1 1h10c.554688 0 1-.445312 1-1s-.445312-1-1-1zm-16 4c-.554688 0-1 .445312-1 1s.445312 1 1 1h10c.554688 0 1-.445312 1-1s-.445312-1-1-1zm28 8c-.554688 0-1 .445312-1 1s.445312 1 1 1h4c.554688 0 1-.445312 1-1s-.445312-1-1-1zm-31 4c-.554688 0-1 .445312-1 1v2c0 .554688.445312 1 1 1s1-.445312 1-1v-2c0-.554688-.445312-1-1-1zm5 0c-.554688 0-1 .445312-1 1v2c0 .554688.445312 1 1 1s1-.445312 1-1v-2c0-.554688-.445312-1-1-1zm5 0c-.554688 0-1 .445312-1 1v2c0 .554688.445312 1 1 1s1-.445312 1-1v-2c0-.554688-.445312-1-1-1zm5 0c-.554688 0-1 .445312-1 1v2c0 .554688.445312 1 1 1s1-.445312 1-1v-2c0-.554688-.445312-1-1-1zm5 0c-.554688 0-1 .445312-1 1v2c0 .554688.445312 1 1 1s1-.445312 1-1v-2c0-.554688-.445312-1-1-1zm5 0c-.554688 0-1 .445312-1 1v2c0 .554688.445312 1 1 1s1-.445312 1-1v-2c0-.554688-.445312-1-1-1zm5 0c-.554688 0-1 .445312-1 1v2c0 .554688.445312 1 1 1s1-.445312 1-1v-2c0-.554688-.445312-1-1-1zm5 0c-.554688 0-1 .445312-1 1v2c0 .554688.445312 1 1 1s1-.445312 1-1v-2c0-.554688-.445312-1-1-1zm0 0" fill="#044e54"/></svg>