<svg height="64" viewBox="0 0 64 64" width="64" xmlns="http://www.w3.org/2000/svg"><path d="m7 6c-.554688 0-1 .449219-1 1v8c0 .550781.445312 1 1 1s1-.449219 1-1v-7h7c.554688 0 1-.449219 1-1s-.445312-1-1-1zm12 0c-.554688 0-1 .449219-1 1s.445312 1 1 1h2c.554688 0 1-.449219 1-1s-.445312-1-1-1zm6 0c-.554688 0-1 .449219-1 1s.445312 1 1 1h2c.554688 0 1-.449219 1-1s-.445312-1-1-1zm6 0c-.554688 0-1 .449219-1 1s.445312 1 1 1h2c.554688 0 1-.449219 1-1s-.445312-1-1-1zm6 0c-.554688 0-1 .449219-1 1s.445312 1 1 1h2c.554688 0 1-.449219 1-1s-.445312-1-1-1zm6 0c-.554688 0-1 .449219-1 1s.445312 1 1 1h2c.554688 0 1-.449219 1-1s-.445312-1-1-1zm6 0c-.554688 0-1 .449219-1 1s.445312 1 1 1h7v7c0 .550781.445312 1 1 1s1-.449219 1-1v-8c0-.550781-.445312-1-1-1zm-42 12c-.554688 0-1 .449219-1 1v2c0 .550781.445312 1 1 1s1-.449219 1-1v-2c0-.550781-.445312-1-1-1zm12 0c-.554688 0-1 .449219-1 1s.445312 1 1 1h18c.554688 0 1-.449219 1-1s-.445312-1-1-1zm22 0c-.554688 0-1 .449219-1 1s.445312 1 1 1h4c.554688 0 1-.449219 1-1s-.445312-1-1-1zm16 0c-.554688 0-1 .449219-1 1v2c0 .550781.445312 1 1 1s1-.449219 1-1v-2c0-.550781-.445312-1-1-1zm-38 4c-.554688 0-1 .449219-1 1s.445312 1 1 1h20c.554688 0 1-.449219 1-1s-.445312-1-1-1zm-12 2c-.554688 0-1 .449219-1 1v2c0 .550781.445312 1 1 1s1-.449219 1-1v-2c0-.550781-.445312-1-1-1zm50 0c-.554688 0-1 .449219-1 1v2c0 .550781.445312 1 1 1s1-.449219 1-1v-2c0-.550781-.445312-1-1-1zm-38 2c-.554688 0-1 .449219-1 1s.445312 1 1 1h24c.554688 0 1-.449219 1-1s-.445312-1-1-1zm-12 4c-.554688 0-1 .449219-1 1v2c0 .550781.445312 1 1 1s1-.449219 1-1v-2c0-.550781-.445312-1-1-1zm50 0c-.554688 0-1 .449219-1 1v2c0 .550781.445312 1 1 1s1-.449219 1-1v-2c0-.550781-.445312-1-1-1zm-38 4c-.554688 0-1 .449219-1 1s.445312 1 1 1h26c.554688 0 1-.449219 1-1s-.445312-1-1-1zm-12 2c-.554688 0-1 .449219-1 1v2c0 .550781.445312 1 1 1s1-.449219 1-1v-2c0-.550781-.445312-1-1-1zm50 0c-.554688 0-1 .449219-1 1v2c0 .550781.445312 1 1 1s1-.449219 1-1v-2c0-.550781-.445312-1-1-1zm-38 2c-.554688 0-1 .449219-1 1s.445312 1 1 1h17c.554688 0 1-.449219 1-1s-.445312-1-1-1zm-12 4c-.554688 0-1 .449219-1 1v2c0 .550781.445312 1 1 1s1-.449219 1-1v-2c0-.550781-.445312-1-1-1zm12 0c-.554688 0-1 .449219-1 1s.445312 1 1 1h4c.554688 0 1-.449219 1-1s-.445312-1-1-1zm8 0c-.554688 0-1 .449219-1 1s.445312 1 1 1h14c.554688 0 1-.449219 1-1s-.445312-1-1-1zm30 0c-.554688 0-1 .449219-1 1v2c0 .550781.445312 1 1 1s1-.449219 1-1v-2c0-.550781-.445312-1-1-1zm-50 6c-.554688 0-1 .449219-1 1v8c0 .550781.445312 1 1 1h8c.554688 0 1-.449219 1-1s-.445312-1-1-1h-7v-7c0-.550781-.445312-1-1-1zm50 0c-.554688 0-1 .449219-1 1v7h-7c-.554688 0-1 .449219-1 1s.445312 1 1 1h8c.554688 0 1-.449219 1-1v-8c0-.550781-.445312-1-1-1zm-38 8c-.554688 0-1 .449219-1 1s.445312 1 1 1h2c.554688 0 1-.449219 1-1s-.445312-1-1-1zm6 0c-.554688 0-1 .449219-1 1s.445312 1 1 1h2c.554688 0 1-.449219 1-1s-.445312-1-1-1zm6 0c-.554688 0-1 .449219-1 1s.445312 1 1 1h2c.554688 0 1-.449219 1-1s-.445312-1-1-1zm6 0c-.554688 0-1 .449219-1 1s.445312 1 1 1h2c.554688 0 1-.449219 1-1s-.445312-1-1-1zm6 0c-.554688 0-1 .449219-1 1s.445312 1 1 1h2c.554688 0 1-.449219 1-1s-.445312-1-1-1zm0 0" fill="#044e54"/></svg>