<svg height="64" viewBox="0 0 64 64" width="64" xmlns="http://www.w3.org/2000/svg"><path d="m13 6c-3.859375 0-7 3.140625-7 7v38c0 3.859375 3.140625 7 7 7h38c3.859375 0 7-3.140625 7-7v-38c0-3.859375-3.140625-7-7-7zm0 2h38c2.757812 0 5 2.242188 5 5v38c0 2.757812-2.242188 5-5 5h-38c-2.757812 0-5-2.242188-5-5v-38c0-2.757812 2.242188-5 5-5zm-1 4c-.550781 0-1 .445312-1 1v2c0 .554688.449219 1 1 1s1-.445312 1-1v-2c0-.554688-.449219-1-1-1zm5 0c-.550781 0-1 .445312-1 1v2c0 .554688.449219 1 1 1s1-.445312 1-1v-2c0-.554688-.449219-1-1-1zm5 0c-.550781 0-1 .445312-1 1v2c0 .554688.449219 1 1 1s1-.445312 1-1v-2c0-.554688-.449219-1-1-1zm5 0c-.550781 0-1 .445312-1 1v2c0 .554688.449219 1 1 1s1-.445312 1-1v-2c0-.554688-.449219-1-1-1zm5 0c-.550781 0-1 .445312-1 1v2c0 .554688.449219 1 1 1s1-.445312 1-1v-2c0-.554688-.449219-1-1-1zm5 0c-.550781 0-1 .445312-1 1v2c0 .554688.449219 1 1 1s1-.445312 1-1v-2c0-.554688-.449219-1-1-1zm5 0c-.550781 0-1 .445312-1 1v2c0 .554688.449219 1 1 1s1-.445312 1-1v-2c0-.554688-.449219-1-1-1zm5 0c-.550781 0-1 .445312-1 1v2c0 .554688.449219 1 1 1s1-.445312 1-1v-2c0-.554688-.449219-1-1-1zm5 0c-.550781 0-1 .445312-1 1v2c0 .554688.449219 1 1 1s1-.445312 1-1v-2c0-.554688-.449219-1-1-1zm-12.546875 8.796875c-4.304687 0-7.808594 3.5-7.808594 7.804687 0 .207032.007813.414063.023438.617188-4.898438-.53125-9.433594-2.980469-12.570313-6.832031-.179687-.222657-.460937-.34375-.75-.324219-.285156.023438-.542968.1875-.6875.4375-.691406 1.1875-1.058594 2.542969-1.058594 3.921875 0 1.46875.410157 2.878906 1.152344 4.09375-.25-.105469-.53125-.085937-.769531.050781-.265625.152344-.433594.4375-.4375.746094v.097656c0 2.441406 1.140625 4.667969 2.953125 6.113282-.117188.050781-.21875.125-.304688.222656-.203124.230468-.273437.554687-.179687.847656.777344 2.421875 2.660156 4.261719 4.988281 5.03125-1.910156 1.050781-4.050781 1.601562-6.285156 1.601562-.53125 0-1.050781-.03125-1.546875-.089843-.410156-.050781-.792969.1875-.933594.574219-.136719.386718.011719.8125.355469 1.035156 3.316406 2.128906 7.152344 3.253906 11.09375 3.253906 7.746094 0 12.59375-3.65625 15.296875-6.722656 3.367187-3.820313 5.296875-8.875 5.296875-13.871094 0-.15625 0-.3125-.003906-.46875 1.28125-.984375 2.390625-2.171875 3.296875-3.53125.21875-.320312.195312-.75-.058594-1.046875-.25-.300781-.671875-.398437-1.027344-.238281-.226562.097656-.453125.191406-.6875.28125.402344-.601563.722657-1.261719.945313-1.957032.109375-.347656-.003906-.726562-.289063-.953124-.285156-.226563-.679687-.253907-.992187-.070313-1.144532.683594-2.378906 1.175781-3.671875 1.480469-1.441407-1.347656-3.359375-2.105469-5.339844-2.105469zm0 1.753906c1.667969 0 3.277344.695313 4.417969 1.914063.207031.21875.511718.316406.8125.257812.714844-.140625 1.414062-.335937 2.097656-.578125-.394531.433594-.855469.808594-1.367188 1.117188-.355468.210937-.511718.644531-.378906 1.035156.132813.390625.523438.636719.933594.589844.421875-.054688.839844-.121094 1.253906-.207031-.425781.402343-.875.773437-1.351562 1.117187-.238282.171875-.375.453125-.363282.75.011719.285156.023438.570313.023438.859375 0 11.792969-9.582031 18.839844-18.84375 18.839844-2.441406 0-4.839844-.472656-7.078125-1.382813 2.648437-.332031 5.125-1.363281 7.253906-3.035156.292969-.226563.410157-.613281.292969-.96875-.117188-.351563-.445312-.589844-.8125-.597656-2.121094-.039063-4.023438-1.175781-5.082031-2.933594.660156-.011719 1.3125-.101563 1.949219-.273437.394531-.105469.660156-.46875.648437-.875-.015625-.40625-.308594-.753907-.707031-.832032-2.359375-.476562-4.179688-2.308594-4.699219-4.628906.671875.210938 1.375.328125 2.078125.347656.394531.03125.746094-.234375.863281-.605468.121094-.371094-.019531-.777344-.347656-.996094-1.683594-1.128906-2.691406-3.011719-2.691406-5.039063 0-.640625.101562-1.277343.296875-1.878906 3.636718 3.890625 8.664062 6.242187 14.003906 6.511719.285156.015625.539062-.101563.71875-.3125.175781-.210938.242188-.492188.183594-.761719-.105469-.449219-.160156-.914063-.160156-1.378906 0-3.339844 2.714843-6.054688 6.054687-6.054688zm0 0" fill="#044e54"/></svg>