<svg height="64" viewBox="0 0 64 64" width="64" xmlns="http://www.w3.org/2000/svg"><path d="m15 7c-.550781 0-1 .449219-1 1v16h-5c-.550781 0-1 .449219-1 1v5h-2v-1c.003906-.269531-.101562-.53125-.292969-.722656-.191406-.191406-.453125-.296875-.722656-.289063-.550781.007813-.992187.460938-.984375 1.011719v1.832031c-.019531.109375-.019531.21875 0 .324219v1.84375c-.003906.359375.183594.695312.496094.878906.3125.179688.695312.179688 1.007812 0 .3125-.183594.5-.519531.496094-.878906v-1h2v24.3125c0 1.472656 1.214844 2.6875 2.6875 2.6875h42.613281c1.480469 0 2.699219-1.21875 2.699219-2.699219v-24.300781h2v1c-.003906.359375.183594.695312.496094.878906.3125.179688.695312.179688 1.007812 0 .3125-.183594.5-.519531.496094-.878906v-1.832031c.019531-.109375.019531-.21875 0-.324219v-1.84375c.003906-.269531-.101562-.53125-.292969-.722656-.191406-.191406-.453125-.296875-.722656-.289063-.550781.007813-.992187.460938-.984375 1.011719v1h-2v-5c0-.550781-.449219-1-1-1h-5v-16c0-.550781-.449219-1-1-1zm1 2h32v20h-8.5c-1.921875 0-3.5 1.578125-3.5 3.5 0 .136719.027344.269531.082031.390625.203125 1.730469 1.636719 3.109375 3.417969 3.109375h1c.839844 0 1.5.660156 1.5 1.5s-.660156 1.5-1.5 1.5h-17c-.839844 0-1.5-.660156-1.5-1.5s.660156-1.5 1.5-1.5h1c1.785156 0 3.21875-1.382812 3.421875-3.113281.050781-.125.078125-.253907.078125-.386719 0-1.921875-1.578125-3.5-3.5-3.5h-8.5zm11 14c-.738281 0-1.375.40625-1.722656 1h-6.277344c-.359375-.003906-.695312.183594-.878906.496094-.179688.3125-.179688.695312 0 1.007812.183594.3125.519531.5.878906.496094h6.269531c.347657.605469.988281 1.015625 1.730469 1.015625s1.382812-.410156 1.730469-1.015625h6.542969c.34375.605469.984374 1.015625 1.726562 1.015625s1.382812-.410156 1.730469-1.015625h6.269531c.359375.003906.695312-.183594.878906-.496094.179688-.3125.179688-.695312 0-1.007812-.183594-.3125-.519531-.5-.878906-.496094h-6.277344c-.347656-.59375-.984375-1-1.722656-1s-1.375.40625-1.71875 1h-6.558594c-.347656-.59375-.984375-1-1.722656-1zm-17 3h4v4c0 .550781.449219 1 1 1h9.5c.839844 0 1.5.660156 1.5 1.5s-.660156 1.5-1.5 1.5h-1c-1.921875 0-3.5 1.578125-3.5 3.5 0 .136719.027344.269531.082031.390625.203125 1.730469 1.636719 3.109375 3.417969 3.109375h17c1.785156 0 3.21875-1.382812 3.421875-3.113281.050781-.125.078125-.253907.078125-.386719 0-1.921875-1.578125-3.5-3.5-3.5h-1c-.839844 0-1.5-.660156-1.5-1.5s.660156-1.5 1.5-1.5h9.5c.550781 0 1-.449219 1-1v-4h4v30.300781c0 .390625-.308594.699219-.699219.699219h-42.613281c-.390625 0-.6875-.296875-.6875-.6875zm5 17c-.550781 0-1 .449219-1 1s.449219 1 1 1h2c.550781 0 1-.449219 1-1s-.449219-1-1-1zm8 0c-.550781 0-1 .449219-1 1s.449219 1 1 1h2c.550781 0 1-.449219 1-1s-.449219-1-1-1zm8 0c-.550781 0-1 .449219-1 1s.449219 1 1 1h2c.550781 0 1-.449219 1-1s-.449219-1-1-1zm8 0c-.550781 0-1 .449219-1 1s.449219 1 1 1h2c.550781 0 1-.449219 1-1s-.449219-1-1-1zm8 0c-.550781 0-1 .449219-1 1s.449219 1 1 1h2c.550781 0 1-.449219 1-1s-.449219-1-1-1zm-32 5c-.550781 0-1 .449219-1 1s.449219 1 1 1h2c.550781 0 1-.449219 1-1s-.449219-1-1-1zm8 0c-.550781 0-1 .449219-1 1s.449219 1 1 1h2c.550781 0 1-.449219 1-1s-.449219-1-1-1zm8 0c-.550781 0-1 .449219-1 1s.449219 1 1 1h2c.550781 0 1-.449219 1-1s-.449219-1-1-1zm8 0c-.550781 0-1 .449219-1 1s.449219 1 1 1h2c.550781 0 1-.449219 1-1s-.449219-1-1-1zm8 0c-.550781 0-1 .449219-1 1s.449219 1 1 1h2c.550781 0 1-.449219 1-1s-.449219-1-1-1zm-25 5c-.632812 0-.957031.449219-.957031 1s.324219 1 .957031 1h20.8125c.632812 0 1.144531-.449219 1.144531-1s-.324219-1-.957031-1zm0 0" fill="#044e54"/></svg>