<svg height="64" viewBox="0 0 64 64" width="64" xmlns="http://www.w3.org/2000/svg"><path d="m13 6c-3.859375 0-7 3.140625-7 7v38c0 3.859375 3.140625 7 7 7h38c3.859375 0 7-3.140625 7-7v-38c0-3.859375-3.140625-7-7-7zm0 2h38c2.757812 0 5 2.242188 5 5v38c0 2.757812-2.242188 5-5 5h-38c-2.757812 0-5-2.242188-5-5v-38c0-2.757812 2.242188-5 5-5zm35 5c-1.652344 0-3 1.347656-3 3s1.347656 3 3 3 3-1.347656 3-3-1.347656-3-3-3zm0 1.53125c.808594 0 1.46875.660156 1.46875 1.46875s-.660156 1.46875-1.46875 1.46875-1.46875-.660156-1.46875-1.46875.660156-1.46875 1.46875-1.46875zm-16 3.46875c-7.71875 0-14 6.28125-14 14s6.28125 14 14 14 14-6.28125 14-14-6.28125-14-14-14zm0 2c6.617188 0 12 5.382812 12 12s-5.382812 12-12 12-12-5.382812-12-12 5.382812-12 12-12zm0 2c-5.515625 0-10 4.484375-10 10s4.484375 10 10 10 10-4.484375 10-10-4.484375-10-10-10zm0 2c4.410156 0 8 3.589844 8 8s-3.589844 8-8 8-8-3.589844-8-8 3.589844-8 8-8zm-20 25c-.550781 0-1 .449219-1 1v2c0 .550781.449219 1 1 1s1-.449219 1-1v-2c0-.550781-.449219-1-1-1zm5 0c-.550781 0-1 .449219-1 1v2c0 .550781.449219 1 1 1s1-.449219 1-1v-2c0-.550781-.449219-1-1-1zm5 0c-.550781 0-1 .449219-1 1v2c0 .550781.449219 1 1 1s1-.449219 1-1v-2c0-.550781-.449219-1-1-1zm5 0c-.550781 0-1 .449219-1 1v2c0 .550781.449219 1 1 1s1-.449219 1-1v-2c0-.550781-.449219-1-1-1zm5 0c-.550781 0-1 .449219-1 1v2c0 .550781.449219 1 1 1s1-.449219 1-1v-2c0-.550781-.449219-1-1-1zm5 0c-.550781 0-1 .449219-1 1v2c0 .550781.449219 1 1 1s1-.449219 1-1v-2c0-.550781-.449219-1-1-1zm5 0c-.550781 0-1 .449219-1 1v2c0 .550781.449219 1 1 1s1-.449219 1-1v-2c0-.550781-.449219-1-1-1zm5 0c-.550781 0-1 .449219-1 1v2c0 .550781.449219 1 1 1s1-.449219 1-1v-2c0-.550781-.449219-1-1-1zm5 0c-.550781 0-1 .449219-1 1v2c0 .550781.449219 1 1 1s1-.449219 1-1v-2c0-.550781-.449219-1-1-1zm0 0" fill="#044e54"/></svg>