<?xml version="1.0" encoding="UTF-8"?>
<svg xmlns="http://www.w3.org/2000/svg" xmlns:xlink="http://www.w3.org/1999/xlink" width="512pt" height="512pt" viewBox="0 0 512 512" version="1.1">
<g id="surface19675519">
<path style=" stroke:none;fill-rule:nonzero;fill:rgb(0%,24.313726%,41.960785%);fill-opacity:1;" d="M 264 16 C 249.269531 16 227.0625 18.050781 205.0625 22.140625 C 183.855469 26.085938 163.472656 31.734375 149.421875 40.515625 C 134.933594 41.144531 115.667969 47.238281 98.140625 60.640625 C 79.679688 74.757812 64 97.332031 64 128 C 64 146.320312 69.480469 160.988281 80 185.609375 L 80 226.625 C 77.417969 225.574219 75.203125 224 72 224 C 65.332031 224 58.269531 228.007812 54.140625 234.890625 C 50.011719 241.773438 48 251.109375 48 264 C 48 281.535156 54.5625 298.703125 63.328125 312 C 67.710938 318.648438 72.65625 324.339844 78.015625 328.609375 C 81.367188 331.28125 85.421875 331.945312 89.265625 333.234375 C 111.660156 422.765625 179.679688 496 256 496 C 332.320312 496 400.339844 422.765625 422.734375 333.234375 C 426.578125 331.945312 430.632812 331.28125 433.984375 328.609375 C 439.34375 324.339844 444.289062 318.648438 448.671875 312 C 457.4375 298.703125 464 281.535156 464 264 C 464 251.109375 461.988281 241.773438 457.859375 234.890625 C 453.730469 228.007812 446.667969 224 440 224 C 436.515625 224 434.042969 225.636719 431.296875 226.859375 C 431.160156 222.980469 431.296875 223.175781 431.046875 218.671875 C 430.261719 204.417969 428.867188 188.355469 426.046875 175.234375 C 441.066406 171.121094 450.578125 167.765625 450.578125 167.765625 C 454.53125 166.289062 456.660156 161.992188 455.4375 157.953125 C 430.554688 75.785156 354.1875 16 264 16 Z M 264 32 C 344.183594 32 411.84375 83.425781 437.09375 154.859375 C 433.847656 156 426.796875 158.507812 415.0625 161.59375 C 414.625 161.671875 414.199219 161.789062 413.78125 161.9375 C 407.425781 163.578125 400.144531 165.320312 390.5625 167.21875 C 387.757812 167.773438 385.460938 169.785156 384.539062 172.492188 C 383.617188 175.199219 384.207031 178.191406 386.09375 180.34375 C 387.976562 182.496094 390.867188 183.476562 393.671875 182.921875 C 399.871094 181.695312 405.160156 180.421875 410.515625 179.15625 C 412.800781 190.417969 414.328125 205.9375 415.078125 219.546875 C 416.003906 236.304688 416 250 416 250 C 416 252.429688 411.847656 268.96875 389.609375 283.5625 C 367.371094 298.15625 326.964844 312 256 312 C 185.035156 312 144.628906 298.15625 122.390625 283.5625 C 100.152344 268.96875 96 252.429688 96 250 L 96 184.296875 C 96 184.105469 95.996094 183.910156 95.984375 183.71875 C 95.984375 183.640625 95.984375 183.5625 95.984375 183.484375 C 95.984375 183.457031 95.984375 183.433594 95.984375 183.40625 C 95.96875 183.230469 95.949219 183.050781 95.921875 182.875 C 95.917969 182.816406 95.910156 182.761719 95.90625 182.703125 C 95.902344 182.675781 95.894531 182.652344 95.890625 182.625 C 95.847656 182.382812 95.796875 182.144531 95.734375 181.90625 C 95.585938 181.300781 95.363281 180.710938 95.078125 180.15625 C 95.074219 180.144531 95.066406 180.136719 95.0625 180.125 C 84.40625 155.234375 80 143.433594 80 128 C 80 102.667969 92.320312 85.242188 107.859375 73.359375 C 123.398438 61.476562 142.667969 56 152 56 C 153.578125 56 155.125 55.53125 156.4375 54.65625 C 166.386719 48.023438 186.96875 41.769531 207.984375 37.859375 C 229 33.949219 250.796875 32 264 32 Z M 299.203125 51.9375 C 295.398438 51.898438 292.09375 54.542969 291.296875 58.265625 L 287.734375 73.875 C 287.007812 76.695312 287.871094 79.683594 289.984375 81.683594 C 292.101562 83.683594 295.136719 84.378906 297.910156 83.496094 C 300.683594 82.613281 302.757812 80.292969 303.328125 77.4375 L 306.890625 61.84375 C 307.472656 59.472656 306.9375 56.960938 305.441406 55.03125 C 303.941406 53.101562 301.644531 51.960938 299.203125 51.9375 Z M 340.21875 67.59375 C 337.296875 67.636719 334.628906 69.273438 333.265625 71.859375 L 325.59375 85.890625 C 324.101562 88.40625 324.101562 91.535156 325.589844 94.054688 C 327.082031 96.570312 329.832031 98.070312 332.753906 97.96875 C 335.679688 97.867188 338.3125 96.175781 339.625 93.5625 L 347.296875 79.53125 C 348.707031 77.035156 348.675781 73.976562 347.214844 71.511719 C 345.753906 69.046875 343.085938 67.554688 340.21875 67.59375 Z M 375.453125 93.765625 C 373.375 93.851562 371.414062 94.742188 369.984375 96.25 L 358.8125 107.71875 C 356.816406 109.765625 356.066406 112.726562 356.839844 115.476562 C 357.617188 118.230469 359.804688 120.359375 362.574219 121.066406 C 365.347656 121.769531 368.285156 120.941406 370.28125 118.890625 L 381.4375 107.421875 C 383.769531 105.09375 384.4375 101.570312 383.113281 98.546875 C 381.789062 95.527344 378.75 93.628906 375.453125 93.765625 Z M 403.125 128.546875 C 402.859375 128.539062 402.59375 128.542969 402.328125 128.5625 C 401.070312 128.644531 399.847656 129.027344 398.765625 129.671875 L 384.921875 137.671875 C 382.355469 139.050781 380.742188 141.71875 380.710938 144.632812 C 380.679688 147.546875 382.234375 150.246094 384.773438 151.683594 C 387.308594 153.117188 390.425781 153.058594 392.90625 151.53125 L 406.765625 143.53125 C 409.90625 141.78125 411.492188 138.148438 410.644531 134.65625 C 409.792969 131.160156 406.71875 128.660156 403.125 128.546875 Z M 164.90625 128.828125 C 163.179688 128.921875 161.390625 129.292969 159.6875 130.046875 C 156.285156 131.554688 153.582031 134.246094 151.4375 137.546875 C 146.167969 145.65625 139.121094 152.257812 131.515625 157.546875 C 129.101562 159.148438 127.742188 161.933594 127.964844 164.824219 C 128.1875 167.710938 129.953125 170.257812 132.582031 171.472656 C 135.210938 172.691406 138.296875 172.390625 140.640625 170.6875 C 149.5625 164.488281 158.207031 156.507812 164.859375 146.265625 C 165.71875 144.945312 165.996094 144.894531 166 144.890625 C 166.757812 145.125 169.429688 146.78125 172.703125 148.890625 C 192.441406 161.628906 240.484375 189.132812 295.609375 191.796875 C 300.023438 192.007812 303.773438 188.601562 303.984375 184.1875 C 304.195312 179.773438 300.789062 176.023438 296.375 175.8125 C 246.1875 173.386719 199.910156 147.402344 181.390625 135.453125 C 181.386719 135.449219 181.378906 135.441406 181.375 135.4375 C 178.992188 133.902344 175.5 130.722656 169.734375 129.28125 C 168.292969 128.921875 166.632812 128.734375 164.90625 128.828125 Z M 360.0625 172.34375 C 359.609375 172.332031 359.152344 172.355469 358.703125 172.421875 C 348.941406 173.679688 338.609375 174.675781 327.859375 175.296875 C 323.445312 175.550781 320.074219 179.335938 320.328125 183.75 C 320.582031 188.164062 324.367188 191.535156 328.78125 191.28125 C 339.933594 190.636719 350.640625 189.582031 360.75 188.28125 C 364.894531 187.773438 367.953125 184.167969 367.773438 179.996094 C 367.59375 175.824219 364.234375 172.492188 360.0625 172.34375 Z M 72 240 C 77 240 77.492188 241.558594 78.6875 244.25 C 79.882812 246.941406 80 250 80 250 C 80.003906 250.339844 80.03125 250.679688 80.078125 251.015625 C 80.503906 262.632812 88.550781 280.492188 113.609375 296.9375 C 119.9375 301.089844 127.375 305.066406 136.03125 308.71875 C 136.167969 314.027344 136.414062 328.226562 134.375 345.265625 C 133.144531 355.558594 131.011719 365.867188 127.96875 373.15625 C 126.605469 376.417969 125.195312 378.746094 123.78125 380.484375 C 115.199219 363.605469 108.304688 345.359375 103.78125 326.171875 C 102.933594 322.558594 99.710938 320.003906 96 320 C 94.757812 320 91.625 318.992188 87.984375 316.09375 C 84.34375 313.195312 80.289062 308.671875 76.671875 303.1875 C 69.4375 292.21875 64 277.394531 64 264 C 64 252.890625 65.988281 246.226562 67.859375 243.109375 C 69.730469 239.992188 70.667969 240 72 240 Z M 176 240 C 167.164062 240 160 247.164062 160 256 C 160 264.835938 167.164062 272 176 272 C 184.835938 272 192 264.835938 192 256 C 192 247.164062 184.835938 240 176 240 Z M 336 240 C 327.164062 240 320 247.164062 320 256 C 320 264.835938 327.164062 272 336 272 C 344.835938 272 352 264.835938 352 256 C 352 247.164062 344.835938 240 336 240 Z M 440 240 C 441.332031 240 442.269531 239.992188 444.140625 243.109375 C 446.011719 246.226562 448 252.890625 448 264 C 448 277.394531 442.5625 292.21875 435.328125 303.1875 C 431.710938 308.671875 427.65625 313.195312 424.015625 316.09375 C 420.375 318.992188 417.242188 320 416 320 C 412.289062 320.003906 409.066406 322.558594 408.21875 326.171875 C 403.695312 345.359375 396.800781 363.605469 388.21875 380.484375 C 386.804688 378.746094 385.394531 376.417969 384.03125 373.15625 C 380.984375 365.867188 378.855469 355.558594 377.625 345.265625 C 375.585938 328.214844 375.832031 314.015625 375.96875 308.71875 C 384.625 305.066406 392.0625 301.089844 398.390625 296.9375 C 423.425781 280.507812 431.46875 262.664062 431.90625 251.046875 C 431.960938 250.699219 431.992188 250.351562 432 250 C 432 250 432.117188 246.941406 433.3125 244.25 C 434.507812 241.558594 435 240 440 240 Z M 152.109375 314.578125 C 177.445312 322.621094 211.128906 328 256 328 C 300.871094 328 334.554688 322.621094 359.890625 314.578125 C 359.890625 322.855469 360.171875 333.988281 361.75 347.171875 C 363.082031 358.285156 365.230469 369.671875 369.265625 379.328125 C 371.777344 385.34375 375.273438 391.109375 380.15625 395.0625 C 349.84375 445.546875 303.296875 480 256 480 C 208.703125 480 162.15625 445.546875 131.84375 395.0625 C 136.726562 391.109375 140.222656 385.339844 142.734375 379.328125 C 146.765625 369.671875 148.917969 358.285156 150.25 347.171875 C 151.828125 333.976562 152.109375 322.851562 152.109375 314.578125 Z M 175.859375 351.953125 C 172.011719 351.972656 168.722656 354.730469 168.03125 358.515625 C 167.339844 362.300781 169.441406 366.042969 173.03125 367.421875 C 173.03125 367.421875 213.867188 384 256 384 C 261.730469 384 267.425781 383.691406 272.984375 383.15625 C 275.890625 382.957031 278.457031 381.199219 279.691406 378.558594 C 280.921875 375.921875 280.625 372.824219 278.914062 370.46875 C 277.199219 368.113281 274.34375 366.875 271.453125 367.234375 C 266.339844 367.726562 261.148438 368 256 368 C 218.132812 368 178.96875 352.578125 178.96875 352.578125 C 177.984375 352.164062 176.925781 351.953125 175.859375 351.953125 Z M 335.90625 351.953125 C 334.917969 351.980469 333.941406 352.195312 333.03125 352.578125 C 333.03125 352.578125 320.558594 357.566406 302.5 361.90625 C 299.636719 362.496094 297.324219 364.601562 296.46875 367.394531 C 295.609375 370.1875 296.34375 373.226562 298.378906 375.320312 C 300.417969 377.414062 303.433594 378.230469 306.25 377.453125 C 325.40625 372.847656 338.96875 367.421875 338.96875 367.421875 C 342.605469 366.027344 344.707031 362.21875 343.953125 358.398438 C 343.195312 354.578125 339.800781 351.855469 335.90625 351.953125 Z M 167.828125 391.921875 C 164.417969 391.949219 161.402344 394.136719 160.3125 397.367188 C 159.226562 400.597656 160.304688 404.164062 163 406.25 C 163 406.25 204.445312 440 256 440 C 307.554688 440 349 406.25 349 406.25 C 351.234375 404.464844 352.34375 401.621094 351.914062 398.792969 C 351.484375 395.964844 349.578125 393.582031 346.914062 392.542969 C 344.25 391.503906 341.234375 391.960938 339 393.75 C 339 393.75 300.445312 424 256 424 C 211.554688 424 173 393.75 173 393.75 C 171.546875 392.550781 169.714844 391.902344 167.828125 391.921875 Z M 167.828125 391.921875 "/>
</g>
</svg>
