<?xml version="1.0" encoding="UTF-8"?>
<svg xmlns="http://www.w3.org/2000/svg" xmlns:xlink="http://www.w3.org/1999/xlink" viewBox="0 0 64 64" width="64px" height="64px">
<g id="surface16615576">
<path style=" stroke:none;fill-rule:nonzero;fill:rgb(1.568628%,30.588236%,32.941177%);fill-opacity:1;" d="M 5 6 C 3.347656 6 2 7.347656 2 9 L 2 41 C 2 42.652344 3.347656 44 5 44 L 12.144531 44 C 12.207031 45.070312 12.03125 47.335938 10.140625 50.484375 C 9.9375 50.828125 9.957031 51.261719 10.1875 51.582031 C 10.378906 51.847656 10.683594 52 11 52 C 11.070312 52 11.144531 51.992188 11.21875 51.976562 C 18.941406 50.261719 21.816406 45.738281 22.65625 44 L 30 44 L 30 49 C 30 50.652344 31.347656 52 33 52 L 45.234375 52 C 45.835938 53.839844 47.863281 58.132812 53.859375 58.988281 C 53.90625 58.996094 53.953125 59 54 59 C 54.304688 59 54.59375 58.859375 54.785156 58.617188 C 55.007812 58.335938 55.0625 57.960938 54.929688 57.628906 C 53.726562 54.625 53.691406 52.828125 53.78125 52 L 59 52 C 60.652344 52 62 50.652344 62 49 L 62 27 C 62 25.347656 60.652344 24 59 24 L 54 24 L 54 9 C 54 7.347656 52.652344 6 51 6 Z M 5 8 L 51 8 C 51.550781 8 52 8.449219 52 9 L 52 41 C 52 41.550781 51.550781 42 51 42 L 22 42 C 21.570312 42 21.1875 42.273438 21.050781 42.683594 C 21.035156 42.734375 19.472656 47.203125 12.953125 49.421875 C 14.78125 45.316406 13.988281 42.804688 13.949219 42.683594 C 13.8125 42.273438 13.429688 42 13 42 L 5 42 C 4.449219 42 4 41.550781 4 41 L 4 9 C 4 8.449219 4.449219 8 5 8 Z M 13 20 C 12.445312 20 12 20.449219 12 21 C 12 21.550781 12.445312 22 13 22 L 31 22 C 31.554688 22 32 21.550781 32 21 C 32 20.449219 31.554688 20 31 20 Z M 35 20 C 34.445312 20 34 20.449219 34 21 C 34 21.550781 34.445312 22 35 22 L 39 22 C 39.554688 22 40 21.550781 40 21 C 40 20.449219 39.554688 20 39 20 Z M 13 26 C 12.445312 26 12 26.449219 12 27 C 12 27.550781 12.445312 28 13 28 L 35 28 C 35.554688 28 36 27.550781 36 27 C 36 26.449219 35.554688 26 35 26 Z M 54 26 L 59 26 C 59.550781 26 60 26.449219 60 27 L 60 49 C 60 49.550781 59.550781 50 59 50 L 53 50 C 52.621094 50 52.277344 50.214844 52.105469 50.550781 C 51.996094 50.769531 51.191406 52.589844 52.449219 56.628906 C 47.800781 55.164062 47.019531 51.027344 46.984375 50.835938 C 46.90625 50.355469 46.488281 50 46 50 L 33 50 C 32.449219 50 32 49.550781 32 49 L 32 44 L 51 44 C 52.652344 44 54 42.652344 54 41 Z M 8 36 C 7.445312 36 7 36.449219 7 37 L 7 39 C 7 39.550781 7.445312 40 8 40 C 8.554688 40 9 39.550781 9 39 L 9 37 C 9 36.449219 8.554688 36 8 36 Z M 13 36 C 12.445312 36 12 36.449219 12 37 L 12 39 C 12 39.550781 12.445312 40 13 40 C 13.554688 40 14 39.550781 14 39 L 14 37 C 14 36.449219 13.554688 36 13 36 Z M 18 36 C 17.445312 36 17 36.449219 17 37 L 17 39 C 17 39.550781 17.445312 40 18 40 C 18.554688 40 19 39.550781 19 39 L 19 37 C 19 36.449219 18.554688 36 18 36 Z M 23 36 C 22.445312 36 22 36.449219 22 37 L 22 39 C 22 39.550781 22.445312 40 23 40 C 23.554688 40 24 39.550781 24 39 L 24 37 C 24 36.449219 23.554688 36 23 36 Z M 28 36 C 27.445312 36 27 36.449219 27 37 L 27 39 C 27 39.550781 27.445312 40 28 40 C 28.554688 40 29 39.550781 29 39 L 29 37 C 29 36.449219 28.554688 36 28 36 Z M 33 36 C 32.445312 36 32 36.449219 32 37 L 32 39 C 32 39.550781 32.445312 40 33 40 C 33.554688 40 34 39.550781 34 39 L 34 37 C 34 36.449219 33.554688 36 33 36 Z M 38 36 C 37.445312 36 37 36.449219 37 37 L 37 39 C 37 39.550781 37.445312 40 38 40 C 38.554688 40 39 39.550781 39 39 L 39 37 C 39 36.449219 38.554688 36 38 36 Z M 43 36 C 42.445312 36 42 36.449219 42 37 L 42 39 C 42 39.550781 42.445312 40 43 40 C 43.554688 40 44 39.550781 44 39 L 44 37 C 44 36.449219 43.554688 36 43 36 Z M 48 36 C 47.445312 36 47 36.449219 47 37 L 47 39 C 47 39.550781 47.445312 40 48 40 C 48.554688 40 49 39.550781 49 39 L 49 37 C 49 36.449219 48.554688 36 48 36 Z M 48 36 "/>
</g>
</svg>
