<svg height="64" viewBox="0 0 64 64" width="64" xmlns="http://www.w3.org/2000/svg"><path d="m5 6c-1.652344 0-3 1.347656-3 3v32c0 1.652344 1.347656 3 3 3h7.144531c.0625 1.070312-.113281 3.335938-2.003906 6.484375-.203125.34375-.183594.777344.046875 1.097656.191406.265625.496094.417969.8125.417969.070312 0 .144531-.007812.21875-.023438 7.722656-1.714843 10.597656-6.238281 11.4375-7.976562h7.34375v5c0 1.652344 1.347656 3 3 3h12.234375c.601563 1.839844 2.628906 6.132812 8.625 6.988281.046875.007813.09375.011719.140625.011719.304688 0 .59375-.140625.785156-.382812.222656-.28125.277344-.65625.144532-.988282-1.203126-3.003906-1.238282-4.800781-1.148438-5.628906h5.21875c1.652344 0 3-1.347656 3-3v-22c0-1.652344-1.347656-3-3-3h-5v-15c0-1.652344-1.347656-3-3-3zm0 2h46c.550781 0 1 .449219 1 1v32c0 .550781-.449219 1-1 1h-29c-.429688 0-.8125.273438-.949219.683594-.015625.050781-1.578125 4.519531-8.097656 6.738281 1.828125-4.105469 1.035156-6.617187.996094-6.738281-.136719-.410156-.519531-.683594-.949219-.683594h-8c-.550781 0-1-.449219-1-1v-32c0-.550781.449219-1 1-1zm8 12c-.554688 0-1 .449219-1 1s.445312 1 1 1h18c.554688 0 1-.449219 1-1s-.445312-1-1-1zm22 0c-.554688 0-1 .449219-1 1s.445312 1 1 1h4c.554688 0 1-.449219 1-1s-.445312-1-1-1zm-22 6c-.554688 0-1 .449219-1 1s.445312 1 1 1h22c.554688 0 1-.449219 1-1s-.445312-1-1-1zm41 0h5c.550781 0 1 .449219 1 1v22c0 .550781-.449219 1-1 1h-6c-.378906 0-.722656.214844-.894531.550781-.109375.21875-.914063 2.039063.34375 6.078125-4.648438-1.464844-5.429688-5.601562-5.464844-5.792968-.078125-.480469-.496094-.835938-.984375-.835938h-13c-.550781 0-1-.449219-1-1v-5h19c1.652344 0 3-1.347656 3-3zm-46 10c-.554688 0-1 .449219-1 1v2c0 .550781.445312 1 1 1s1-.449219 1-1v-2c0-.550781-.445312-1-1-1zm5 0c-.554688 0-1 .449219-1 1v2c0 .550781.445312 1 1 1s1-.449219 1-1v-2c0-.550781-.445312-1-1-1zm5 0c-.554688 0-1 .449219-1 1v2c0 .550781.445312 1 1 1s1-.449219 1-1v-2c0-.550781-.445312-1-1-1zm5 0c-.554688 0-1 .449219-1 1v2c0 .550781.445312 1 1 1s1-.449219 1-1v-2c0-.550781-.445312-1-1-1zm5 0c-.554688 0-1 .449219-1 1v2c0 .550781.445312 1 1 1s1-.449219 1-1v-2c0-.550781-.445312-1-1-1zm5 0c-.554688 0-1 .449219-1 1v2c0 .550781.445312 1 1 1s1-.449219 1-1v-2c0-.550781-.445312-1-1-1zm5 0c-.554688 0-1 .449219-1 1v2c0 .550781.445312 1 1 1s1-.449219 1-1v-2c0-.550781-.445312-1-1-1zm5 0c-.554688 0-1 .449219-1 1v2c0 .550781.445312 1 1 1s1-.449219 1-1v-2c0-.550781-.445312-1-1-1zm5 0c-.554688 0-1 .449219-1 1v2c0 .550781.445312 1 1 1s1-.449219 1-1v-2c0-.550781-.445312-1-1-1zm0 0" fill="#044e54"/></svg>