<?xml version="1.0" encoding="UTF-8"?>
<svg xmlns="http://www.w3.org/2000/svg" xmlns:xlink="http://www.w3.org/1999/xlink" width="512pt" height="512pt" viewBox="0 0 512 512" version="1.1">
<g id="surface10327193">
<path style=" stroke:none;fill-rule:nonzero;fill:rgb(0%,24.313726%,41.960785%);fill-opacity:1;" d="M 56 16 C 33.90625 16 16 33.90625 16 56 L 16 456 C 16 478.09375 33.90625 496 56 496 L 280 496 C 287.28125 505.6875 298.96875 512 312 512 L 456 512 C 478.09375 512 496 494.09375 496 472 L 496 152 C 496 129.90625 478.09375 112 456 112 L 400 112 L 400 56 C 400 33.90625 382.09375 16 360 16 Z M 56 32 L 360 32 C 373.1875 32 384 42.8125 384 56 L 384 112 L 312 112 C 289.90625 112 272 129.90625 272 152 L 272 472 C 272 474.71875 272.25 477.4375 272.78125 480 L 56 480 C 42.8125 480 32 469.1875 32 456 L 32 56 C 32 42.8125 42.8125 32 56 32 Z M 64 64 C 55.1875 64 48 71.1875 48 80 L 48 400 C 48 408.8125 55.1875 416 64 416 L 250.5 416 C 254.9375 416 258.5 412.40625 258.5 408 C 258.5 403.59375 254.9375 400 250.5 400 L 64 400 L 64 80 L 352 80 L 352 88 C 352 92.40625 355.5625 96 360 96 C 364.4375 96 368 92.40625 368 88 L 368 80 C 368 71.1875 360.8125 64 352 64 Z M 312 128 L 456 128 C 469.1875 128 480 138.8125 480 152 L 480 176 L 288 176 L 288 152 C 288 138.8125 298.8125 128 312 128 Z M 352 144 C 347.5625 144 344 147.59375 344 152 C 344 156.40625 347.5625 160 352 160 L 360 160 C 364.4375 160 368 156.40625 368 152 C 368 147.59375 364.4375 144 360 144 Z M 392 144 C 387.5625 144 384 147.59375 384 152 C 384 156.40625 387.5625 160 392 160 L 416 160 C 420.4375 160 424 156.40625 424 152 C 424 147.59375 420.4375 144 416 144 Z M 288 192 L 480 192 L 480 416 L 288 416 Z M 88 352 C 83.5625 352 80 355.59375 80 360 L 80 376 C 80 380.40625 83.5625 384 88 384 C 92.4375 384 96 380.40625 96 376 L 96 360 C 96 355.59375 92.4375 352 88 352 Z M 128 352 C 123.5625 352 120 355.59375 120 360 L 120 376 C 120 380.40625 123.5625 384 128 384 C 132.4375 384 136 380.40625 136 376 L 136 360 C 136 355.59375 132.4375 352 128 352 Z M 168 352 C 163.5625 352 160 355.59375 160 360 L 160 376 C 160 380.40625 163.5625 384 168 384 C 172.4375 384 176 380.40625 176 376 L 176 360 C 176 355.59375 172.4375 352 168 352 Z M 208 352 C 203.5625 352 200 355.59375 200 360 L 200 376 C 200 380.40625 203.5625 384 208 384 C 212.4375 384 216 380.40625 216 376 L 216 360 C 216 355.59375 212.4375 352 208 352 Z M 248 352 C 243.5625 352 240 355.59375 240 360 L 240 376 C 240 380.40625 243.5625 384 248 384 C 252.4375 384 256 380.40625 256 376 L 256 360 C 256 355.59375 252.4375 352 248 352 Z M 208 432 C 199.15625 432 192 439.15625 192 448 C 192 456.84375 199.15625 464 208 464 C 216.84375 464 224 456.84375 224 448 C 224 439.15625 216.84375 432 208 432 Z M 288 432 L 480 432 L 480 472 C 480 485.1875 469.1875 496 456 496 L 312 496 C 301.59375 496 292.71875 489.28125 289.4375 480 C 288.46875 477.53125 288 474.8125 288 472 Z M 384 448 C 375.15625 448 368 455.15625 368 464 C 368 472.84375 375.15625 480 384 480 C 392.84375 480 400 472.84375 400 464 C 400 455.15625 392.84375 448 384 448 Z M 384 448 "/>
</g>
</svg>
