<?xml version="1.0" encoding="UTF-8"?>
<svg xmlns="http://www.w3.org/2000/svg" xmlns:xlink="http://www.w3.org/1999/xlink" width="512pt" height="512pt" viewBox="0 0 512 512" version="1.1">
<g id="surface10315014">
<path style=" stroke:none;fill-rule:nonzero;fill:rgb(0%,24.313726%,41.960785%);fill-opacity:1;" d="M 232 0 C 218.78125 0 208 10.78125 208 24 L 208 49.25 C 91.3125 61.28125 0 160.1875 0 280 C 0 407.90625 104.09375 512 232 512 C 359.90625 512 464 407.90625 464 280 C 464 227.71875 446.59375 179.4375 417.34375 140.625 L 434.125 123.78125 L 441.46875 131.125 C 444.5625 134.21875 448.65625 135.78125 452.75 135.78125 C 456.875 135.78125 460.96875 134.21875 464.09375 131.125 L 475.40625 119.78125 C 481.65625 113.5625 481.65625 103.40625 475.40625 97.15625 L 418.84375 40.59375 C 412.59375 34.375 402.4375 34.375 396.21875 40.59375 L 384.875 51.90625 C 378.65625 58.15625 378.65625 68.3125 384.875 74.5625 L 392.21875 81.875 L 375.875 98.1875 C 342.1875 71.5 301 53.875 256 49.25 L 256 24 C 256 10.78125 245.21875 0 232 0 Z M 232 16 C 236.40625 16 240 19.59375 240 24 L 240 48 L 224 48 L 224 24 C 224 19.59375 227.59375 16 232 16 Z M 407.5 51.9375 L 464.09375 108.5 L 452.78125 119.8125 L 396.21875 63.25 Z M 232 64 C 351.09375 64 448 160.90625 448 280 C 448 399.09375 351.09375 496 232 496 C 112.90625 496 16 399.09375 16 280 C 16 160.90625 112.90625 64 232 64 Z M 403.5 93.15625 L 422.84375 112.5 L 407.15625 128.125 C 401.1875 121.25 394.875 114.6875 388.125 108.53125 Z M 232 96 C 227.59375 96 224 99.59375 224 104 L 224 136 C 224 140.40625 227.59375 144 232 144 C 236.4375 144 240 140.40625 240 136 L 240 112.40625 C 328.90625 116.625 400 190.0625 400 280 C 400 324.78125 382.59375 366.875 351 398.59375 C 347.875 401.71875 347.875 406.78125 351 409.90625 C 352.5625 411.46875 354.625 412.25 356.65625 412.25 C 358.71875 412.25 360.75 411.46875 362.3125 409.90625 C 396.9375 375.15625 416 329.03125 416 280 C 416 181.21875 337.75 100.40625 240 96.21875 C 237.34375 96.09375 234.6875 96 232 96 Z M 107.53125 147.53125 C 105.5 147.53125 103.46875 148.3125 101.875 149.875 C 67.15625 184.65625 48 230.84375 48 280 C 48 329.15625 67.15625 375.375 101.90625 410.125 C 103.46875 411.6875 105.5 412.5 107.5625 412.5 C 109.625 412.5 111.65625 411.6875 113.21875 410.125 C 116.34375 407 116.34375 401.96875 113.21875 398.84375 C 81.46875 367.09375 64 324.875 64 280 C 64 235.125 81.46875 192.9375 113.21875 161.21875 C 116.34375 158.0625 116.34375 153.03125 113.21875 149.875 C 111.625 148.3125 109.59375 147.53125 107.53125 147.53125 Z M 232 160 C 227.5625 160 224 163.5625 224 168 L 224 184 C 224 188.4375 227.5625 192 232 192 C 236.4375 192 240 188.4375 240 184 L 240 168 C 240 163.5625 236.4375 160 232 160 Z M 136 176 C 133.96875 176 131.90625 176.78125 130.34375 178.34375 C 127.21875 181.46875 127.21875 186.53125 130.34375 189.65625 L 210.40625 269.71875 C 208.90625 272.84375 208 276.3125 208 280 C 208 293.21875 218.78125 304 232 304 C 245.21875 304 256 293.21875 256 280 C 256 266.78125 245.21875 256 232 256 C 228.3125 256 224.84375 256.90625 221.71875 258.40625 L 141.65625 178.34375 C 140.09375 176.78125 138.03125 176 136 176 Z M 155 411.15625 C 151.875 410.78125 148.71875 412.21875 147.09375 415.09375 L 139.09375 428.9375 C 136.875 432.78125 138.1875 437.65625 142 439.875 C 143.25 440.59375 144.625 440.9375 146 440.9375 C 148.75 440.9375 151.4375 439.5 152.90625 436.9375 L 160.90625 423.09375 C 163.125 419.28125 161.84375 414.375 158 412.15625 C 157.03125 411.625 156 411.28125 155 411.15625 Z M 309 411.15625 C 307.96875 411.28125 306.9375 411.625 306 412.15625 C 302.15625 414.375 300.875 419.28125 303.09375 423.125 L 311.09375 436.96875 C 312.5625 439.53125 315.25 440.96875 318 440.96875 C 319.375 440.96875 320.75 440.59375 322 439.875 C 325.84375 437.65625 327.125 432.78125 324.90625 428.96875 L 316.90625 415.125 C 315.28125 412.25 312.09375 410.78125 309 411.15625 Z M 190.53125 426.75 C 187.4375 427.1875 184.75 429.40625 183.875 432.625 L 179.75 448.09375 C 178.59375 452.34375 181.15625 456.71875 185.40625 457.875 C 186.09375 458.0625 186.78125 458.125 187.5 458.125 C 191 458.125 194.25 455.78125 195.21875 452.21875 L 199.375 436.75 C 200.5 432.5 197.96875 428.09375 193.71875 426.96875 C 192.65625 426.65625 191.5625 426.59375 190.53125 426.75 Z M 273.5 426.75 C 272.46875 426.59375 271.375 426.65625 270.28125 426.96875 C 266.03125 428.09375 263.5 432.5 264.625 436.75 L 268.78125 452.21875 C 269.75 455.78125 272.96875 458.125 276.5 458.125 C 277.21875 458.125 277.90625 458.0625 278.59375 457.875 C 282.84375 456.71875 285.40625 452.34375 284.25 448.09375 L 280.125 432.625 C 279.25 429.40625 276.5625 427.1875 273.5 426.75 Z M 232 432 C 227.5625 432 224 435.5625 224 440 L 224 456 C 224 460.4375 227.5625 464 232 464 C 236.4375 464 240 460.4375 240 456 L 240 440 C 240 435.5625 236.4375 432 232 432 Z M 232 432 "/>
</g>
</svg>
