<svg height="64" viewBox="0 0 64 64" width="64" xmlns="http://www.w3.org/2000/svg"><path d="m45.949219 2.007812c-3.070313 0-6.230469.980469-8.789063 2.941407-1.140625-.609375-2.601562-.4375-3.5625.519531-.558594.570312-.867187 1.320312-.867187 2.132812 0 .648438.199219 1.257813.570312 1.765626-1.101562 1.890624-1.921875 4.0625-2.320312 6.285156-.378907.109375-.71875.328125-.96875.628906l-19.339844 23.207031c-.578125.691407-.785156 1.5625-.65625 2.386719l-2.359375 3.417969c-.953125 1.195312-.859375 2.910156.222656 3.992187l.800782.808594-.296876.296875c-2.332031 2.332031-2.996093 5.675781-1.726562 8.726563 1.261719 3.039062 4.089844 4.929687 7.386719 4.929687h.019531l10.941406-.046875c.554688-.003906 1-.453125.996094-1.003906-.003906-.550782-.449219-.996094-1-.996094h-.003906l-10.9375.046875h-.023438c-2.945312 0-4.789062-1.910156-5.535156-3.699219-.742188-1.789062-.792969-4.453125 1.296875-6.546875l.296875-.296875.910156.90625c.589844.59375 1.367188.890625 2.136719.890625.644531 0 1.285156-.210937 1.800781-.625l3.476563-2.398437c.152343.023437.308593.042968.460937.042968.671875 0 1.363282-.230468 1.921875-.699218l23.210938-19.339844c.296875-.25.507812-.582031.628906-.953125 2.210937-.398437 4.390625-1.207031 6.296875-2.339844.523438.382813 1.140625.574219 1.761719.574219.761719 0 1.53125-.292969 2.121093-.875.558594-.566406.878907-1.316406.878907-2.117188 0-.511718-.121094-.988281-.359375-1.417968 1.71875-2.28125 2.769531-5.140625 2.929687-8.082032.199219-3.761718-1.019531-7.167968-3.449219-9.601562-2.320312-2.316406-5.550781-3.460938-8.871093-3.460938zm.414062 1.976563c2.648438.089844 5.1875 1.050781 7.039063 2.90625 2.027344 2.019531 3.046875 4.890625 2.867187 8.078125-.128906 2.402344-.9375 4.730469-2.28125 6.640625l-15.308593-15.308594c2.28125-1.625 5.035156-2.40625 7.683593-2.316406zm-10.632812 2.617187c.25 0 .507812.089844.699219.289063l.710937.710937 15.546875 15.550782.714844.707031c.1875.191406.296875.441406.296875.710937 0 .191407-.058594.378907-.167969.539063v.011719c-.042969.046875-.082031.097656-.128906.148437-.070313.070313-.152344.121094-.230469.160157-.011719.011718-.019531.019531-.03125.019531-.371094.191406-.839844.128906-1.152344-.179688l-.816406-.820312-15.324219-15.316407-.828125-.832031c-.191406-.191406-.289062-.441406-.289062-.699219 0-.140624.03125-.261718.070312-.382812.011719-.019531.011719-.019531.011719-.03125.046875-.109375.117188-.207031.207031-.296875.058594-.058594.121094-.109375.179688-.140625.160156-.101562.351562-.148438.53125-.148438zm-.980469 4.269532 14.6875 14.679687c-1.617188.878907-3.4375 1.511719-5.257812 1.828125-.011719-.019531-.019532-.027344-.039063-.050781l-11.179687-11.175781-.03125-.03125c.320312-1.84375.949218-3.652344 1.820312-5.25zm-3.199219 6.691406 1.128907 1.125 8.929687 8.933594 1.121094 1.117187-1.050781.882813-22.160157 18.457031c-.398437.34375-.980469.3125-1.347656-.058594l-5.902344-5.898437c-.371093-.371094-.398437-.953125-.058593-1.351563l18.46875-22.171875zm-.066406 3.171875c-.257813.003906-.511719.101563-.707031.296875l-1.417969 1.410156c-.390625.394532-.390625 1.023438 0 1.417969.195313.191406.453125.292969.707031.292969.257813 0 .515625-.101563.710938-.292969l1.410156-1.417969c.394531-.390625.394531-1.019531 0-1.410156-.195312-.199219-.449219-.296875-.703125-.296875zm3.535156 3.539063c-.257812 0-.511719.097656-.707031.292968l-1.414062 1.414063c-.390626.390625-.390626 1.023437 0 1.414062.195312.195313.449218.292969.707031.292969.257812 0 .511719-.097656.707031-.292969l1.414062-1.414062c.390626-.390625.390626-1.023438 0-1.414063-.195312-.195312-.449218-.292968-.707031-.292968zm3.53125 3.535156c-.253906 0-.507812.097656-.703125.292968l-1.414062 1.414063c-.390625.390625-.390625 1.023437 0 1.414063.195312.195312.449218.292968.707031.292968s.511719-.097656.707031-.292968l1.414063-1.414063c.390625-.390625.390625-1.023437 0-1.414063-.195313-.195312-.453125-.292968-.710938-.292968zm-9.894531.859375c-.78125-.003907-1.554688.28125-2.125.847656l-2.828125 2.828125c-.5625.566406-.875 1.320312-.875 2.125 0 .800781.308594 1.554688.875 2.121094.585937.582031 1.355469.875 2.125.875.765625 0 1.535156-.292969 2.121094-.875l2.828125-2.828125c1.167968-1.171875 1.167968-3.074219 0-4.246094-.566406-.566406-1.34375-.847656-2.121094-.847656zm0 1.96875c.265625 0 .515625.105469.703125.292969.390625.390624.390625 1.023437 0 1.414062l-2.828125 2.828125c-.378906.378906-1.03125.378906-1.410156 0-.191406-.1875-.292969-.4375-.292969-.707031 0-.269532.101563-.519532.292969-.707032l2.828125-2.828124c.1875-.1875.4375-.292969.707031-.292969zm-17.542969 13.164062 4.9375 4.933594.445313.4375-2.746094 1.902344c-.398438.316406-.972656.285156-1.332031-.074219l-3.125-3.125c-.359375-.363281-.390625-.9375-.03125-1.390625zm17.886719 18.199219c-.554688 0-1 .449219-1 1s.445312 1 1 1h4c.554688 0 1-.449219 1-1s-.445312-1-1-1zm0 0" fill="#044e54"/></svg>