<svg height="64" viewBox="0 0 64 64" width="64" xmlns="http://www.w3.org/2000/svg"><path d="m19.660156 4c-1.339844 0-2.601562.519531-3.542968 1.460938l-8.65625 8.65625c-.941407.953124-1.460938 2.203124-1.460938 3.542968v39.339844c0 1.648438 1.351562 3 3 3h37v1c0 .550781.449219 1 1 1h6c.550781 0 1-.449219 1-1v-12.589844l2.289062 2.300782c.390626.390624 1.03125.390624 1.421876 0l4-4c.390624-.390626.390624-1.03125 0-1.421876l-9.710938-9.707031v-28.582031c0-1.648438-1.351562-3-3-3zm.339844 2h29c.550781 0 1 .449219 1 1v15h-42v-4h9c1.652344 0 3-1.347656 3-3zm-2 .496094v8.503906c0 .550781-.449219 1-1 1h-8.496094c.109375-.164062.234375-.320312.378906-.460938l8.65625-8.65625c.140626-.144531.296876-.273437.460938-.386718zm-10 17.503906h42v10c-.261719 0-.519531.097656-.710938.289062l-11 11c-.390624.390626-.390624 1.03125 0 1.421876l4 4c.390626.390624 1.03125.390624 1.421876 0l2.289062-2.300782v3.589844c-.550781 0-1 .445312-1 1v2c0 .554688.449219 1 1 1v2h-37c-.550781 0-1-.449219-1-1v-11h27c.550781 0 1-.445312 1-1s-.449219-1-1-1h-27zm34.980469 3.996094c-.390625.007812-.753907.246094-.910157.632812l-3.070312 7.679688-3.070312-7.679688c-.207032-.511718-.785157-.765625-1.300782-.558594-.511718.203126-.761718.789063-.554687 1.300782l4 10c.148437.378906.515625.628906.925781.628906s.777344-.25.929688-.628906l4-10c.203124-.511719-.046876-1.097656-.558594-1.300782-.128906-.050781-.261719-.074218-.390625-.074218zm-25.980469.003906c-1.652344 0-3 1.347656-3 3v6c0 1.652344 1.347656 3 3 3h2c1.652344 0 3-1.347656 3-3 0-.554688-.449219-1-1-1s-1 .445312-1 1c0 .550781-.449219 1-1 1h-2c-.550781 0-1-.449219-1-1v-6c0-.550781.449219-1 1-1h2c.550781 0 1 .449219 1 1 0 .554688.449219 1 1 1s1-.445312 1-1c0-1.652344-1.347656-3-3-3zm10 0c-1.652344 0-3 1.347656-3 3v1c0 1.652344 1.347656 3 3 3h2c.550781 0 1 .449219 1 1v1c0 .550781-.449219 1-1 1h-2c-.550781 0-1-.449219-1-1 0-.554688-.449219-1-1-1s-1 .445312-1 1c0 1.652344 1.347656 3 3 3h2c1.652344 0 3-1.347656 3-3v-1c0-1.652344-1.347656-3-3-3h-2c-.550781 0-1-.449219-1-1v-1c0-.550781.449219-1 1-1h2c.550781 0 1 .449219 1 1 0 .554688.449219 1 1 1s1-.445312 1-1c0-1.652344-1.347656-3-3-3zm23 8.410156 9.589844 9.589844-2.589844 2.589844-3.289062-3.300782c-.289063-.28125-.722657-.367187-1.089844-.207031-.382813.148438-.621094.519531-.621094.917969v14h-4v-14c0-.398438-.238281-.769531-.617188-.917969-.371093-.160156-.804687-.074219-1.09375.207031l-3.289062 3.300782-2.589844-2.589844zm-39 15.589844c-.550781 0-1 .445312-1 1v2c0 .554688.449219 1 1 1s1-.445312 1-1v-2c0-.554688-.449219-1-1-1zm5 0c-.550781 0-1 .445312-1 1v2c0 .554688.449219 1 1 1s1-.445312 1-1v-2c0-.554688-.449219-1-1-1zm5 0c-.550781 0-1 .445312-1 1v2c0 .554688.449219 1 1 1s1-.445312 1-1v-2c0-.554688-.449219-1-1-1zm5 0c-.550781 0-1 .445312-1 1v2c0 .554688.449219 1 1 1s1-.445312 1-1v-2c0-.554688-.449219-1-1-1zm5 0c-.550781 0-1 .445312-1 1v2c0 .554688.449219 1 1 1s1-.445312 1-1v-2c0-.554688-.449219-1-1-1zm5 0c-.550781 0-1 .445312-1 1v2c0 .554688.449219 1 1 1s1-.445312 1-1v-2c0-.554688-.449219-1-1-1zm5 0c-.550781 0-1 .445312-1 1v2c0 .554688.449219 1 1 1s1-.445312 1-1v-2c0-.554688-.449219-1-1-1zm0 0" fill="#003e6b"/></svg>