<?xml version="1.0" encoding="UTF-8"?>
<svg xmlns="http://www.w3.org/2000/svg" xmlns:xlink="http://www.w3.org/1999/xlink" width="512pt" height="512pt" viewBox="0 0 512 512" version="1.1">
<g id="surface1307620">
<path style=" stroke:none;fill-rule:nonzero;fill:rgb(0%,24.313726%,41.960785%);fill-opacity:1;" d="M 248 32 C 164.1875 32 96 100.1875 96 184 C 96 223.78125 118.25 253.5 139.78125 282.25 C 156.96875 305.21875 173.15625 327.09375 176 352 L 176 408 C 176 436.15625 196.90625 459.46875 224 463.375 L 224 472 C 224 480.8125 231.1875 488 240 488 L 256 488 C 264.8125 488 272 480.8125 272 472 L 272 463.375 C 299.09375 459.46875 320 436.15625 320 408 L 320 359.1875 C 320.125 331.21875 337.78125 307.4375 356.5 282.25 C 377.90625 253.5 400 223.78125 400 184 C 400 100.1875 331.8125 32 248 32 Z M 248 48 C 323 48 384 109 384 184 C 384 218.5 363.5 246.0625 343.6875 272.71875 C 325.75 296.84375 307.25 321.6875 304.375 351.5 L 256 351.5 L 256 328 C 256 323.59375 252.40625 320 248 320 C 243.59375 320 240 323.59375 240 328 L 240 351.53125 L 192.21875 351.53125 C 189.3125 321.71875 170.65625 296.8125 152.59375 272.65625 C 132.625 246 112 218.46875 112 184 C 112 109 173 48 248 48 Z M 246.90625 71.96875 C 225.53125 72.15625 204.65625 78.4375 186.5 90.375 C 182.8125 92.78125 181.8125 97.75 184.25 101.4375 C 185.78125 103.78125 188.3125 105.03125 190.90625 105.03125 C 192.4375 105.03125 193.9375 104.625 195.3125 103.71875 C 216.03125 90.09375 240.9375 85.09375 265.46875 89.59375 C 269.84375 90.375 274 87.5 274.78125 83.15625 C 275.59375 78.8125 272.71875 74.65625 268.375 73.875 C 261.21875 72.53125 254.0625 71.90625 246.90625 71.96875 Z M 302.875 87 C 299.8125 86.5625 296.59375 87.96875 294.875 90.78125 C 292.59375 94.59375 293.8125 99.5 297.625 101.78125 C 304.21875 105.78125 310.375 110.59375 315.875 116.125 C 317.4375 117.6875 319.5 118.46875 321.53125 118.46875 C 323.59375 118.46875 325.65625 117.6875 327.21875 116.125 C 330.34375 113 330.34375 107.9375 327.21875 104.8125 C 320.75 98.375 313.59375 92.75 305.875 88.09375 C 304.9375 87.53125 303.90625 87.15625 302.875 87 Z M 40.1875 92.09375 C 37.0625 92.15625 34.125 94.03125 32.875 97.09375 C 31.25 101.1875 33.21875 105.875 37.3125 107.5 L 67 119.5 C 67.96875 119.90625 68.96875 120.09375 69.96875 120.09375 C 73.125 120.09375 76.15625 118.1875 77.40625 115.09375 C 79.0625 110.96875 77.0625 106.3125 72.96875 104.65625 L 43.3125 92.65625 C 42.28125 92.25 41.21875 92.0625 40.1875 92.09375 Z M 455.8125 92.09375 C 454.78125 92.0625 453.71875 92.25 452.6875 92.65625 L 423.03125 104.65625 C 418.9375 106.3125 416.9375 110.96875 418.59375 115.09375 C 419.84375 118.1875 422.875 120.09375 426.03125 120.09375 C 427.03125 120.09375 428.03125 119.90625 429 119.5 L 458.6875 107.5 C 462.78125 105.875 464.75 101.1875 463.125 97.09375 C 461.875 94.03125 458.9375 92.15625 455.8125 92.09375 Z M 8 176 C 3.59375 176 0 179.59375 0 184 C 0 188.40625 3.59375 192 8 192 L 56 192 C 60.40625 192 64 188.40625 64 184 C 64 179.59375 60.40625 176 56 176 Z M 440 176 C 435.59375 176 432 179.59375 432 184 C 432 188.40625 435.59375 192 440 192 L 488 192 C 492.40625 192 496 188.40625 496 184 C 496 179.59375 492.40625 176 488 176 Z M 216 208 C 213.96875 208 211.90625 208.78125 210.34375 210.34375 C 207.21875 213.46875 207.21875 218.53125 210.34375 221.65625 L 226.34375 237.65625 C 227.90625 239.21875 229.9375 240 232 240 C 234.0625 240 236.09375 239.21875 237.65625 237.65625 C 240.78125 234.53125 240.78125 229.46875 237.65625 226.34375 L 221.65625 210.34375 C 220.09375 208.78125 218.03125 208 216 208 Z M 280 208 C 277.96875 208 275.90625 208.78125 274.34375 210.34375 L 242.34375 242.34375 C 240.84375 243.84375 240 245.875 240 248 L 240 296 C 240 300.40625 243.59375 304 248 304 C 252.40625 304 256 300.40625 256 296 L 256 251.3125 L 285.65625 221.65625 C 288.78125 218.53125 288.78125 213.46875 285.65625 210.34375 C 284.09375 208.78125 282.03125 208 280 208 Z M 70.125 247.90625 C 69.0625 247.90625 68 248.09375 67 248.5 L 37.3125 260.5 C 33.21875 262.125 31.25 266.8125 32.875 270.90625 C 34.15625 274.03125 37.15625 275.90625 40.3125 275.90625 C 41.3125 275.90625 42.34375 275.71875 43.3125 275.34375 L 72.96875 263.34375 C 77.0625 261.6875 79.0625 257.03125 77.40625 252.90625 C 76.15625 249.84375 73.21875 247.96875 70.125 247.90625 Z M 425.875 247.9375 C 422.78125 248 419.84375 249.875 418.59375 252.9375 C 416.9375 257.03125 418.9375 261.71875 423.03125 263.375 L 452.6875 275.34375 C 453.65625 275.75 454.6875 275.90625 455.6875 275.90625 C 458.84375 275.90625 461.84375 274.03125 463.125 270.90625 C 464.75 266.8125 462.78125 262.15625 458.6875 260.5 L 429 248.5 C 428 248.09375 426.9375 247.90625 425.875 247.9375 Z M 192 368 L 304 368 L 304 376.9375 L 192 390.9375 Z M 304 393.0625 L 304 408 C 304 408.3125 303.90625 408.625 303.90625 408.96875 L 222.65625 419.125 C 218.28125 419.65625 215.1875 423.65625 215.75 428.03125 C 216.25 432.09375 219.6875 435.03125 223.65625 435.03125 C 224 435.03125 224.3125 435.03125 224.65625 434.96875 L 299.75 425.59375 C 293.21875 438.8125 279.71875 448 264 448 L 232 448 C 209.9375 448 192 430.0625 192 408 L 192 407.0625 Z M 240 464 L 256 464 L 256 472 L 240 472 Z M 240 464 "/>
</g>
</svg>
