<svg height="512pt" viewBox="0 0 512 512" width="512pt" xmlns="http://www.w3.org/2000/svg"><path d="m248 32c-83.8125 0-152 68.1875-152 152 0 39.78125 22.25 69.5 43.78125 98.25 17.1875 22.96875 33.375 44.84375 36.21875 69.75v56c0 28.15625 20.90625 51.46875 48 55.375v8.625c0 8.8125 7.1875 16 16 16h16c8.8125 0 16-7.1875 16-16v-8.625c27.09375-3.90625 48-27.21875 48-55.375v-48.8125c.125-27.96875 17.78125-51.75 36.5-76.9375 21.40625-28.75 43.5-58.46875 43.5-98.25 0-83.8125-68.1875-152-152-152zm0 16c75 0 136 61 136 136 0 34.5-20.5 62.0625-40.3125 88.71875-17.9375 24.125-36.4375 48.96875-39.3125 78.78125h-48.375v-23.5c0-4.40625-3.59375-8-8-8s-8 3.59375-8 8v23.53125h-47.78125c-2.90625-29.8125-21.5625-54.71875-39.625-78.875-19.96875-26.65625-40.59375-54.1875-40.59375-88.65625 0-75 61-136 136-136zm-1.09375 23.96875c-21.375.1875-42.25 6.46875-60.40625 18.40625-3.6875 2.40625-4.6875 7.375-2.25 11.0625 1.53125 2.34375 4.0625 3.59375 6.65625 3.59375 1.53125 0 3.03125-.40625 4.40625-1.3125 20.71875-13.625 45.625-18.625 70.15625-14.125 4.375.78125 8.53125-2.09375 9.3125-6.4375.8125-4.34375-2.0625-8.5-6.40625-9.28125-7.15625-1.34375-14.3125-1.96875-21.46875-1.90625zm55.96875 15.03125c-3.0625-.4375-6.28125.96875-8 3.78125-2.28125 3.8125-1.0625 8.71875 2.75 11 6.59375 4 12.75 8.8125 18.25 14.34375 1.5625 1.5625 3.625 2.34375 5.65625 2.34375 2.0625 0 4.125-.78125 5.6875-2.34375 3.125-3.125 3.125-8.1875 0-11.3125-6.46875-6.4375-13.625-12.0625-21.34375-16.71875-.9375-.5625-1.96875-.9375-3-1.09375zm-262.6875 5.09375c-3.125.0625-6.0625 1.9375-7.3125 5-1.625 4.09375.34375 8.78125 4.4375 10.40625l29.6875 12c.96875.40625 1.96875.59375 2.96875.59375 3.15625 0 6.1875-1.90625 7.4375-5 1.65625-4.125-.34375-8.78125-4.4375-10.4375l-29.65625-12c-1.03125-.40625-2.09375-.59375-3.125-.5625zm415.625 0c-1.03125-.03125-2.09375.15625-3.125.5625l-29.65625 12c-4.09375 1.65625-6.09375 6.3125-4.4375 10.4375 1.25 3.09375 4.28125 5 7.4375 5 1 0 2-.1875 2.96875-.59375l29.6875-12c4.09375-1.625 6.0625-6.3125 4.4375-10.40625-1.25-3.0625-4.1875-4.9375-7.3125-5zm-447.8125 83.90625c-4.40625 0-8 3.59375-8 8s3.59375 8 8 8h48c4.40625 0 8-3.59375 8-8s-3.59375-8-8-8zm432 0c-4.40625 0-8 3.59375-8 8s3.59375 8 8 8h48c4.40625 0 8-3.59375 8-8s-3.59375-8-8-8zm-224 32c-2.03125 0-4.09375.78125-5.65625 2.34375-3.125 3.125-3.125 8.1875 0 11.3125l16 16c1.5625 1.5625 3.59375 2.34375 5.65625 2.34375s4.09375-.78125 5.65625-2.34375c3.125-3.125 3.125-8.1875 0-11.3125l-16-16c-1.5625-1.5625-3.625-2.34375-5.65625-2.34375zm64 0c-2.03125 0-4.09375.78125-5.65625 2.34375l-32 32c-1.5 1.5-2.34375 3.53125-2.34375 5.65625v48c0 4.40625 3.59375 8 8 8s8-3.59375 8-8v-44.6875l29.65625-29.65625c3.125-3.125 3.125-8.1875 0-11.3125-1.5625-1.5625-3.625-2.34375-5.65625-2.34375zm-209.875 39.90625c-1.0625 0-2.125.1875-3.125.59375l-29.6875 12c-4.09375 1.625-6.0625 6.3125-4.4375 10.40625 1.28125 3.125 4.28125 5 7.4375 5 1 0 2.03125-.1875 3-.5625l29.65625-12c4.09375-1.65625 6.09375-6.3125 4.4375-10.4375-1.25-3.0625-4.1875-4.9375-7.28125-5zm355.75.03125c-3.09375.0625-6.03125 1.9375-7.28125 5-1.65625 4.09375.34375 8.78125 4.4375 10.4375l29.65625 11.96875c.96875.40625 2 .5625 3 .5625 3.15625 0 6.15625-1.875 7.4375-5 1.625-4.09375-.34375-8.75-4.4375-10.40625l-29.6875-12c-1-.40625-2.0625-.59375-3.125-.5625zm-233.875 120.0625h112v8.9375l-112 14zm112 25.0625v14.9375c0 .3125-.09375.625-.09375.96875l-81.25 10.15625c-4.375.53125-7.46875 4.53125-6.90625 8.90625.5 4.0625 3.9375 7 7.90625 7 .34375 0 .65625 0 1-.0625l75.09375-9.375c-6.53125 13.21875-20.03125 22.40625-35.75 22.40625h-32c-22.0625 0-40-17.9375-40-40v-.9375zm-64 70.9375h16v8h-16zm0 0" fill="#003e6b"/></svg>