<svg height="64" viewBox="0 0 64 64" width="64" xmlns="http://www.w3.org/2000/svg"><path d="m23.65625 4c-1.335938 0-2.589844.519531-3.535156 1.464844l-8.65625 8.65625c-.945313.945312-1.464844 2.199218-1.464844 3.535156v39.34375c0 1.652344 1.347656 3 3 3h40c1.652344 0 3-1.347656 3-3v-50c0-1.652344-1.347656-3-3-3zm.34375 2h29c.550781 0 1 .449219 1 1v50c0 .550781-.449219 1-1 1h-40c-.550781 0-1-.449219-1-1v-39h9c1.652344 0 3-1.347656 3-3zm-2 .5v8.5c0 .550781-.449219 1-1 1h-8.5c.105469-.164062.234375-.320312.378906-.464844l8.65625-8.65625c.144532-.140625.300782-.265625.464844-.378906zm-1 13.5c-.550781 0-1 .449219-1 1s.449219 1 1 1h16c.550781 0 1-.449219 1-1s-.449219-1-1-1zm20 0c-.550781 0-1 .449219-1 1s.449219 1 1 1h4c.550781 0 1-.449219 1-1s-.449219-1-1-1zm-20 6c-.550781 0-1 .449219-1 1v12c0 .550781.449219 1 1 1h24c.550781 0 1-.449219 1-1v-12c0-.550781-.449219-1-1-1zm1 2h2v4h-2zm4 0h8v4h-8zm10 0h8v4h-8zm-14 6h2v4h-2zm4 0h8v4h-8zm10 0h8v4h-8zm1 10c-.550781 0-1 .449219-1 1s.449219 1 1 1h8c.550781 0 1-.449219 1-1s-.449219-1-1-1zm-22 6c-.550781 0-1 .449219-1 1v2c0 .550781.449219 1 1 1s1-.449219 1-1v-2c0-.550781-.449219-1-1-1zm5 0c-.550781 0-1 .449219-1 1v2c0 .550781.449219 1 1 1s1-.449219 1-1v-2c0-.550781-.449219-1-1-1zm5 0c-.550781 0-1 .449219-1 1v2c0 .550781.449219 1 1 1s1-.449219 1-1v-2c0-.550781-.449219-1-1-1zm5 0c-.550781 0-1 .449219-1 1v2c0 .550781.449219 1 1 1s1-.449219 1-1v-2c0-.550781-.449219-1-1-1zm5 0c-.550781 0-1 .449219-1 1v2c0 .550781.449219 1 1 1s1-.449219 1-1v-2c0-.550781-.449219-1-1-1zm5 0c-.550781 0-1 .449219-1 1v2c0 .550781.449219 1 1 1s1-.449219 1-1v-2c0-.550781-.449219-1-1-1zm5 0c-.550781 0-1 .449219-1 1v2c0 .550781.449219 1 1 1s1-.449219 1-1v-2c0-.550781-.449219-1-1-1zm5 0c-.550781 0-1 .449219-1 1v2c0 .550781.449219 1 1 1s1-.449219 1-1v-2c0-.550781-.449219-1-1-1zm0 0" fill="#003e6b"/></svg>