<svg height="512pt" viewBox="0 0 512 512" width="512pt" xmlns="http://www.w3.org/2000/svg"><path d="m199.953125 47.921875c-.367187 0-.730469.027344-1.09375.078125h-36c-19.242187 0-37.847656 6.941406-52.390625 19.546875l-99.703125 86.40625c-3.175781 2.746094-3.6875 7.480469-1.171875 10.84375l72 96c1.296875 1.734375 3.246094 2.871094 5.394531 3.144531 2.152344.273438 4.320313-.335937 6.011719-1.691406l27-21.59375v223.34375c0 4.417969 3.582031 8 8 8h264c4.417969 0 8-3.582031 8-8v-223.34375l27 21.59375c1.691406 1.355469 3.859375 1.964844 6.011719 1.691406 2.148437-.273437 4.097656-1.410156 5.394531-3.144531l72-96c2.515625-3.363281 2.003906-8.097656-1.171875-10.84375l-99.703125-86.40625c-14.542969-12.605469-33.148438-19.546875-52.390625-19.546875h-36.71875c-.675781-.035156-1.351563.019531-2.015625.15625-.015625.003906-.03125.011719-.046875.015625-.226563.046875-.449219.105469-.671875.171875-.03125.011719-.0625.019531-.09375.03125-.738281.230469-1.4375.566406-2.078125 1-.027344.019531-.050781.042969-.078125.0625-.183594.121094-.359375.253906-.53125.390625-9.195312 7.59375-30.589844 14.171875-54.90625 14.171875s-45.710938-6.578125-54.90625-14.171875c-1.4375-1.222656-3.257812-1.894531-5.140625-1.90625zm-37.09375 16.078125h32.515625l21.703125 37.59375c1.367187 2.597656 4.042969 4.238281 6.976563 4.273438 2.933593.039062 5.652343-1.53125 7.085937-4.09375 1.433594-2.558594 1.347656-5.699219-.21875-8.179688l-10.921875-18.921875c11.761719 3.503906 25.386719 5.328125 40 5.328125 14.59375 0 28.199219-1.820312 39.953125-5.3125l-40.03125 69.171875-13-22.53125c-1.34375-2.628906-4.03125-4.304687-6.984375-4.355469-2.957031-.050781-5.699219 1.527344-7.132812 4.113282-1.433594 2.582031-1.332032 5.746093.273437 8.226562l19.90625 34.53125c1.429687 2.476562 4.070313 4 6.929687 4 2.859376 0 5.5-1.523438 6.929688-4l57.765625-99.84375h32.53125c15.394531 0 30.285156 5.554688 41.921875 15.640625l50.421875 43.703125-47.890625 63.859375c-2.648438 3.539063-1.929688 8.554687 1.609375 11.203125s8.554687 1.929688 11.203125-1.609375l47.203125-62.953125 31.515625 27.3125-62.578125 83.4375-33.546875-26.84375c-2.402344-1.921875-5.691406-2.296875-8.464844-.964844-2.773437 1.332032-4.535156 4.136719-4.535156 7.214844v232h-248v-232c0-3.078125-1.761719-5.882812-4.535156-7.214844-2.773438-1.332031-6.0625-.957031-8.464844.964844l-33.546875 26.84375-62.578125-83.4375 31.515625-27.3125 47.203125 62.953125c2.648438 3.539063 7.664062 4.257813 11.203125 1.609375s4.257813-7.664062 1.609375-11.203125l-47.890625-63.859375 50.421875-43.703125c11.636719-10.085937 26.527344-15.640625 41.921875-15.640625zm53.140625 152c-.320312 0-.578125.148438-.890625.1875-.550781.0625-1.082031.136719-1.609375.3125s-.996094.421875-1.46875.703125c-.273438.160156-.570312.214844-.828125.40625l-32 24c-3.535156 2.648437-4.257813 7.667969-1.609375 11.203125 1.566406 2.097656 3.988281 3.203125 6.421875 3.203125 1.664063 0 3.339844-.53125 4.78125-1.609375l19.203125-14.40625v88h-16c-4.414062 0-8 3.585938-8 8s3.585938 8 8 8h48c4.414062 0 8-3.585938 8-8s-3.585938-8-8-8h-16v-104c0-.320312-.148438-.59375-.1875-.90625-.0625-.542969-.136719-1.066406-.3125-1.59375s-.421875-.996094-.703125-1.46875c-.160156-.273438-.214844-.570312-.40625-.828125-.113281-.152344-.292969-.230469-.421875-.375-.359375-.414063-.761719-.742187-1.203125-1.078125-.40625-.3125-.792969-.605469-1.234375-.828125-.433594-.214844-.886719-.332031-1.359375-.46875-.542969-.160156-1.082031-.289063-1.640625-.328125-.183594-.023438-.339844-.125-.53125-.125zm64 0c-13.199219 0-24 10.800781-24 24v80c0 13.199219 10.800781 24 24 24h32c13.199219 0 24-10.800781 24-24v-80c0-13.199219-10.800781-24-24-24zm0 16h32c4.398438 0 8 3.601562 8 8v80c0 4.398438-3.601562 8-8 8h-32c-4.398438 0-8-3.601562-8-8v-80c0-4.398438 3.601562-8 8-8zm-120 176c-4.414062 0-8 3.585938-8 8v16c0 4.414062 3.585938 8 8 8s8-3.585938 8-8v-16c0-4.414062-3.585938-8-8-8zm40 0c-4.414062 0-8 3.585938-8 8v16c0 4.414062 3.585938 8 8 8s8-3.585938 8-8v-16c0-4.414062-3.585938-8-8-8zm40 0c-4.414062 0-8 3.585938-8 8v16c0 4.414062 3.585938 8 8 8s8-3.585938 8-8v-16c0-4.414062-3.585938-8-8-8zm40 0c-4.414062 0-8 3.585938-8 8v16c0 4.414062 3.585938 8 8 8s8-3.585938 8-8v-16c0-4.414062-3.585938-8-8-8zm40 0c-4.414062 0-8 3.585938-8 8v16c0 4.414062 3.585938 8 8 8s8-3.585938 8-8v-16c0-4.414062-3.585938-8-8-8zm40 0c-4.414062 0-8 3.585938-8 8v16c0 4.414062 3.585938 8 8 8s8-3.585938 8-8v-16c0-4.414062-3.585938-8-8-8zm0 0" fill="#003e6b"/></svg>