<svg clip-rule="evenodd" fill-rule="evenodd" stroke-linejoin="round" stroke-miterlimit="2" viewBox="0 0 100 100" xmlns="http://www.w3.org/2000/svg"><path d="m79.167 0h-58.334c-11.504 0-20.833 9.329-20.833 20.833v58.334c0 11.504 9.329 20.833 20.833 20.833h58.334c11.508 0 20.833-9.329 20.833-20.833v-58.334c0-11.504-9.325-20.833-20.833-20.833zm-45.834 79.167h-12.5v-45.834h12.5zm-6.25-51.117c-4.025 0-7.291-3.292-7.291-7.35s3.266-7.35 7.291-7.35 7.292 3.292 7.292 7.35-3.262 7.35-7.292 7.35zm56.25 51.117h-12.5v-23.35c0-14.034-16.666-12.971-16.666 0v23.35h-12.5v-45.834h12.5v7.355c5.816-10.775 29.166-11.571 29.166 10.316z" fill="#fff" fill-rule="nonzero"/></svg>