<svg height="512pt" viewBox="0 0 512 512" width="512pt" xmlns="http://www.w3.org/2000/svg"><path d="m216 16c-26.46875 0-48 21.53125-48 48s21.53125 48 48 48 48-21.53125 48-48-21.53125-48-48-48zm0 14.0625c18.71875 0 33.90625 15.21875 33.90625 33.9375s-15.1875 33.90625-33.90625 33.90625-33.90625-15.1875-33.90625-33.90625 15.1875-33.9375 33.90625-33.9375zm41.625 86.25c-16.3125-.21875-32.6875 1.96875-48.375 6.4375-13.71875 3.90625-26.65625 9.90625-38.5 17.8125l-25.28125 16.84375c-1.875 1.25-4.21875 1.65625-6.375 1.09375l-41.625-10.375c-12.84375-3.1875-25.875 4.625-29.09375 17.46875l-.75 2.90625c-2.90625 11.59375 3.28125 23.65625 14.375 28.125l44.40625 17.75c16.53125 6.625 35.40625 4.9375 50.5-4.5l12.34375-7.71875 55.34375 255.03125c2.875 13.21875 14.78125 22.8125 28.34375 22.8125 8.15625 0 15.96875-3.46875 21.4375-9.5 5.46875-6 8.1875-14.09375 7.40625-22.21875l-10.3125-108.3125 7 12.1875c8.4375 14.6875 22.90625 24.65625 39.65625 27.375l60.03125 9.6875c13.46875 2.15625 26.40625-5.15625 31.5-17.84375l.375-.90625c3.21875-8.0625 2.6875-17.03125-1.4375-24.625-4.15625-7.59375-11.40625-12.90625-19.875-14.5625l-48.84375-9.5625c-2.5-.5-4.625-2.15625-5.71875-4.4375l-20.25-42.65625c-4.1875-8.875-7.5625-18.21875-10-27.71875l-15.8125-62.125 85.90625 6.21875c11.75.84375 22.1875-6.75 25.03125-18.125l.59375-2.5c1.625-6.375.5-13.21875-3.03125-18.75s-9.28125-9.4375-15.71875-10.65625l-114.03125-21.71875c-9.625-1.84375-19.40625-2.8125-29.21875-2.9375zm-.1875 16c8.875.125 17.6875 1 26.40625 2.65625l114.03125 21.71875c2.15625.40625 4.03125 1.6875 5.21875 3.5625 1.1875 1.84375 1.5625 4.0625 1.03125 6.25l-.625 2.5c-.9375 3.78125-4.5625 6.375-8.34375 6.03125l-97-7.03125c-2.5-.125-5.0625.875-6.6875 2.84375-1.65625 1.96875-2.25 4.625-1.625 7.125l18.53125 72.90625c2.6875 10.5 6.40625 20.8125 11.09375 30.625l20.25 42.625c3.25 6.84375 9.625 11.8125 17.03125 13.25l48.875 9.59375c3.8125.75 7.03125 3.125 8.875 6.53125 1.875 3.40625 2.125 7.40625.6875 11l-.40625.96875c-2.25 5.65625-8.03125 8.9375-14.0625 7.96875l-60.09375-9.6875c-11.9375-1.9375-22.25-9.0625-28.28125-19.5625l-25.4375-44.1875c-1.875-3.25-5.75-4.78125-9.34375-3.625s-5.90625 4.65625-5.53125 8.375l13.8125 145.0625c.34375 3.6875-.84375 7.21875-3.3125 9.9375-2.5 2.75-5.90625 4.25-9.65625 4.25-6.03125 0-11.375-4.28125-12.625-10.21875l-57.75-266.15625c-.5625-2.53125-2.34375-4.65625-4.75-5.65625-1-.4375-2.03125-.625-3.09375-.625-1.46875 0-2.9375.40625-4.25 1.1875l-22 13.78125c-10.78125 6.75-24.25 7.9375-36.0625 3.21875l-44.4375-17.78125c-3.6875-1.46875-5.71875-5.46875-4.78125-9.375l.75-2.90625c1.0625-4.28125 5.40625-6.90625 9.71875-5.84375l41.59375 10.40625c6.5625 1.65625 13.53125.4375 19.125-3.28125l25.28125-16.875c10.46875-6.96875 21.90625-12.28125 34.03125-15.75 14.21875-4.0625 29.03125-6 43.8125-5.8125zm-169.4375 115.6875c-4.4375 0-8 3.59375-8 8v16c0 4.40625 3.5625 8 8 8s8-3.59375 8-8v-16c0-4.40625-3.5625-8-8-8zm40 0c-4.4375 0-8 3.59375-8 8v16c0 4.40625 3.5625 8 8 8s8-3.59375 8-8v-16c0-4.40625-3.5625-8-8-8zm40 0c-4.4375 0-8 3.59375-8 8v16c0 4.40625 3.5625 8 8 8s8-3.59375 8-8v-16c0-4.40625-3.5625-8-8-8zm208 0c-4.4375 0-8 3.59375-8 8v16c0 4.40625 3.5625 8 8 8s8-3.59375 8-8v-16c0-4.40625-3.5625-8-8-8zm40 0c-4.4375 0-8 3.59375-8 8v16c0 4.40625 3.5625 8 8 8s8-3.59375 8-8v-16c0-4.40625-3.5625-8-8-8zm40 0c-4.4375 0-8 3.59375-8 8v16c0 4.40625 3.5625 8 8 8s8-3.59375 8-8v-16c0-4.40625-3.5625-8-8-8zm-304 136c-26.46875 0-48 21.53125-48 48s21.53125 48 48 48 48-21.53125 48-48-21.53125-48-48-48zm0 14.21875c18.625 0 33.78125 15.15625 33.78125 33.78125s-15.15625 33.78125-33.78125 33.78125-33.78125-15.15625-33.78125-33.78125 15.15625-33.78125 33.78125-33.78125zm0 0" fill="#003e6b"/></svg>