<?xml version="1.0" encoding="UTF-8"?>
<svg xmlns="http://www.w3.org/2000/svg" xmlns:xlink="http://www.w3.org/1999/xlink" width="512pt" height="512pt" viewBox="0 0 512 512" version="1.1">
<g id="surface4492124">
<path style=" stroke:none;fill-rule:nonzero;fill:rgb(0%,24.313726%,41.960785%);fill-opacity:1;" d="M 224 48 C 215.1875 48 208 55.1875 208 64 L 208 96 L 24 96 C 10.8125 96 0 106.8125 0 120 L 0 424 C 0 437.1875 10.8125 448 24 448 L 488 448 C 501.1875 448 512 437.1875 512 424 L 512 120 C 512 106.8125 501.1875 96 488 96 L 304 96 L 304 64 C 304 55.1875 296.8125 48 288 48 Z M 224 64 L 288 64 L 288 123.4375 L 256 142.625 L 224 123.4375 Z M 24 112 L 208 112 L 208 123.4375 C 208 129.03125 210.96875 134.3125 215.75 137.21875 L 247.75 156.40625 C 250.3125 157.9375 253.125 158.625 256 158.625 C 258.875 158.625 261.6875 157.9375 264.25 156.40625 L 296.25 137.21875 C 301.03125 134.3125 304 129.03125 304 123.4375 L 304 112 L 488 112 C 492.40625 112 496 115.59375 496 120 L 496 368 C 491.1875 368 488 371.5625 488 376 L 488 392 C 488 396.4375 491.1875 400 496 400 L 496 424 C 496 428.40625 492.40625 432 488 432 L 24 432 C 19.59375 432 16 428.40625 16 424 L 16 400 C 20.8125 400 24 396.4375 24 392 L 24 376 C 24 371.5625 20.8125 368 16 368 L 16 120 C 16 115.59375 19.59375 112 24 112 Z M 152 160 C 121.125 160 96 185.125 96 216 L 96 232 C 96 244.875 100.3125 258.40625 107.84375 269.6875 C 82.8125 278.71875 61.4375 298.09375 48.8125 324.5625 C 46.875 328.5625 48.5625 333.28125 52.5625 335.21875 C 56.5625 337.125 61.28125 335.4375 63.1875 331.4375 C 75.03125 306.71875 95.53125 289.28125 119.28125 282.875 C 128.3125 290.875 139.59375 296 152 296 C 164.40625 296 175.6875 290.875 184.71875 282.875 C 208.46875 289.28125 228.96875 306.71875 240.78125 331.4375 C 242.15625 334.3125 245.03125 336 248 336 C 249.1875 336 250.3125 335.75 251.4375 335.21875 C 255.4375 333.28125 257.125 328.5625 255.21875 324.5625 C 242.5625 298.09375 221.1875 278.71875 196.15625 269.6875 C 203.6875 258.40625 208 244.875 208 232 L 208 216 C 208 185.125 182.875 160 152 160 Z M 152 176 C 174.09375 176 192 193.90625 192 216 L 192 232 C 192 243.375 187.1875 255.90625 179.375 265.28125 C 172.25 274 162.5625 280 152 280 C 141.4375 280 131.75 274 124.625 265.28125 C 116.8125 255.90625 112 243.375 112 232 L 112 216 C 112 193.90625 129.90625 176 152 176 Z M 280 208 C 275.5625 208 272 211.5625 272 216 C 272 220.4375 275.5625 224 280 224 L 424 224 C 428.4375 224 432 220.4375 432 216 C 432 211.5625 428.4375 208 424 208 Z M 280 240 C 275.5625 240 272 243.5625 272 248 C 272 252.4375 275.5625 256 280 256 L 336 256 C 340.4375 256 344 252.4375 344 248 C 344 243.5625 340.4375 240 336 240 Z M 368 240 C 363.5625 240 360 243.5625 360 248 C 360 252.4375 363.5625 256 368 256 L 384 256 C 388.4375 256 392 252.4375 392 248 C 392 243.5625 388.4375 240 384 240 Z M 280 272 C 275.5625 272 272 275.5625 272 280 C 272 284.4375 275.5625 288 280 288 L 408 288 C 412.4375 288 416 284.4375 416 280 C 416 275.5625 412.4375 272 408 272 Z M 56 368 C 51.1875 368 48 371.5625 48 376 L 48 392 C 48 396.4375 51.1875 400 56 400 C 60.8125 400 64 396.4375 64 392 L 64 376 C 64 371.59375 60.8125 368 56 368 Z M 96 368 C 91.1875 368 88 371.5625 88 376 L 88 392 C 88 396.4375 91.1875 400 96 400 C 100.8125 400 104 396.4375 104 392 L 104 376 C 104 371.59375 100.8125 368 96 368 Z M 136 368 C 131.1875 368 128 371.5625 128 376 L 128 392 C 128 396.4375 131.1875 400 136 400 C 140.8125 400 144 396.4375 144 392 L 144 376 C 144 371.59375 140.8125 368 136 368 Z M 176 368 C 171.1875 368 168 371.5625 168 376 L 168 392 C 168 396.4375 171.1875 400 176 400 C 180.8125 400 184 396.4375 184 392 L 184 376 C 184 371.59375 180.8125 368 176 368 Z M 216 368 C 211.1875 368 208 371.5625 208 376 L 208 392 C 208 396.4375 211.1875 400 216 400 C 220.8125 400 224 396.4375 224 392 L 224 376 C 224 371.59375 220.8125 368 216 368 Z M 256 368 C 251.1875 368 248 371.5625 248 376 L 248 392 C 248 396.4375 251.1875 400 256 400 C 260.8125 400 264 396.4375 264 392 L 264 376 C 264 371.59375 260.8125 368 256 368 Z M 296 368 C 291.1875 368 288 371.5625 288 376 L 288 392 C 288 396.4375 291.1875 400 296 400 C 300.8125 400 304 396.4375 304 392 L 304 376 C 304 371.59375 300.8125 368 296 368 Z M 336 368 C 331.1875 368 328 371.5625 328 376 L 328 392 C 328 396.4375 331.1875 400 336 400 C 340.8125 400 344 396.4375 344 392 L 344 376 C 344 371.59375 340.8125 368 336 368 Z M 376 368 C 371.1875 368 368 371.5625 368 376 L 368 392 C 368 396.4375 371.1875 400 376 400 C 380.8125 400 384 396.4375 384 392 L 384 376 C 384 371.59375 380.8125 368 376 368 Z M 416 368 C 411.1875 368 408 371.5625 408 376 L 408 392 C 408 396.4375 411.1875 400 416 400 C 420.8125 400 424 396.4375 424 392 L 424 376 C 424 371.59375 420.8125 368 416 368 Z M 456 368 C 451.1875 368 448 371.5625 448 376 L 448 392 C 448 396.4375 451.1875 400 456 400 C 460.8125 400 464 396.4375 464 392 L 464 376 C 464 371.59375 460.8125 368 456 368 Z M 456 368 "/>
</g>
</svg>
