<svg height="512pt" viewBox="0 0 512 512" width="512pt" xmlns="http://www.w3.org/2000/svg"><path d="m224 48c-8.8125 0-16 7.1875-16 16v32h-184c-13.1875 0-24 10.8125-24 24v304c0 13.1875 10.8125 24 24 24h464c13.1875 0 24-10.8125 24-24v-304c0-13.1875-10.8125-24-24-24h-184v-32c0-8.8125-7.1875-16-16-16zm0 16h64v59.4375l-32 19.1875-32-19.1875zm-200 48h184v11.4375c0 5.59375 2.96875 10.875 7.75 13.78125l32 19.1875c2.5625 1.53125 5.375 2.21875 8.25 2.21875s5.6875-.6875 8.25-2.21875l32-19.1875c4.78125-2.90625 7.75-8.1875 7.75-13.78125v-11.4375h184c4.40625 0 8 3.59375 8 8v248c-4.8125 0-8 3.5625-8 8v16c0 4.4375 3.1875 8 8 8v24c0 4.40625-3.59375 8-8 8h-464c-4.40625 0-8-3.59375-8-8v-24c4.8125 0 8-3.5625 8-8v-16c0-4.4375-3.1875-8-8-8v-248c0-4.40625 3.59375-8 8-8zm128 48c-30.875 0-56 25.125-56 56v16c0 12.875 4.3125 26.40625 11.84375 37.6875-25.03125 9.03125-46.40625 28.40625-59.03125 54.875-1.9375 4-.25 8.71875 3.75 10.65625 4 1.90625 8.71875.21875 10.625-3.78125 11.84375-24.71875 32.34375-42.15625 56.09375-48.5625 9.03125 8 20.3125 13.125 32.71875 13.125s23.6875-5.125 32.71875-13.125c23.75 6.40625 44.25 23.84375 56.0625 48.5625 1.375 2.875 4.25 4.5625 7.21875 4.5625 1.1875 0 2.3125-.25 3.4375-.78125 4-1.9375 5.6875-6.65625 3.78125-10.65625-12.65625-26.46875-34.03125-45.84375-59.0625-54.875 7.53125-11.28125 11.84375-24.8125 11.84375-37.6875v-16c0-30.875-25.125-56-56-56zm0 16c22.09375 0 40 17.90625 40 40v16c0 11.375-4.8125 23.90625-12.625 33.28125-7.125 8.71875-16.8125 14.71875-27.375 14.71875s-20.25-6-27.375-14.71875c-7.8125-9.375-12.625-21.90625-12.625-33.28125v-16c0-22.09375 17.90625-40 40-40zm128 32c-4.4375 0-8 3.5625-8 8s3.5625 8 8 8h144c4.4375 0 8-3.5625 8-8s-3.5625-8-8-8zm0 32c-4.4375 0-8 3.5625-8 8s3.5625 8 8 8h56c4.4375 0 8-3.5625 8-8s-3.5625-8-8-8zm88 0c-4.4375 0-8 3.5625-8 8s3.5625 8 8 8h16c4.4375 0 8-3.5625 8-8s-3.5625-8-8-8zm-88 32c-4.4375 0-8 3.5625-8 8s3.5625 8 8 8h128c4.4375 0 8-3.5625 8-8s-3.5625-8-8-8zm-224 96c-4.8125 0-8 3.5625-8 8v16c0 4.4375 3.1875 8 8 8s8-3.5625 8-8v-16c0-4.40625-3.1875-8-8-8zm40 0c-4.8125 0-8 3.5625-8 8v16c0 4.4375 3.1875 8 8 8s8-3.5625 8-8v-16c0-4.40625-3.1875-8-8-8zm40 0c-4.8125 0-8 3.5625-8 8v16c0 4.4375 3.1875 8 8 8s8-3.5625 8-8v-16c0-4.40625-3.1875-8-8-8zm40 0c-4.8125 0-8 3.5625-8 8v16c0 4.4375 3.1875 8 8 8s8-3.5625 8-8v-16c0-4.40625-3.1875-8-8-8zm40 0c-4.8125 0-8 3.5625-8 8v16c0 4.4375 3.1875 8 8 8s8-3.5625 8-8v-16c0-4.40625-3.1875-8-8-8zm40 0c-4.8125 0-8 3.5625-8 8v16c0 4.4375 3.1875 8 8 8s8-3.5625 8-8v-16c0-4.40625-3.1875-8-8-8zm40 0c-4.8125 0-8 3.5625-8 8v16c0 4.4375 3.1875 8 8 8s8-3.5625 8-8v-16c0-4.40625-3.1875-8-8-8zm40 0c-4.8125 0-8 3.5625-8 8v16c0 4.4375 3.1875 8 8 8s8-3.5625 8-8v-16c0-4.40625-3.1875-8-8-8zm40 0c-4.8125 0-8 3.5625-8 8v16c0 4.4375 3.1875 8 8 8s8-3.5625 8-8v-16c0-4.40625-3.1875-8-8-8zm40 0c-4.8125 0-8 3.5625-8 8v16c0 4.4375 3.1875 8 8 8s8-3.5625 8-8v-16c0-4.40625-3.1875-8-8-8zm40 0c-4.8125 0-8 3.5625-8 8v16c0 4.4375 3.1875 8 8 8s8-3.5625 8-8v-16c0-4.40625-3.1875-8-8-8zm0 0" fill="#003e6b"/></svg>