<svg height="64" viewBox="0 0 64 64" width="64" xmlns="http://www.w3.org/2000/svg"><path d="m28 6c-1.101562 0-2 .898438-2 2v4h-23c-1.648438 0-3 1.351562-3 3v38c0 1.648438 1.351562 3 3 3h58c1.648438 0 3-1.351562 3-3v-38c0-1.648438-1.351562-3-3-3h-23v-4c0-1.101562-.898438-2-2-2zm0 2h8v7.429688l-4 2.398437-4-2.398437zm-25 6h23v1.429688c0 .699218.371094 1.359374.96875 1.722656l4 2.398437c.320312.191407.671875.277344 1.03125.277344s.710938-.085937 1.03125-.277344l4-2.398437c.597656-.363282.96875-1.023438.96875-1.722656v-1.429688h23c.550781 0 1 .449219 1 1v31c-.601562 0-1 .445312-1 1v2c0 .554688.398438 1 1 1v3c0 .550781-.449219 1-1 1h-58c-.550781 0-1-.449219-1-1v-3c.601562 0 1-.445312 1-1v-2c0-.554688-.398438-1-1-1v-31c0-.550781.449219-1 1-1zm16 6c-3.859375 0-7 3.140625-7 7v2c0 1.609375.539062 3.300781 1.480469 4.710938-3.128907 1.128906-5.800781 3.550781-7.378907 6.859374-.242187.5-.03125 1.089844.46875 1.332032.5.238281 1.089844.027344 1.328126-.472656 1.480468-3.089844 4.042968-5.269532 7.011718-6.070313 1.128906 1 2.539063 1.640625 4.089844 1.640625s2.960938-.640625 4.089844-1.640625c2.96875.800781 5.53125 2.980469 7.007812 6.070313.171875.359374.53125.570312.902344.570312.148438 0 .289062-.03125.429688-.097656.5-.242188.710937-.832032.472656-1.332032-1.582032-3.308593-4.253906-5.730468-7.382813-6.859374.941407-1.410157 1.480469-3.101563 1.480469-4.710938v-2c0-3.859375-3.140625-7-7-7zm0 2c2.761719 0 5 2.238281 5 5v2c0 1.421875-.601562 2.988281-1.578125 4.160156-.890625 1.089844-2.101563 1.839844-3.421875 1.839844s-2.53125-.75-3.421875-1.839844c-.976563-1.171875-1.578125-2.738281-1.578125-4.160156v-2c0-2.761719 2.238281-5 5-5zm16 4c-.554688 0-1 .445312-1 1s.445312 1 1 1h18c.554688 0 1-.445312 1-1s-.445312-1-1-1zm0 4c-.554688 0-1 .445312-1 1s.445312 1 1 1h7c.554688 0 1-.445312 1-1s-.445312-1-1-1zm11 0c-.554688 0-1 .445312-1 1s.445312 1 1 1h2c.554688 0 1-.445312 1-1s-.445312-1-1-1zm-11 4c-.554688 0-1 .445312-1 1s.445312 1 1 1h16c.554688 0 1-.445312 1-1s-.445312-1-1-1zm-28 12c-.601562 0-1 .445312-1 1v2c0 .554688.398438 1 1 1s1-.445312 1-1v-2c0-.550781-.398438-1-1-1zm5 0c-.601562 0-1 .445312-1 1v2c0 .554688.398438 1 1 1s1-.445312 1-1v-2c0-.550781-.398438-1-1-1zm5 0c-.601562 0-1 .445312-1 1v2c0 .554688.398438 1 1 1s1-.445312 1-1v-2c0-.550781-.398438-1-1-1zm5 0c-.601562 0-1 .445312-1 1v2c0 .554688.398438 1 1 1s1-.445312 1-1v-2c0-.550781-.398438-1-1-1zm5 0c-.601562 0-1 .445312-1 1v2c0 .554688.398438 1 1 1s1-.445312 1-1v-2c0-.550781-.398438-1-1-1zm5 0c-.601562 0-1 .445312-1 1v2c0 .554688.398438 1 1 1s1-.445312 1-1v-2c0-.550781-.398438-1-1-1zm5 0c-.601562 0-1 .445312-1 1v2c0 .554688.398438 1 1 1s1-.445312 1-1v-2c0-.550781-.398438-1-1-1zm5 0c-.601562 0-1 .445312-1 1v2c0 .554688.398438 1 1 1s1-.445312 1-1v-2c0-.550781-.398438-1-1-1zm5 0c-.601562 0-1 .445312-1 1v2c0 .554688.398438 1 1 1s1-.445312 1-1v-2c0-.550781-.398438-1-1-1zm5 0c-.601562 0-1 .445312-1 1v2c0 .554688.398438 1 1 1s1-.445312 1-1v-2c0-.550781-.398438-1-1-1zm5 0c-.601562 0-1 .445312-1 1v2c0 .554688.398438 1 1 1s1-.445312 1-1v-2c0-.550781-.398438-1-1-1zm0 0" fill="#003e6b"/></svg>