<svg height="64" viewBox="0 0 64 64" width="64" xmlns="http://www.w3.org/2000/svg"><path d="m33 0c-3.859375 0-7 3.140625-7 7v1h-13c-3.859375 0-7 3.140625-7 7v42c0 3.859375 3.140625 7 7 7h18c3.859375 0 7-3.140625 7-7v-1h13c3.859375 0 7-3.140625 7-7v-42c0-3.859375-3.140625-7-7-7zm0 2h18c2.761719 0 5 2.238281 5 5v1h-19c-.554688 0-1 .449219-1 1s.445312 1 1 1h19v34h-18v-29c0-3.859375-3.140625-7-7-7h-3v-1c0-2.761719 2.238281-5 5-5zm4 2c-.554688 0-1 .449219-1 1s.445312 1 1 1h2c.554688 0 1-.449219 1-1s-.445312-1-1-1zm6 0c-.554688 0-1 .449219-1 1s.445312 1 1 1h4c.554688 0 1-.449219 1-1s-.445312-1-1-1zm-30 6h18c2.761719 0 5 2.238281 5 5v1h-28v-1c0-2.761719 2.238281-5 5-5zm4 2c-.554688 0-1 .449219-1 1s.445312 1 1 1h2c.554688 0 1-.449219 1-1s-.445312-1-1-1zm6 0c-.554688 0-1 .449219-1 1s.445312 1 1 1h4c.554688 0 1-.449219 1-1s-.445312-1-1-1zm-15 6h28v34h-28zm4 28c-.554688 0-1 .449219-1 1v2c0 .550781.445312 1 1 1s1-.449219 1-1v-2c0-.550781-.445312-1-1-1zm5 0c-.554688 0-1 .449219-1 1v2c0 .550781.445312 1 1 1s1-.449219 1-1v-2c0-.550781-.445312-1-1-1zm5 0c-.554688 0-1 .449219-1 1v2c0 .550781.445312 1 1 1s1-.449219 1-1v-2c0-.550781-.445312-1-1-1zm5 0c-.554688 0-1 .449219-1 1v2c0 .550781.445312 1 1 1s1-.449219 1-1v-2c0-.550781-.445312-1-1-1zm5 0c-.554688 0-1 .449219-1 1v2c0 .550781.445312 1 1 1s1-.449219 1-1v-2c0-.550781-.445312-1-1-1zm6 0h18v3c0 2.761719-2.238281 5-5 5h-13zm4 2c-1.105469 0-2 .894531-2 2s.894531 2 2 2 2-.894531 2-2-.894531-2-2-2zm-34 6h28v3c0 2.761719-2.238281 5-5 5h-18c-2.761719 0-5-2.238281-5-5zm14 2c-1.105469 0-2 .894531-2 2s.894531 2 2 2 2-.894531 2-2-.894531-2-2-2zm0 0" fill="#003e6b"/></svg>