<svg height="64" viewBox="0 0 64 64" width="64" xmlns="http://www.w3.org/2000/svg"><path d="m26 4c-2.199219 0-5.351562.691406-7.3125 2.007812-3.71875.132813-6.265625 2.753907-6.6875 6.894532-.25 2.558594-.019531 4.386718.140625 5.597656.050781.421875.109375.898438.089844 1.039062l-.089844.570313c-.160156 0-.308594.03125-.429687.0625-.898438.238281-1.539063 1.039063-1.789063 2.257813-.203125.980468-.132813 2.167968.175781 3.351562.542969 1.988281 1.664063 3.488281 2.890625 3.949219.632813 1.941406 1.5625 3.859375 2.722657 5.597656l-9.21875 5.34375c-4 2.308594-6.492188 6.617187-6.492188 11.25v7.078125c0 1.648438 1.351562 3 3 3h46c1.648438 0 3-1.351562 3-3v-3h9c1.652344 0 3-1.347656 3-3v-3.5625c0-3.746094-1.878906-7.199219-5.027344-9.234375l-5.910156-3.804687c2.492188-.632813 5.175781-1.597657 6.996094-2.402344.53125-.238282.933594-.695313 1.097656-1.257813.167969-.5625.078125-1.167969-.246094-1.660156l-1.710937-2.625c-.90625-1.382813-1.550781-2.90625-1.921875-4.519531l-1.699219-7.410156c-1.28125-5.589844-6.121094-9.679688-11.828125-10.039063-.792969-.511719-1.699219-.78125-2.632812-.78125-1.296876 0-3.40625.007813-5.390626.820313-2.386718-1.636719-5.34375-2.523438-8.726562-2.523438zm0 2h1c6.070312 0 10.449219 3.101562 12.25 8.578125-.691406-.078125-1.402344.011719-1.902344.484375-.378906.367188-.738281 1.058594-.277344 2.296875.609376 1.679687.832032 2.671875.898438 4.070313.023438.359374.222656.679687.542969.851562.316406.15625.699219.140625 1-.0625.167969-.097656.246093-.109375.269531-.121094.058594.03125.238281.242188.339844.730469.128906.671875.078125 1.5625-.152344 2.433594-.25.917969-.609375 1.578125-.949219 2-.328125.417969-.640625.617187-.789062.617187-.441407 0-.832031.289063-.960938.71875-.589843 1.980469-1.507812 3.980469-2.699219 5.730469-.371093.5625-.769531 1.101563-1.210937 1.609375-2.019531 2.410156-4.578125 4.0625-7.359375 4.0625s-5.339844-1.652344-7.359375-4.0625c-.441406-.507812-.839844-1.046875-1.210937-1.609375-1.191407-1.75-2.109376-3.75-2.699219-5.730469-.128907-.429687-.519531-.71875-.960938-.71875-.300781 0-1.238281-.777344-1.738281-2.617187-.230469-.871094-.28125-1.761719-.152344-2.433594.113282-.507813.292969-.707031.339844-.730469 0 0 .082031.011719.269531.121094.300781.203125.683594.21875 1 .0625.320313-.171875.519531-.492188.542969-.851562.019531-.519532.078125-1.039063.167969-1.539063.078125-.429687.011719-.910156-.078125-1.640625-.140625-1.121094-.359375-2.820312-.121094-5.152344.308594-3.1875 2.191406-5.097656 5.019531-5.097656.210938 0 .417969-.070312.601563-.199219 1.367187-1.03125 4.109375-1.800781 6.378906-1.800781zm15.117188 1.703125c.605468 0 1.195312.195313 1.699218.570313.160156.117187.355469.1875.558594.195312 4.933594.195312 9.152344 3.691406 10.253906 8.5l1.699219 7.410156c.421875 1.847656 1.160156 3.585938 2.199219 5.167969l1.71875 2.621094c-2.292969 1.011719-5.894532 2.226562-8.566406 2.695312l-2.070313-1.335937c1.0625-1.246094 1.625-2.542969 2.152344-3.964844.097656-.269531.316406-.535156.6875-.835938.789062-.640624 1.347656-1.828124 1.457031-3.101562.132812-1.558594-.199219-2.707031-.980469-3.421875-.234375-.214844-.28125-.34375-.285156-.398437l-.03125-.238282c-.109375-.953125-.222656-1.855468-.402344-2.414062-.132812-.414063-.527343-.695313-.960937-.695313h-1.902344c-1.445312-.015625-2.925781-.160156-4.390625-.425781-.539063-.105469-1.0625.257812-1.160156.800781-.101563.546875.257812 1.066407.800781 1.164063 1.578125.289062 3.167969.441406 4.738281.460937h1.117188c.074219.457031.132812.992188.175781 1.339844l.027344.246094c.070312.597656.375 1.132812.925781 1.640625.285156.257812.40625.902344.332031 1.769531-.070312.835937-.421875 1.480469-.722656 1.722656-.414062.335938-1.003906.878907-1.300781 1.691407-.898438 2.433593-1.773438 4.175781-5.589844 6.164062-.492187.253906-.683594.859375-.425781 1.347656.175781.34375.527344.539063.886718.539063.15625 0 .3125-.035157.460938-.113281 1.1875-.617188 2.132812-1.234376 2.90625-1.851563l10.765625 6.933594c2.574219 1.664062 4.109375 4.488281 4.109375 7.550781v3.5625c0 .550781-.449219 1-1 1h-9v-2.078125c0-4.632813-2.488281-8.941406-6.488281-11.25l-9.222657-5.34375c1.160157-1.738281 2.089844-3.65625 2.722657-5.597656 1.226562-.460938 2.347656-1.960938 2.890625-3.949219.308594-1.183594.378906-2.371094.175781-3.351562-.25-1.21875-.890625-2.019532-1.789063-2.257813-.121093-.03125-.257812-.0625-.429687-.0625-.140625-1.070313-.410156-2.070313-.921875-3.4375-.007812-.042969-.015625-.082031-.027344-.109375.351563.027344.910156.167969 1.378906.359375.339844.136719.742188.085937 1.023438-.152344.289062-.238281.417969-.621093.339844-.980469-.699219-3.179687-2.117188-5.804687-4.105469-7.765624 1.304687-.320313 2.617187-.320313 3.570313-.320313zm-20.589844 4.421875c-.714844-.0625-1.433594.265625-1.84375.890625l-1.605469 2.433594c-.304687.460937-.175781 1.082031.285156 1.386719.167969.109374.359375.164062.546875.164062.328125 0 .644532-.15625.839844-.449219l1.601562-2.433593 1.5625.761718c2.847657 1.390625 6.027344 2.121094 9.199219 2.121094h2.554688c.550781 0 1-.445312 1-1s-.449219-1-1-1h-2.554688c-2.867187 0-5.746093-.664062-8.320312-1.921875l-1.566407-.761719c-.226562-.109375-.460937-.171875-.699218-.191406zm-3.617188 24.8125c2.421875 2.972656 5.589844 5.0625 9.089844 5.0625s6.667969-2.089844 9.089844-5.0625l9.421875 5.464844c3.386719 1.957031 5.488281 5.609375 5.488281 9.519531v7.078125c0 .550781-.449219 1-1 1h-46c-.550781 0-1-.449219-1-1v-7.078125c0-3.910156 2.101562-7.5625 5.492188-9.519531zm1.152344 5.0625c-.390625-.023438-.773438.183594-.957031.550781-.246094.496094-.046875 1.097657.445312 1.34375l8 4c.144531.070313.296875.105469.449219.105469s.308594-.035156.449219-.105469l8-4c.492187-.246093.691406-.847656.445312-1.34375-.246093-.492187-.847656-.691406-1.34375-.445312l-7.550781 3.777343-7.550781-3.777343c-.125-.0625-.257813-.09375-.386719-.105469zm35.9375 6c-.550781 0-1 .445312-1 1v2c0 .554688.449219 1 1 1s1-.445312 1-1v-2c0-.554688-.449219-1-1-1zm5 0c-.550781 0-1 .445312-1 1v2c0 .554688.449219 1 1 1s1-.445312 1-1v-2c0-.554688-.449219-1-1-1zm-53 6c-.550781 0-1 .445312-1 1v2c0 .554688.449219 1 1 1s1-.445312 1-1v-2c0-.554688-.449219-1-1-1zm5 0c-.550781 0-1 .445312-1 1v2c0 .554688.449219 1 1 1s1-.445312 1-1v-2c0-.554688-.449219-1-1-1zm5 0c-.550781 0-1 .445312-1 1v2c0 .554688.449219 1 1 1s1-.445312 1-1v-2c0-.554688-.449219-1-1-1zm5 0c-.550781 0-1 .445312-1 1v2c0 .554688.449219 1 1 1s1-.445312 1-1v-2c0-.554688-.449219-1-1-1zm5 0c-.550781 0-1 .445312-1 1v2c0 .554688.449219 1 1 1s1-.445312 1-1v-2c0-.554688-.449219-1-1-1zm5 0c-.550781 0-1 .445312-1 1v2c0 .554688.449219 1 1 1s1-.445312 1-1v-2c0-.554688-.449219-1-1-1zm5 0c-.550781 0-1 .445312-1 1v2c0 .554688.449219 1 1 1s1-.445312 1-1v-2c0-.554688-.449219-1-1-1zm5 0c-.550781 0-1 .445312-1 1v2c0 .554688.449219 1 1 1s1-.445312 1-1v-2c0-.554688-.449219-1-1-1zm5 0c-.550781 0-1 .445312-1 1v2c0 .554688.449219 1 1 1s1-.445312 1-1v-2c0-.554688-.449219-1-1-1zm0 0" fill="#003e6b"/></svg>