<svg height="512pt" viewBox="0 0 512 512" width="512pt" xmlns="http://www.w3.org/2000/svg"><path d="m476.71875 14.375c-1.84375-.15625-3.71875-.09375-5.59375.1875l-49.09375 7.1875c-59.125 8.65625-113.125 38.34375-152.0625 83.625l-70.5625 81.96875-122.75 30.53125c-8.15625 2.03125-15.34375 6.5-20.8125 12.90625l-26.21875 30.84375c-4.09375 4.8125-5 11.375-2.34375 17.09375s8.21875 9.28125 14.53125 9.28125h81.5c.375 3.1875 1.40625 6.25 3.03125 9.09375l-17.25 31.75c-.21875.40625-.40625.84375-.5625 1.28125-.78125 2.375-1.1875 4.8125-1.25 7.21875l-3.59375 1.09375c-28.875 8.84375-50.8125 31.0625-58.71875 59.4375-6.59375 23.71875-8.5 48.15625-9.03125 60.65625-.15625 4.46875 1.53125 8.8125 4.6875 11.96875 2.96875 2.96875 7.0625 4.65625 11.25 4.65625.25 0 .46875 0 .6875-.03125 12.40625-.5 36.75-2.375 60.375-8.90625 28.1875-7.8125 51.0625-30.5625 59.65625-59.34375l.53125-1.8125c.4375.03125.84375.09375 1.28125.09375 2.75 0 5.53125-.4375 8.3125-1.34375.40625-.125.78125-.3125 1.15625-.53125l31.84375-16.78125c2.59375 1.53125 5.375 2.53125 8.28125 3v80.71875c0 6.3125 3.53125 11.875 9.25 14.53125 2.1875 1 4.5 1.5 6.78125 1.5 3.71875 0 7.34375-1.3125 10.3125-3.84375l30.875-26.25c6.40625-5.46875 10.84375-12.65625 12.90625-20.8125l30-120.6875 83.375-71.75c45.28125-38.9375 74.96875-92.96875 83.625-152.0625l7.15625-49.09375c1.15625-7.53125-1.3125-15-6.71875-20.40625-4.0625-4.0625-9.3125-6.46875-14.84375-6.96875zm-2.09375 15.9375c2.09375 0 4.09375.8125 5.625 2.3125 1.78125 1.8125 2.625 4.3125 2.25 6.84375l-7.1875 49.0625c-8.09375 55.3125-35.875 105.84375-78.21875 142.28125l-83.5625 71.90625c-1.15625.59375-2.1875 1.40625-2.9375 2.53125l-77.5625 66.71875c-3.125 2.71875-7.90625 2.53125-10.875-.40625l-80.8125-80.8125c-2.9375-2.96875-3.125-7.75-.4375-10.875l141.1875-164.0625c17.3125-20.125 37.8125-36.90625 60.5-49.90625l35.75 35.75c1.5625 1.5625 3.59375 2.34375 5.65625 2.34375s4.09375-.78125 5.65625-2.34375c3.125-3.125 3.125-8.1875 0-11.3125l-32.25-32.25c21-10.09375 43.53125-17.09375 66.9375-20.53125l49.0625-7.1875c.40625-.03125.8125-.0625 1.21875-.0625zm-66.625 81.6875c-2.03125 0-4.09375.78125-5.65625 2.34375-3.125 3.125-3.125 8.1875 0 11.3125l24 24c1.5625 1.5625 3.59375 2.34375 5.65625 2.34375s4.09375-.78125 5.65625-2.34375c3.125-3.125 3.125-8.1875 0-11.3125l-24-24c-1.5625-1.5625-3.625-2.34375-5.65625-2.34375zm-64 8c-26.46875 0-48 21.53125-48 48s21.53125 48 48 48 48-21.53125 48-48-21.53125-48-48-48zm0 16c17.65625 0 32 14.34375 32 32s-14.34375 32-32 32-32-14.34375-32-32 14.34375-32 32-32zm-162.625 72.3125-52.5625 61.09375c-.6875.84375-1.25 1.71875-1.8125 2.59375h-85.1875l26.25-30.875c3.25-3.8125 7.5625-6.5 12.46875-7.71875zm100.84375 3.0625c-2.0625 0-4.09375.78125-5.6875 2.34375-3.125 3.125-3.125 8.1875 0 11.3125l11.34375 11.3125c1.53125 1.5625 3.59375 2.34375 5.625 2.34375 2.0625 0 4.125-.78125 5.65625-2.34375 3.15625-3.125 3.15625-8.1875 0-11.3125l-11.28125-11.3125c-1.59375-1.5625-3.625-2.34375-5.65625-2.34375zm-28.3125 28.28125c-2.03125 0-4.09375.78125-5.65625 2.34375-3.125 3.125-3.125 8.1875 0 11.3125l11.34375 11.3125c1.53125 1.5625 3.59375 2.34375 5.65625 2.34375 2.03125 0 4.09375-.78125 5.625-2.34375 3.15625-3.125 3.15625-8.1875 0-11.34375l-11.3125-11.28125c-1.5625-1.5625-3.625-2.34375-5.65625-2.34375zm-28.28125 28.3125c-2.03125 0-4.09375.75-5.65625 2.3125-3.125 3.15625-3.125 8.1875 0 11.34375l11.3125 11.28125c1.5625 1.5625 3.59375 2.34375 5.65625 2.34375s4.09375-.78125 5.65625-2.34375c3.125-3.125 3.125-8.15625 0-11.28125l-11.3125-11.34375c-1.5625-1.5625-3.625-2.3125-5.65625-2.3125zm-28.25 28.28125c-2.0625 0-4.09375.75-5.65625 2.34375-3.15625 3.09375-3.15625 8.15625 0 11.28125l11.28125 11.34375c1.5625 1.53125 3.59375 2.3125 5.65625 2.3125s4.09375-.78125 5.65625-2.3125c3.125-3.125 3.125-8.1875 0-11.34375l-11.3125-11.28125c-1.5625-1.59375-3.59375-2.34375-5.625-2.34375zm-59.65625 13.46875 65.375 65.40625-26 13.6875c-3.0625.875-6 .25-7.90625-1.65625l-43.46875-43.4375c-2.09375-2.125-2.90625-5.125-2.1875-7.96875zm165.4375 23.03125-24.5625 98.75c-1.21875 4.875-3.875 9.21875-7.71875 12.5l-30.875 26.21875v-83.65625c1.21875-.71875 2.375-1.53125 3.5-2.46875zm-190.90625 19.78125c.65625.875 1.375 1.71875 2.15625 2.46875l43.46875 43.5c.125.125.28125.1875.40625.34375l-1.03125 3.4375c-7.03125 23.59375-25.65625 42.15625-48.59375 48.5-22.0625 6.125-45.03125 7.875-56.71875 8.4375.5-11.78125 2.28125-34.875 8.4375-57.0625 6.4375-23.0625 24.375-41.1875 48-48.40625zm0 0" fill="#003e6b"/></svg>