<?xml version="1.0" encoding="UTF-8"?>
<svg xmlns="http://www.w3.org/2000/svg" xmlns:xlink="http://www.w3.org/1999/xlink" width="512pt" height="512pt" viewBox="0 0 512 512" version="1.1">
<g id="surface1306712">
<path style=" stroke:none;fill-rule:nonzero;fill:rgb(0%,24.313726%,41.960785%);fill-opacity:1;" d="M 476.71875 14.375 C 474.875 14.21875 473 14.28125 471.125 14.5625 L 422.03125 21.75 C 362.90625 30.40625 308.90625 60.09375 269.96875 105.375 L 199.40625 187.34375 L 76.65625 217.875 C 68.5 219.90625 61.3125 224.375 55.84375 230.78125 L 29.625 261.625 C 25.53125 266.4375 24.625 273 27.28125 278.71875 C 29.9375 284.4375 35.5 288 41.8125 288 L 123.3125 288 C 123.6875 291.1875 124.71875 294.25 126.34375 297.09375 L 109.09375 328.84375 C 108.875 329.25 108.6875 329.6875 108.53125 330.125 C 107.75 332.5 107.34375 334.9375 107.28125 337.34375 L 103.6875 338.4375 C 74.8125 347.28125 52.875 369.5 44.96875 397.875 C 38.375 421.59375 36.46875 446.03125 35.9375 458.53125 C 35.78125 463 37.46875 467.34375 40.625 470.5 C 43.59375 473.46875 47.6875 475.15625 51.875 475.15625 C 52.125 475.15625 52.34375 475.15625 52.5625 475.125 C 64.96875 474.625 89.3125 472.75 112.9375 466.21875 C 141.125 458.40625 164 435.65625 172.59375 406.875 L 173.125 405.0625 C 173.5625 405.09375 173.96875 405.15625 174.40625 405.15625 C 177.15625 405.15625 179.9375 404.71875 182.71875 403.8125 C 183.125 403.6875 183.5 403.5 183.875 403.28125 L 215.71875 386.5 C 218.3125 388.03125 221.09375 389.03125 224 389.5 L 224 470.21875 C 224 476.53125 227.53125 482.09375 233.25 484.75 C 235.4375 485.75 237.75 486.25 240.03125 486.25 C 243.75 486.25 247.375 484.9375 250.34375 482.40625 L 281.21875 456.15625 C 287.625 450.6875 292.0625 443.5 294.125 435.34375 L 324.125 314.65625 L 407.5 242.90625 C 452.78125 203.96875 482.46875 149.9375 491.125 90.84375 L 498.28125 41.75 C 499.4375 34.21875 496.96875 26.75 491.5625 21.34375 C 487.5 17.28125 482.25 14.875 476.71875 14.375 Z M 474.625 30.3125 C 476.71875 30.3125 478.71875 31.125 480.25 32.625 C 482.03125 34.4375 482.875 36.9375 482.5 39.46875 L 475.3125 88.53125 C 467.21875 143.84375 439.4375 194.375 397.09375 230.8125 L 313.53125 302.71875 C 312.375 303.3125 311.34375 304.125 310.59375 305.25 L 233.03125 371.96875 C 229.90625 374.6875 225.125 374.5 222.15625 371.5625 L 141.34375 290.75 C 138.40625 287.78125 138.21875 283 140.90625 279.875 L 282.09375 115.8125 C 299.40625 95.6875 319.90625 78.90625 342.59375 65.90625 L 378.34375 101.65625 C 379.90625 103.21875 381.9375 104 384 104 C 386.0625 104 388.09375 103.21875 389.65625 101.65625 C 392.78125 98.53125 392.78125 93.46875 389.65625 90.34375 L 357.40625 58.09375 C 378.40625 48 400.9375 41 424.34375 37.5625 L 473.40625 30.375 C 473.8125 30.34375 474.21875 30.3125 474.625 30.3125 Z M 408 112 C 405.96875 112 403.90625 112.78125 402.34375 114.34375 C 399.21875 117.46875 399.21875 122.53125 402.34375 125.65625 L 426.34375 149.65625 C 427.90625 151.21875 429.9375 152 432 152 C 434.0625 152 436.09375 151.21875 437.65625 149.65625 C 440.78125 146.53125 440.78125 141.46875 437.65625 138.34375 L 413.65625 114.34375 C 412.09375 112.78125 410.03125 112 408 112 Z M 344 120 C 317.53125 120 296 141.53125 296 168 C 296 194.46875 317.53125 216 344 216 C 370.46875 216 392 194.46875 392 168 C 392 141.53125 370.46875 120 344 120 Z M 344 136 C 361.65625 136 376 150.34375 376 168 C 376 185.65625 361.65625 200 344 200 C 326.34375 200 312 185.65625 312 168 C 312 150.34375 326.34375 136 344 136 Z M 181.375 208.3125 L 128.8125 269.40625 C 128.125 270.25 127.5625 271.125 127 272 L 41.8125 272 L 68.0625 241.125 C 71.3125 237.3125 75.625 234.625 80.53125 233.40625 Z M 282.21875 211.375 C 280.15625 211.375 278.125 212.15625 276.53125 213.71875 C 273.40625 216.84375 273.40625 221.90625 276.53125 225.03125 L 287.875 236.34375 C 289.40625 237.90625 291.46875 238.6875 293.5 238.6875 C 295.5625 238.6875 297.625 237.90625 299.15625 236.34375 C 302.3125 233.21875 302.3125 228.15625 299.15625 225.03125 L 287.875 213.71875 C 286.28125 212.15625 284.25 211.375 282.21875 211.375 Z M 253.90625 239.65625 C 251.875 239.65625 249.8125 240.4375 248.25 242 C 245.125 245.125 245.125 250.1875 248.25 253.3125 L 259.59375 264.625 C 261.125 266.1875 263.1875 266.96875 265.25 266.96875 C 267.28125 266.96875 269.34375 266.1875 270.875 264.625 C 274.03125 261.5 274.03125 256.4375 270.875 253.28125 L 259.5625 242 C 258 240.4375 255.9375 239.65625 253.90625 239.65625 Z M 225.625 267.96875 C 223.59375 267.96875 221.53125 268.71875 219.96875 270.28125 C 216.84375 273.4375 216.84375 278.46875 219.96875 281.625 L 231.28125 292.90625 C 232.84375 294.46875 234.875 295.25 236.9375 295.25 C 239 295.25 241.03125 294.46875 242.59375 292.90625 C 245.71875 289.78125 245.71875 284.75 242.59375 281.625 L 231.28125 270.28125 C 229.71875 268.71875 227.65625 267.96875 225.625 267.96875 Z M 197.375 296.25 C 195.3125 296.25 193.28125 297 191.71875 298.59375 C 188.5625 301.6875 188.5625 306.75 191.71875 309.875 L 203 321.21875 C 204.5625 322.75 206.59375 323.53125 208.65625 323.53125 C 210.71875 323.53125 212.75 322.75 214.3125 321.21875 C 217.4375 318.09375 217.4375 313.03125 214.3125 309.875 L 203 298.59375 C 201.4375 297 199.40625 296.25 197.375 296.25 Z M 137.71875 309.71875 L 203.09375 375.125 L 177.09375 388.8125 C 174.03125 389.6875 171.09375 389.0625 169.1875 387.15625 L 125.71875 343.71875 C 123.625 341.59375 122.8125 338.59375 123.53125 335.75 Z M 303.15625 332.75 L 278.59375 431.5 C 277.375 436.375 274.71875 440.71875 270.875 444 L 240 470.21875 L 240 386.5625 C 241.21875 385.84375 242.375 385.03125 243.5 384.09375 Z M 112.25 352.53125 C 112.90625 353.40625 113.625 354.25 114.40625 355 L 157.875 398.5 C 158 398.625 158.15625 398.6875 158.28125 398.84375 L 157.25 402.28125 C 150.21875 425.875 131.59375 444.4375 108.65625 450.78125 C 86.59375 456.90625 63.625 458.65625 51.9375 459.21875 C 52.4375 447.4375 54.21875 424.34375 60.375 402.15625 C 66.8125 379.09375 84.75 360.96875 108.375 353.75 Z M 112.25 352.53125 "/>
</g>
</svg>
