<svg clip-rule="evenodd" fill-rule="evenodd" stroke-linejoin="round" stroke-miterlimit="2" viewBox="0 0 2875 625" xmlns="http://www.w3.org/2000/svg"><path d="m312.5 0c172.473 0 312.5 140.027 312.5 312.5s-140.027 312.5-312.5 312.5-312.5-140.027-312.5-312.5 140.027-312.5 312.5-312.5zm576.827 179.399c1.981-3.254 4.215-6.559 6.649-9.776 8.166-10.792 18.198-20.294 30.097-28.505 11.898-8.212 25.197-14.663 39.895-19.356 14.698-4.692 29.98-7.038 45.845-7.038 31.73 0 60.193 7.977 85.39 23.93 25.197 15.954 45.145 38.007 59.843 66.16 14.699 28.153 22.048 60.529 22.048 97.129 0 36.129-7.349 68.388-22.048 96.776-14.698 28.388-34.529 50.676-59.493 66.864s-53.077 24.282-84.34 24.282c-17.265 0-33.48-2.698-48.645-8.094s-28.93-12.434-41.295-21.115-22.747-18.534-31.146-29.561c-.965-1.266-1.898-2.53-2.8-3.792v169.544c0 7.977-2.566 14.663-7.699 20.059s-11.899 8.094-20.298 8.094c-7.932 0-14.582-2.698-19.948-8.094s-8.049-12.082-8.049-20.059v-450.451c0-7.976 2.683-14.663 8.049-20.059s12.016-8.094 19.948-8.094c8.399 0 15.165 2.698 20.298 8.094s7.699 12.083 7.699 20.059zm1011.38 253.412c-5.752 8.253-13.334 16.81-21.697 23.974-12.599 10.792-27.064 19.238-43.395 25.338-16.332 6.1-34.296 9.15-53.894 9.15-26.597 0-49.111-5.748-67.542-17.244-18.432-11.496-32.43-27.45-41.996-47.861-9.565-20.411-14.348-43.989-14.348-70.734v-212.557c0-7.976 2.683-14.663 8.049-20.059s12.015-8.094 19.948-8.094c8.399 0 15.165 2.698 20.298 8.094 5.132 5.396 7.699 12.083 7.699 20.059v199.888c0 31.907 6.999 55.954 20.997 72.142 13.999 16.188 35.696 24.282 65.093 24.282 18.664 0 35.579-4.223 50.744-12.669s27.297-20.059 36.396-34.839c9.099-14.781 13.648-31.086 13.648-48.916v-199.888c0-7.976 2.567-14.663 7.699-20.059 5.133-5.396 11.899-8.094 20.298-8.094 7.933 0 14.582 2.698 19.948 8.094s8.049 12.083 8.049 20.059v306.87c0 39.883-7.699 72.729-23.097 98.536-15.399 25.807-36.046 45.045-61.943 57.714s-55.177 19.003-87.84 19.003c-18.198 0-35.696-1.877-52.494-5.631-16.798-3.753-30.563-8.68-41.296-14.78-8.865-4.223-15.048-9.384-18.547-15.484-3.5-6.1-4.083-12.669-1.75-19.707 3.266-8.916 8.049-14.898 14.348-17.948s12.949-3.167 19.948-.352c7.466 3.754 18.314 8.446 32.546 14.077 14.232 5.63 30.213 8.445 47.945 8.445 24.264 0 45.028-4.574 62.293-13.724 17.264-9.15 30.563-22.875 39.895-41.174 9.332-18.3 13.998-40.822 13.998-67.568zm684.522-253.412c2.562-4.209 4.215-6.559 6.649-9.776 8.166-10.792 18.198-20.294 30.097-28.505 11.899-8.212 25.197-14.663 39.895-19.356 14.699-4.692 29.98-7.038 45.845-7.038 31.73 0 60.193 7.977 85.39 23.93 25.197 15.954 45.145 38.007 59.844 66.16 14.698 28.153 22.047 60.529 22.047 97.129 0 36.129-7.349 68.388-22.047 96.776-14.699 28.388-34.53 50.676-59.494 66.864-24.963 16.188-53.077 24.282-84.34 24.282-17.265 0-33.48-2.698-48.644-8.094-15.165-5.396-28.931-12.434-41.296-21.115s-22.747-18.534-31.146-29.561c-.964-1.266-1.898-2.53-2.8-3.792v169.544c0 7.977-2.566 14.663-7.699 20.059s-11.899 8.094-20.298 8.094c-7.932 0-14.581-2.698-19.947-8.094s-8.049-12.082-8.049-20.059v-450.451c0-7.976 2.683-14.663 8.049-20.059s12.015-8.094 19.947-8.094c8.399 0 15.165 2.698 20.298 8.094s7.699 12.083 7.699 20.059zm-2086.95-50.482c-47.363-47.93-113.128-77.652-185.78-77.652-144.18 0-261.235 117.055-261.235 261.235 0 52.755 15.671 101.879 42.6 142.952l240.134-287.392-168.761 33.544c-13.876 2.757-27.38-6.269-30.138-20.144s6.268-27.38 20.144-30.137l239.998-47.703c10.659-2.119 21.496 2.715 27.041 12.062 5.546 9.346 4.594 21.174-2.374 29.514l-293.189 350.887c47.363 47.93 113.128 77.652 185.78 77.652 144.18 0 261.235-117.055 261.235-261.235 0-52.755-15.671-101.879-42.6-142.952l-240.134 287.392 168.761-33.544c13.876-2.757 27.38 6.269 30.138 20.144s-6.268 27.38-20.144 30.137l-239.998 47.703c-10.659 2.119-21.496-2.715-27.041-12.062-5.546-9.346-4.594-21.174 2.374-29.514zm1018.18 296.594c-7.348 11.077-15.31 20.302-25.897 29.514-12.132 10.558-26.363 19.238-42.695 26.042-16.331 6.804-34.063 10.206-53.194 10.206-31.73 0-60.31-8.329-85.74-24.986-25.43-16.658-45.378-39.298-59.843-67.92s-21.698-61.233-21.698-97.832c0-37.068 7.349-69.796 22.048-98.184 14.698-28.388 34.529-50.676 59.493-66.864s53.077-24.282 84.34-24.282c20.065 0 38.729 3.284 55.994 9.854 17.265 6.569 32.313 15.484 45.145 26.745 8.684 7.622 16.033 15.781 22.047 24.479v-27.294c0-7.977 2.683-14.663 8.049-20.059s12.016-8.094 19.948-8.094c8.399 0 15.165 2.698 20.298 8.094 5.132 5.396 7.699 12.082 7.699 20.059v310.388c0 7.977-2.683 14.781-8.049 20.411-5.366 5.631-12.016 8.446-19.948 8.446s-14.582-2.815-19.948-8.446c-5.366-5.63-8.049-12.434-8.049-20.411zm922.495 29.866c0 7.977-2.683 14.781-8.049 20.411-5.366 5.631-12.016 8.446-19.948 8.446-8.399 0-15.165-2.815-20.298-8.446-5.132-5.63-7.699-12.434-7.699-20.411v-312.5c0-7.976 2.683-14.663 8.049-20.059s12.016-8.094 19.948-8.094 14.582 2.698 19.948 8.094 8.049 12.083 8.049 20.059zm-208.667-285.05h-162.991c-7.466 0-13.765-2.581-18.898-7.743-5.132-5.161-7.699-11.495-7.699-19.003 0-7.038 2.567-13.021 7.699-17.948 5.133-4.926 11.432-7.39 18.898-7.39h214.876c7.466 0 13.648 2.698 18.548 8.094 4.899 5.396 7.349 12.083 7.349 20.059-.467 3.285-1.167 6.452-2.1 9.502s-2.8 6.686-5.599 10.909l-195.485 265.344h175.887c7.466 0 13.765 2.463 18.898 7.39 5.132 4.927 7.699 11.144 7.699 18.652 0 7.038-2.567 13.138-7.699 18.299-5.133 5.162-11.432 7.742-18.898 7.742h-226.774c-8.399 0-14.932-3.05-19.598-9.15-4.666-6.099-6.999-11.73-6.999-16.891.466-4.693 1.166-8.681 2.1-11.966.933-3.284 3.033-7.038 6.299-11.261zm-830.014 268.862c23.33 0 43.978-6.1 61.942-18.299 17.965-12.2 32.08-28.74 42.346-49.62 10.265-20.881 15.398-44.459 15.398-70.735 0-25.807-5.133-49.151-15.398-70.031-10.266-20.88-24.381-37.303-42.346-49.268-17.964-11.965-38.612-17.948-61.942-17.948-22.865 0-43.279 5.866-61.243 17.596-17.965 11.73-32.08 27.919-42.346 48.564-10.265 20.646-15.398 44.341-15.398 71.087 0 26.276 5.133 49.854 15.398 70.735 10.266 20.88 24.381 37.42 42.346 49.62 17.964 12.199 38.378 18.299 61.243 18.299zm-394.755-272.382c-23.331 0-43.979 5.866-61.943 17.596-17.965 11.731-31.963 27.684-41.995 47.861-10.033 20.176-15.049 43.402-15.049 69.679 0 25.807 5.016 49.033 15.049 69.679 10.032 20.645 24.03 36.833 41.995 48.564 17.964 11.73 38.612 17.596 61.943 17.596 23.33 0 43.861-5.866 61.593-17.596 17.731-11.731 31.729-27.919 41.995-48.564 10.265-20.646 15.398-43.872 15.398-69.679 0-26.277-5.133-49.503-15.398-69.679-10.266-20.177-24.264-36.13-41.995-47.861-17.732-11.73-38.263-17.596-61.593-17.596zm1695.91 0c-23.331 0-43.978 5.866-61.943 17.596-17.965 11.731-31.963 27.684-41.995 47.861-10.032 20.176-15.049 43.402-15.049 69.679 0 25.807 5.017 49.033 15.049 69.679 10.032 20.645 24.03 36.833 41.995 48.564 17.965 11.73 38.612 17.596 61.943 17.596s43.861-5.866 61.593-17.596c17.731-11.731 31.73-27.919 41.995-48.564 10.265-20.646 15.398-43.872 15.398-69.679 0-26.277-5.133-49.503-15.398-69.679-10.265-20.177-24.264-36.13-41.995-47.861-17.732-11.73-38.262-17.596-61.593-17.596zm-291.167-99.239c-11.665 0-20.298-2.347-25.897-7.039s-8.399-11.965-8.399-21.818v-9.854c0-9.854 3.033-17.127 9.099-21.819s14.698-7.038 25.897-7.038 19.598 2.346 25.197 7.038c5.6 4.692 8.399 11.965 8.399 21.819v9.854c0 9.853-2.916 17.126-8.749 21.818-5.832 4.692-14.348 7.039-25.547 7.039z" fill="#044e54" fill-rule="nonzero"/></svg>