<?xml version="1.0" encoding="UTF-8"?>
<svg width="26px" height="19px" viewBox="0 0 26 19" version="1.1" xmlns="http://www.w3.org/2000/svg" xmlns:xlink="http://www.w3.org/1999/xlink">
    <title>Menu Icon/Inactive/ping Copy</title>
    <g id="7.1-Pings" stroke="none" stroke-width="1" fill="none" fill-rule="evenodd">
        <g id="7.1.1-Pings-empty" transform="translate(-326.000000, -88.000000)" fill="#9FB3C8">
            <g id="Menu-Icon/Inactive/ping-Copy" transform="translate(326.000000, 85.000000)">
                <path d="M8.43510417,8.11040699 L7.921875,7.60891394 C7.77360362,7.46638088 7.5728287,7.39177506 7.36745994,7.4028992 C7.16209117,7.41402334 6.97054962,7.50987964 6.83854167,7.66759449 C4.45937598,10.5012748 4.45937598,14.6344698 6.83854167,17.46815 C6.97054962,17.6258649 7.16209117,17.7217212 7.36745994,17.7328453 C7.5728287,17.7439695 7.77360362,17.6693637 7.921875,17.5268306 L8.43510417,17.0253375 C8.6935996,16.7790701 8.71896893,16.375324 8.49333333,16.0986362 C6.79859375,14.0498418 6.79859375,11.0859027 8.49333333,9.03710838 C8.71874593,8.76034901 8.69338731,8.3567734 8.43510417,8.11040699 L8.43510417,8.11040699 Z M4.84475694,4.60537227 L4.33333333,4.10568477 C4.18780452,3.96758099 3.99247989,3.89441611 3.79203312,3.90292404 C3.59158636,3.91143196 3.40316401,4.00088492 3.26986111,4.15082366 C1.15510417,6.47412227 0,9.43433061 0,12.5678723 C0,15.7014139 1.15510417,18.6616223 3.26986111,20.9871778 C3.40316401,21.1371166 3.59158636,21.2265695 3.79203312,21.2350775 C3.99247989,21.2435854 4.18780452,21.1704205 4.33333333,21.0323167 L4.84475694,20.5326292 C5.12055556,20.2617959 5.11829861,19.8379417 4.86100694,19.5526639 C1.2686381,15.5908883 1.2686381,9.54982153 4.86100694,5.58804588 C5.11829861,5.30051116 5.12055556,4.87440005 4.84475694,4.60537227 L4.84475694,4.60537227 Z M22.7301389,4.14856672 C22.596836,3.99862797 22.4084136,3.90917502 22.2079669,3.90066709 C22.0075201,3.89215917 21.8121955,3.96532405 21.6666667,4.10342783 L21.1552431,4.60537227 C20.8794444,4.87620561 20.8817014,5.30005977 21.1389931,5.58578894 C24.7313619,9.54756459 24.7313619,15.5886313 21.1389931,19.550407 C20.8817014,19.8356848 20.8794444,20.2613445 21.1552431,20.5303723 L21.6666667,21.0300598 C21.8121955,21.1681636 22.0075201,21.2413284 22.2079669,21.2328205 C22.4084136,21.2243126 22.596836,21.1348596 22.7301389,20.9849209 C24.8448958,18.6616223 26,15.7014139 26,12.5678723 C26,9.43433061 24.8448958,6.47412227 22.7301389,4.14856672 Z M13,10.0400945 C11.6039469,10.0400945 10.4722222,11.1718192 10.4722222,12.5678723 C10.4722222,13.9639254 11.6039469,15.09565 13,15.09565 C14.3960531,15.09565 15.5277778,13.9639254 15.5277778,12.5678723 C15.5277778,11.1718192 14.3960531,10.0400945 13,10.0400945 Z M18.078125,7.60891394 L17.5648958,8.11040699 C17.3066127,8.3567734 17.2812541,8.76034901 17.5066667,9.03710838 C19.2014063,11.0859027 19.2014063,14.0498418 17.5066667,16.0986362 C17.2812541,16.3753955 17.3066127,16.7789711 17.5648958,17.0253375 L18.078125,17.5268306 C18.2263964,17.6693637 18.4271713,17.7439695 18.6325401,17.7328453 C18.8379088,17.7217212 19.0294504,17.6258649 19.1614583,17.46815 C21.540624,14.6344698 21.540624,10.5012748 19.1614583,7.66759449 C19.0294504,7.50987964 18.8379088,7.41402334 18.6325401,7.4028992 C18.4271713,7.39177506 18.2263964,7.46638088 18.078125,7.60891394 L18.078125,7.60891394 Z" id="Shape"></path>
            </g>
        </g>
    </g>
</svg>