<svg height="64" viewBox="0 0 64 64" width="64" xmlns="http://www.w3.org/2000/svg"><path d="m31.996094 0c-2.226563 0-4.019532 1.742188-4.089844 3.960938l-.046875 1.570312c-.832031-.9375-2.050781-1.53125-3.40625-1.53125-2.480469 0-4.476563 1.945312-4.535156 4.429688l-.136719 5.570312h-14.78125c-1.652344 0-3 1.347656-3 3v28c0 1.652344 1.347656 3 3 3h6.300781c.707031 1.523438 1.585938 2.96875 2.652344 4.296875l4.199219 5.246094 2.398437 4.800781c.511719 1.019531 1.542969 1.65625 2.683594 1.65625h24.285156c1.328125 0 2.480469-.851562 2.871094-2.117188l2.519531-8.195312c.570313-1.855469.851563-3.761719.890625-5.6875h5.199219c1.652344 0 3-1.347656 3-3v-28c0-1.652344-1.347656-3-3-3h-7.136719c-.644531-1.753906-2.304687-3-4.273437-3-1.335938 0-2.539063.574219-3.378906 1.484375l-.113282-4.0625c-.070312-2.480469-2.070312-4.421875-4.550781-4.421875-1.351563 0-2.570313.597656-3.40625 1.539062l-.046875-1.578124c-.070312-2.21875-1.867188-3.960938-4.097656-3.960938zm.007812 2c1.136719 0 2.054688.890625 2.089844 2.023438l.308594 9.976562h-4.804688l.308594-9.976562c.035156-1.132813.953125-2.023438 2.097656-2.023438zm-7.542968 4c1.398437 0 2.539062 1.140625 2.539062 2.539062v5.460938h-5.21875l.136719-5.523438c.03125-1.363281 1.171875-2.476562 2.542969-2.476562zm15.085937 0c1.390625 0 2.511719 1.089844 2.550781 2.476562l.152344 5.523438h-5.25v-5.453125c0-1.402344 1.144531-2.546875 2.546875-2.546875zm8.046875 7c.824219 0 1.558594.394531 2.03125 1h-4.0625c.476562-.605469 1.203125-1 2.03125-1zm-42.59375 3h54c.550781 0 1 .449219 1 1v28c0 .550781-.449219 1-1 1h-29.355469c-2.109375 0-4.070312-.742188-5.632812-2 .546875-.007812.988281-.449219.988281-1v-2c0-.554688-.445312-1-1-1s-1 .445312-1 1v2c0 .019531.011719.039062.011719.058594-.703125-.769532-1.292969-1.660156-1.703125-2.667969l-2.761719-6.78125c-1.144531-2.820313-3.484375-4.917969-6.410156-5.753906-.964844-.273438-1.992188-.054688-2.761719.59375-.761719.644531-1.152344 1.625-1.046875 2.617187l1.140625 10.386719c.167969 1.558594.515625 3.082031 1.019531 4.546875h-5.488281c-.550781 0-1-.449219-1-1v-28c0-.550781.449219-1 1-1zm14 2c-.554688 0-1 .445312-1 1v2c0 .554688.445312 1 1 1s1-.445312 1-1v-2c0-.554688-.445312-1-1-1zm5 0c-.554688 0-1 .445312-1 1v2c0 .554688.445312 1 1 1s1-.445312 1-1v-2c0-.554688-.445312-1-1-1zm5 0c-.554688 0-1 .445312-1 1v2c0 .050781.023438.09375.03125.144531-2.976562 1.796875-5.03125 5.535157-5.03125 9.855469s2.054688 8.058594 5.03125 9.855469c-.007812.050781-.03125.09375-.03125.144531v2c0 .554688.445312 1 1 1s1-.445312 1-1v-1.28125c.644531.175781 1.3125.28125 2 .28125s1.355469-.105469 2-.28125v1.28125c0 .554688.445312 1 1 1s1-.445312 1-1v-2c0-.050781-.023438-.09375-.03125-.144531 2.976562-1.796875 5.03125-5.535157 5.03125-9.855469s-2.054688-8.058594-5.03125-9.855469c.007812-.050781.03125-.09375.03125-.144531v-2c0-.554688-.445312-1-1-1s-1 .445312-1 1v1.28125c-.644531-.175781-1.3125-.28125-2-.28125s-1.355469.105469-2 .28125v-1.28125c0-.554688-.445312-1-1-1zm11 0c-.554688 0-1 .445312-1 1v2c0 .554688.445312 1 1 1s1-.445312 1-1v-2c0-.554688-.445312-1-1-1zm5 0c-.554688 0-1 .445312-1 1v2c0 .554688.445312 1 1 1s1-.445312 1-1v-2c0-.554688-.445312-1-1-1zm-38 1c-.554688 0-1 .445312-1 1s.445312 1 1 1h5c.554688 0 1-.445312 1-1s-.445312-1-1-1zm45 0c-.554688 0-1 .445312-1 1s.445312 1 1 1h5c.554688 0 1-.445312 1-1s-.445312-1-1-1zm-20 3c3.859375 0 7 4.035156 7 9s-3.140625 9-7 9-7-4.035156-7-9 3.140625-9 7-9zm18 5c-2.207031 0-4 1.792969-4 4s1.792969 4 4 4 4-1.792969 4-4-1.792969-4-4-4zm0 1.667969c1.285156 0 2.332031 1.046875 2.332031 2.332031s-1.046875 2.332031-2.332031 2.332031-2.332031-1.046875-2.332031-2.332031 1.046875-2.332031 2.332031-2.332031zm-38.65625 1.070312c.078125.003907.164062.015625.246094.042969 2.328125.664062 4.191406 2.335938 5.105468 4.582031l2.757813 6.78125c1.695313 4.164063 5.695313 6.855469 10.191406 6.855469h22.164063c-.042969 1.726562-.296875 3.4375-.808594 5.097656l-2.519531 8.195313c-.132813.421875-.515625.707031-.960938.707031h-24.285156c-.378906 0-.722656-.210938-.890625-.550781l-2.449219-4.898438c-.015625-.03125-.046875-.050781-.066406-.082031s-.027344-.066406-.046875-.09375l-4.269531-5.328125c-1.035157-1.296875-1.839844-2.78125-2.75-4.671875-.671875-1.636719-1.113281-3.363281-1.308594-5.140625l-1.136719-10.386719c-.035156-.335937.09375-.652344.351563-.871094.195312-.164062.429687-.246093.675781-.238281zm28.65625 10.261719c-.554688 0-1 .445312-1 1v2c0 .554688.445312 1 1 1s1-.445312 1-1v-2c0-.554688-.445312-1-1-1zm5 0c-.554688 0-1 .445312-1 1v2c0 .554688.445312 1 1 1s1-.445312 1-1v-2c0-.554688-.445312-1-1-1zm7 1c-.554688 0-1 .445312-1 1s.445312 1 1 1h5c.554688 0 1-.445312 1-1s-.445312-1-1-1zm0 0" fill="#003e6b"/></svg>