<svg height="512pt" viewBox="0 0 512 512" width="512pt" xmlns="http://www.w3.org/2000/svg"><path d="m256 .9375c-16.46875 0-32.96875 5.125-47.03125 15.375l-21.59375 15.6875h-115.375c-13.1875 0-24 10.8125-24 24v416c0 13.1875 10.8125 24 24 24h368c13.1875 0 24-10.8125 24-24v-416c0-13.1875-10.8125-24-24-24h-115.375l-21.59375-15.6875c-14.0625-10.25-30.5625-15.34375-47.03125-15.375zm0 16.0625c13.1875 0 26.40625 4.09375 37.6875 12.28125l3.75 2.71875 21.9375 16 6.71875 4.875c6.21875 4.46875 9.90625 11.75 9.90625 19.4375v15.6875c0 4.40625-3.59375 8-8 8h-144c-4.40625 0-8-3.59375-8-8v-15.6875c0-7.6875 3.6875-14.96875 9.90625-19.4375l6.71875-4.875 21.9375-16 3.75-2.71875c11.28125-8.1875 24.5-12.28125 37.6875-12.28125zm0 7c-13.25 0-24 10.75-24 24s10.75 24 24 24 24-10.75 24-24-10.75-24-24-24zm-184 24h96.25c-5.28125 6.875-8.25 15.4375-8.25 24.3125v7.6875h-48c-8.8125 0-16 7.1875-16 16v336c0 8.8125 7.1875 16 16 16h225.375c6.375 0 12.46875-2.5 16.9375-7.03125l54.65625-54.65625c4.53125-4.46875 7.03125-10.5625 7.03125-16.9375v-273.375c0-8.8125-7.1875-16-16-16h-48v-7.6875c0-8.875-2.96875-17.4375-8.25-24.3125h96.25c4.40625 0 8 3.59375 8 8v416c0 4.40625-3.59375 8-8 8h-368c-4.40625 0-8-3.59375-8-8v-416c0-4.40625 3.59375-8 8-8zm40 48h49.4375c3.28125 9.28125 12.15625 16 22.5625 16h144c10.40625 0 19.28125-6.71875 22.5625-16h49.4375v272h-48c-8.8125 0-16 7.1875-16 16v48h-224zm24 32c-4.40625 0-8 3.59375-8 8v16c0 4.40625 3.59375 8 8 8s8-3.59375 8-8v-16c0-4.40625-3.59375-8-8-8zm40 0c-4.40625 0-8 3.59375-8 8v16c0 4.40625 3.59375 8 8 8s8-3.59375 8-8v-16c0-4.40625-3.59375-8-8-8zm40 0c-4.40625 0-8 3.59375-8 8v16c0 4.40625 3.59375 8 8 8s8-3.59375 8-8v-16c0-4.40625-3.59375-8-8-8zm40 0c-4.40625 0-8 3.59375-8 8v16c0 4.40625 3.59375 8 8 8s8-3.59375 8-8v-16c0-4.40625-3.59375-8-8-8zm40 0c-4.40625 0-8 3.59375-8 8v16c0 4.40625 3.59375 8 8 8s8-3.59375 8-8v-16c0-4.40625-3.59375-8-8-8zm40 0c-4.40625 0-8 3.59375-8 8v16c0 4.40625 3.59375 8 8 8s8-3.59375 8-8v-16c0-4.40625-3.59375-8-8-8zm40 0c-4.40625 0-8 3.59375-8 8v16c0 4.40625 3.59375 8 8 8s8-3.59375 8-8v-16c0-4.40625-3.59375-8-8-8zm-16 80c-2.03125 0-4.09375.78125-5.65625 2.34375l-26.34375 26.34375-10.34375-10.34375c-3.125-3.125-8.1875-3.125-11.3125 0s-3.125 8.1875 0 11.3125l16 16c1.5625 1.5625 3.59375 2.34375 5.65625 2.34375s4.09375-.78125 5.65625-2.34375l32-32c3.125-3.125 3.125-8.1875 0-11.3125-1.5625-1.5625-3.625-2.34375-5.65625-2.34375zm-200 16c-4.40625 0-8 3.59375-8 8s3.59375 8 8 8h48c4.40625 0 8-3.59375 8-8s-3.59375-8-8-8zm80 0c-4.40625 0-8 3.59375-8 8s3.59375 8 8 8h32c4.40625 0 8-3.59375 8-8s-3.59375-8-8-8zm120 64c-2.03125 0-4.09375.78125-5.65625 2.34375l-26.34375 26.34375-10.34375-10.34375c-3.125-3.125-8.1875-3.125-11.3125 0s-3.125 8.1875 0 11.3125l16 16c1.5625 1.5625 3.59375 2.34375 5.65625 2.34375s4.09375-.78125 5.65625-2.34375l32-32c3.125-3.125 3.125-8.1875 0-11.3125-1.5625-1.5625-3.625-2.34375-5.65625-2.34375zm-200 16c-4.40625 0-8 3.59375-8 8s3.59375 8 8 8h112c4.40625 0 8-3.59375 8-8s-3.59375-8-8-8zm192 80h36.71875l-36.71875 36.71875zm0 0" fill="#003e6b"/></svg>