<?xml version="1.0" encoding="UTF-8"?>
<svg xmlns="http://www.w3.org/2000/svg" viewBox="0 0 64 64" width="64px" height="64px">
<g id="surface12909689">
<path style=" stroke:none;fill-rule:nonzero;fill:rgb(0%,24.313726%,41.960785%);fill-opacity:1;" d="M 61.273438 6.582031 C 61.089844 6.59375 60.90625 6.632812 60.722656 6.695312 L 4.492188 26.648438 C 3.398438 27.035156 2.644531 27.988281 2.515625 29.136719 C 2.382812 30.285156 2.90625 31.386719 3.882812 32.003906 L 17.402344 40.609375 L 22.027344 57.570312 C 22.269531 58.457031 23.039062 59.046875 23.953125 59.046875 C 23.960938 59.046875 23.972656 59.046875 23.980469 59.046875 C 24.6875 59.035156 25.300781 58.671875 25.652344 58.105469 C 25.699219 58.058594 25.757812 58.035156 25.796875 57.984375 L 32.542969 49.046875 L 44.242188 56.429688 C 44.730469 56.738281 45.28125 56.894531 45.839844 56.894531 C 46.1875 56.894531 46.53125 56.832031 46.871094 56.710938 C 47.75 56.390625 48.414062 55.695312 48.699219 54.808594 L 63.296875 9.1875 C 63.53125 8.457031 63.335938 7.675781 62.785156 7.140625 C 62.375 6.742188 61.824219 6.546875 61.273438 6.582031 Z M 57.65625 9.90625 L 17.96875 38.597656 L 4.957031 30.316406 C 4.625 30.109375 4.457031 29.75 4.5 29.359375 C 4.546875 28.972656 4.789062 28.664062 5.15625 28.53125 Z M 60.628906 10.96875 L 48.335938 49.390625 C 48.3125 49.371094 48.300781 49.351562 48.277344 49.335938 C 47.804688 49.050781 47.1875 49.203125 46.90625 49.675781 L 45.875 51.390625 C 45.589844 51.867188 45.746094 52.480469 46.21875 52.765625 C 46.378906 52.863281 46.554688 52.90625 46.734375 52.90625 C 46.917969 52.90625 47.101562 52.851562 47.261719 52.75 L 46.796875 54.199219 C 46.703125 54.496094 46.480469 54.726562 46.1875 54.832031 C 45.894531 54.9375 45.578125 54.90625 45.3125 54.738281 L 29.546875 44.796875 Z M 54.578125 14.601562 L 27.265625 44.324219 C 27.253906 44.332031 27.25 44.351562 27.242188 44.359375 C 27.1875 44.425781 27.148438 44.507812 27.109375 44.585938 C 27.089844 44.636719 27.058594 44.675781 27.046875 44.730469 C 27.042969 44.738281 27.035156 44.746094 27.03125 44.757812 L 23.957031 57.046875 L 19.328125 40.082031 Z M 10.617188 27.597656 C 10.230469 27.542969 9.832031 27.71875 9.617188 28.078125 L 8.589844 29.792969 C 8.304688 30.265625 8.457031 30.878906 8.929688 31.160156 C 9.09375 31.257812 9.269531 31.308594 9.445312 31.308594 C 9.785156 31.308594 10.117188 31.132812 10.304688 30.820312 L 11.332031 29.105469 C 11.617188 28.632812 11.464844 28.015625 10.988281 27.734375 C 10.871094 27.660156 10.746094 27.617188 10.617188 27.597656 Z M 14.902344 30.175781 C 14.515625 30.121094 14.117188 30.296875 13.90625 30.652344 L 12.875 32.367188 C 12.589844 32.839844 12.742188 33.453125 13.21875 33.738281 C 13.378906 33.835938 13.554688 33.882812 13.730469 33.882812 C 14.070312 33.882812 14.402344 33.707031 14.589844 33.394531 L 15.621094 31.683594 C 15.902344 31.207031 15.75 30.59375 15.277344 30.308594 C 15.15625 30.238281 15.03125 30.195312 14.902344 30.175781 Z M 19.1875 32.75 C 18.800781 32.695312 18.402344 32.871094 18.1875 33.226562 L 17.160156 34.941406 C 16.875 35.414062 17.03125 36.03125 17.503906 36.3125 C 17.664062 36.410156 17.839844 36.457031 18.015625 36.457031 C 18.359375 36.457031 18.6875 36.285156 18.875 35.972656 L 19.90625 34.257812 C 20.1875 33.785156 20.035156 33.167969 19.5625 32.886719 C 19.445312 32.8125 19.316406 32.769531 19.1875 32.75 Z M 35.046875 41.476562 C 34.660156 41.421875 34.261719 41.597656 34.046875 41.953125 L 33.015625 43.667969 C 32.734375 44.140625 32.886719 44.753906 33.359375 45.039062 C 33.519531 45.136719 33.695312 45.183594 33.875 45.183594 C 34.214844 45.183594 34.546875 45.007812 34.734375 44.699219 L 35.761719 42.984375 C 36.046875 42.507812 35.894531 41.894531 35.421875 41.609375 C 35.300781 41.539062 35.171875 41.496094 35.046875 41.476562 Z M 14.15625 43.21875 C 13.902344 43.179688 13.636719 43.238281 13.410156 43.402344 L 10.910156 45.222656 C 10.464844 45.546875 10.367188 46.171875 10.691406 46.621094 C 10.886719 46.886719 11.191406 47.03125 11.5 47.03125 C 11.703125 47.03125 11.910156 46.96875 12.089844 46.839844 L 14.589844 45.015625 C 15.035156 44.691406 15.132812 44.066406 14.808594 43.621094 C 14.644531 43.394531 14.410156 43.261719 14.15625 43.21875 Z M 39.328125 44.050781 C 38.945312 43.996094 38.546875 44.171875 38.332031 44.527344 L 37.300781 46.242188 C 37.019531 46.714844 37.171875 47.328125 37.644531 47.613281 C 37.808594 47.710938 37.984375 47.757812 38.160156 47.757812 C 38.5 47.757812 38.832031 47.582031 39.015625 47.269531 L 40.046875 45.558594 C 40.332031 45.082031 40.179688 44.46875 39.703125 44.1875 C 39.585938 44.113281 39.457031 44.070312 39.328125 44.050781 Z M 28.636719 46.582031 L 30.847656 47.976562 L 27.015625 53.046875 Z M 43.613281 46.625 C 43.230469 46.574219 42.832031 46.75 42.621094 47.105469 L 41.589844 48.816406 C 41.304688 49.292969 41.460938 49.90625 41.933594 50.1875 C 42.09375 50.285156 42.273438 50.332031 42.449219 50.332031 C 42.789062 50.332031 43.117188 50.160156 43.304688 49.847656 L 44.332031 48.132812 C 44.617188 47.660156 44.464844 47.042969 43.988281 46.761719 C 43.871094 46.6875 43.742188 46.644531 43.613281 46.625 Z M 8.046875 47.675781 C 7.792969 47.636719 7.527344 47.691406 7.304688 47.855469 L 2.292969 51.507812 C 1.847656 51.832031 1.75 52.457031 2.074219 52.90625 C 2.269531 53.171875 2.574219 53.3125 2.882812 53.3125 C 3.085938 53.3125 3.292969 53.253906 3.46875 53.125 L 8.480469 49.46875 C 8.925781 49.144531 9.023438 48.519531 8.699219 48.074219 C 8.539062 47.851562 8.300781 47.714844 8.046875 47.675781 Z M 16.035156 49.328125 C 15.78125 49.289062 15.515625 49.34375 15.292969 49.507812 L 0.289062 60.441406 C -0.15625 60.769531 -0.253906 61.394531 0.0742188 61.839844 C 0.265625 62.109375 0.570312 62.25 0.882812 62.25 C 1.085938 62.25 1.289062 62.1875 1.46875 62.058594 L 16.46875 51.125 C 16.917969 50.796875 17.015625 50.171875 16.6875 49.726562 C 16.527344 49.503906 16.289062 49.367188 16.035156 49.328125 Z M 16.035156 49.328125 "/>
</g>
</svg>
