<svg height="64" viewBox="0 0 64 64" width="64" xmlns="http://www.w3.org/2000/svg"><path d="m61.273438 6.582031c-.183594.011719-.367188.050781-.550782.113281l-56.230468 19.953126c-1.09375.386718-1.847657 1.339843-1.976563 2.488281-.132813 1.148437.390625 2.25 1.367187 2.867187l13.519532 8.605469 4.625 16.960937c.242187.886719 1.011718 1.476563 1.925781 1.476563h.027344c.707031-.011719 1.320312-.375 1.671875-.941406.046875-.046875.105468-.070313.144531-.121094l6.746094-8.9375 11.699219 7.382813c.488281.308593 1.039062.464843 1.597656.464843.347656 0 .691406-.0625 1.03125-.183593.878906-.320313 1.542968-1.015626 1.828125-1.902344l14.597656-45.621094c.234375-.730469.039063-1.511719-.511719-2.046875-.410156-.398437-.960937-.59375-1.511718-.558594zm-3.617188 3.324219-39.6875 28.691406-13.011719-8.28125c-.332031-.207031-.5-.566406-.457031-.957031.046875-.386719.289062-.695313.65625-.828125zm2.972656 1.0625-12.292968 38.421875c-.023438-.019531-.035157-.039063-.058594-.054687-.472656-.285157-1.089844-.132813-1.371094.339843l-1.03125 1.714844c-.285156.476563-.128906 1.089844.34375 1.375.160156.097656.335938.140625.515625.140625.183594 0 .367187-.054688.527344-.15625l-.464844 1.449219c-.09375.296875-.316406.527343-.609375.632812s-.609375.074219-.875-.09375l-15.765625-9.941406zm-6.050781 3.632812-27.3125 29.722657c-.011719.007812-.015625.027343-.023437.035156-.054688.066406-.09375.148437-.132813.226563-.019531.050781-.050781.089843-.0625.144531-.003906.007812-.011719.015625-.015625.027343l-3.074219 12.289063-4.628906-16.964844zm-43.960937 12.996094c-.386719-.054687-.785157.121094-1 .480469l-1.027344 1.714844c-.285156.472656-.132813 1.085937.339844 1.367187.164062.097656.339843.148438.515624.148438.339844 0 .671876-.175782.859376-.488282l1.027343-1.714843c.285157-.472657.132813-1.089844-.34375-1.371094-.117187-.074219-.242187-.117187-.371093-.136719zm4.285156 2.578125c-.386719-.054687-.785156.121094-.996094.476563l-1.03125 1.714844c-.285156.472656-.132812 1.085937.34375 1.371093.160156.097657.335938.144531.511719.144531.339843 0 .671875-.175781.859375-.488281l1.03125-1.710937c.28125-.476563.128906-1.089844-.34375-1.375-.121094-.070313-.246094-.113282-.375-.132813zm4.285156 2.574219c-.386719-.054688-.785156.121094-1 .476562l-1.027344 1.714844c-.285156.472656-.128906 1.089844.34375 1.371094.160156.097656.335938.144531.511719.144531.34375 0 .671875-.171875.859375-.484375l1.03125-1.714844c.28125-.472656.128906-1.089843-.34375-1.371093-.117188-.074219-.246094-.117188-.375-.136719zm15.859375 8.726562c-.386719-.054687-.785156.121094-1 .476563l-1.03125 1.714844c-.28125.472656-.128906 1.085937.34375 1.371093.160156.097657.335937.144532.515625.144532.339844 0 .671875-.175782.859375-.484375l1.027344-1.714844c.285156-.476563.132812-1.089844-.339844-1.375-.121094-.070313-.25-.113281-.375-.132813zm-20.890625 1.742188c-.253906-.039062-.519531.019531-.746094.183594l-2.5 1.820312c-.445312.324219-.542968.949219-.21875 1.398438.195313.265625.5.410156.808594.410156.203125 0 .410156-.0625.589844-.191406l2.5-1.824219c.445312-.324219.542968-.949219.21875-1.394531-.164063-.226563-.398438-.359375-.652344-.402344zm25.171875.832031c-.382813-.054687-.78125.121094-.996094.476563l-1.03125 1.714844c-.28125.472656-.128906 1.085937.34375 1.371093.164063.097657.339844.144531.515625.144531.339844 0 .671875-.175781.855469-.488281l1.03125-1.710937c.285156-.476563.132813-1.089844-.34375-1.371094-.117187-.074219-.246094-.117188-.375-.136719zm-10.691406 2.53125 2.210937 1.394531-3.832031 5.070313zm14.976562.042969c-.382812-.050781-.78125.125-.992187.480469l-1.03125 1.710937c-.285156.476563-.128906 1.089844.34375 1.371094.160156.097656.339844.144531.515625.144531.339843 0 .667969-.171875.855469-.484375l1.027343-1.714844c.285157-.472656.132813-1.089843-.34375-1.371093-.117187-.074219-.246093-.117188-.375-.136719zm-35.566406 1.050781c-.253906-.039062-.519531.015625-.742187.179688l-5.011719 3.652343c-.445313.324219-.542969.949219-.21875 1.398438.195312.265625.5.40625.808593.40625.203126 0 .410157-.058594.585938-.1875l5.011719-3.65625c.445312-.324219.542969-.949219.21875-1.394531-.160157-.222657-.398438-.359375-.652344-.398438zm7.988281 1.652344c-.253906-.039063-.519531.015625-.742187.179687l-15.003907 10.933594c-.445312.328125-.542968.953125-.2148432 1.398438.1914062.269531.4960932.410156.8085932.410156.203126 0 .40625-.0625.585938-.191406l15-10.933594c.449219-.328125.546875-.953125.21875-1.398438-.160156-.222656-.398438-.359374-.652344-.398437zm0 0" fill="#003e6b"/></svg>