<svg height="512pt" viewBox="0 0 512 512" width="512pt" xmlns="http://www.w3.org/2000/svg"><path d="m132.46875 0c-38.15625 0-69.71875 29.8125-71.90625 67.875l-3.4375 60.125h-17.125c-13.21875 0-24 10.78125-24 24v64c0 13.21875 10.78125 24 24 24h10.75l-1.4375 24.75c-.875 15.25-1.3125 30.75-1.3125 46.09375v97.15625c0 19.3125 13.78125 35.46875 32 39.1875v32.8125c0 5.84375 1.6875 11.28125 4.46875 16h-60.46875c-4.40625 0-8 3.5625-8 8s3.59375 8 8 8h464c4.40625 0 8-3.5625 8-8s-3.59375-8-8-8h-60.46875c2.78125-4.71875 4.46875-10.15625 4.46875-16v-32.8125c18.21875-3.71875 32-19.875 32-39.1875v-97.15625c0-15.34375-.4375-30.84375-1.3125-46.09375l-1.4375-24.75h10.75c13.21875 0 24-10.78125 24-24v-64c0-13.21875-10.78125-24-24-24h-17.125l-3.4375-60.125c-2.1875-38.0625-33.75-67.875-71.90625-67.875zm0 16h247.0625c28.0625 0 51.5 20.71875 55.4375 48h-115.625c-.28125 0-.5.125-.75.15625-3.28125-9.375-12.125-16.15625-22.59375-16.15625h-80c-10.4375 0-19.21875 6.71875-22.53125 16.03125-.0625 0-.09375-.03125-.125-.03125h-116.28125c3.90625-27.28125 27.34375-48 55.40625-48zm83.53125 48h80c4.40625 0 8 3.59375 8 8s-3.59375 8-8 8h-80c-4.40625 0-8-3.59375-8-8s3.59375-8 8-8zm102.59375 15.84375c.25.03125.46875.15625.75.15625h116.78125l10.59375 185.65625c.125 2.4375.1875 4.875.3125 7.34375-.625.125-1.28125.1875-1.875.5l-21.34375 10.4375c-5.4375 2.65625-11.53125 4.0625-17.59375 4.0625h-7.03125c-3.71875-18.21875-19.875-32-39.1875-32s-35.46875 13.78125-39.1875 32h-214.25c-6.125 0-12.25-1.4375-17.71875-4.15625l-21.625-10.6875c-.71875-.34375-1.46875-.46875-2.21875-.59375.09375-2.28125.15625-4.625.3125-6.90625l10.5625-185.65625h117.46875c.03125 0 .0625-.03125.125-.03125 3.3125 9.3125 12.09375 16.03125 22.53125 16.03125h32v104c0 4.4375 3.59375 8 8 8s8-3.5625 8-8v-104h32c10.46875 0 19.3125-6.78125 22.59375-16.15625zm-278.59375 64.15625h16.21875l-4.59375 80h-11.625c-4.40625 0-8-3.59375-8-8v-64c0-4.40625 3.59375-8 8-8zm415.78125 0h16.21875c4.40625 0 8 3.59375 8 8v64c0 4.40625-3.59375 8-8 8h-11.625zm-199.78125 80c-4.40625 0-8 3.5625-8 8v32c0 4.4375 3.59375 8 8 8s8-3.5625 8-8v-32c0-4.4375-3.59375-8-8-8zm104 48c10.4375 0 19.21875 6.71875 22.53125 16h-45.03125c3.28125-9.28125 12.09375-16 22.5-16zm-295.6875 17.59375 17.4375 8.59375c7.65625 3.8125 16.25 5.8125 24.8125 5.8125h299.65625c8.46875 0 17-1.96875 24.625-5.71875l16.875-8.25c.15625 6.9375.28125 13.90625.28125 20.8125v97.15625c0 13.21875-10.78125 24-24 24h-336c-13.21875 0-24-10.78125-24-24v-97.15625c0-7.09375.09375-14.15625.3125-21.25zm31.6875 30.40625c-4.40625 0-8 3.5625-8 8v16c0 4.4375 3.59375 8 8 8s8-3.5625 8-8v-16c0-4.4375-3.59375-8-8-8zm40 0c-4.40625 0-8 3.5625-8 8v16c0 4.4375 3.59375 8 8 8s8-3.5625 8-8v-16c0-4.4375-3.59375-8-8-8zm40 0c-4.40625 0-8 3.5625-8 8v16c0 4.4375 3.59375 8 8 8s8-3.5625 8-8v-16c0-4.4375-3.59375-8-8-8zm40 0c-4.40625 0-8 3.5625-8 8v16c0 4.4375 3.59375 8 8 8s8-3.5625 8-8v-16c0-4.4375-3.59375-8-8-8zm40 0c-4.40625 0-8 3.5625-8 8v16c0 4.4375 3.59375 8 8 8s8-3.5625 8-8v-16c0-4.4375-3.59375-8-8-8zm40 0c-4.40625 0-8 3.5625-8 8v16c0 4.4375 3.59375 8 8 8s8-3.5625 8-8v-16c0-4.4375-3.59375-8-8-8zm40 0c-4.40625 0-8 3.5625-8 8v16c0 4.4375 3.59375 8 8 8s8-3.5625 8-8v-16c0-4.4375-3.59375-8-8-8zm40 0c-4.40625 0-8 3.5625-8 8v16c0 4.4375 3.59375 8 8 8s8-3.5625 8-8v-16c0-4.4375-3.59375-8-8-8zm40 0c-4.40625 0-8 3.5625-8 8v16c0 4.4375 3.59375 8 8 8s8-3.5625 8-8v-16c0-4.4375-3.59375-8-8-8zm-321.40625 41.125c-3.375.28125-6.59375 1.65625-9.1875 3.9375-3.4375 3.03125-5.40625 7.40625-5.40625 12v22.9375c0 8.8125 7.1875 16 16 16h48c8.8125 0 16-7.1875 16-16 0-17.71875-13.25-32.71875-30.84375-34.90625l-31.15625-3.90625c-1.15625-.15625-2.28125-.1875-3.40625-.0625zm322.8125 0c-1.125-.125-2.25-.09375-3.40625.0625l-31.15625 3.90625c-17.59375 2.1875-30.84375 17.1875-30.84375 34.90625 0 8.8125 7.1875 16 16 16h48c8.8125 0 16-7.1875 16-16v-22.9375c0-4.59375-1.96875-8.96875-5.40625-12-2.59375-2.28125-5.8125-3.65625-9.1875-3.9375zm-321.40625 15.9375 31.1875 3.90625c9.59375 1.1875 16.8125 9.375 16.8125 19.03125h-48zm320 0v22.9375h-48c0-9.65625 7.21875-17.84375 16.8125-19.03125zm-232.65625 6.9375c-4.40625 0-8 3.5625-8 8s3.59375 8 8 8h146c4.40625 0 8-3.5625 8-8s-3.59375-8-8-8zm-87.34375 64h48v32c0 8.8125-7.1875 16-16 16h-16c-8.8125 0-16-7.1875-16-16zm64 0h192v32c0 5.84375 1.6875 11.28125 4.46875 16h-200.9375c2.78125-4.71875 4.46875-10.15625 4.46875-16zm208 0h48v32c0 8.8125-7.1875 16-16 16h-16c-8.8125 0-16-7.1875-16-16zm0 0" fill="#003e6b"/></svg>