<svg clip-rule="evenodd" fill-rule="evenodd" stroke-linejoin="round" stroke-miterlimit="2" viewBox="0 0 100 100" xmlns="http://www.w3.org/2000/svg"><path d="m79.167 0h-58.334c-11.504 0-20.833 9.329-20.833 20.833v58.334c0 11.504 9.329 20.833 20.833 20.833h58.334c11.508 0 20.833-9.329 20.833-20.833v-58.334c0-11.504-9.325-20.833-20.833-20.833zm-.579 38.488c.87 19.237-13.475 40.687-38.876 40.687-7.725 0-14.912-2.262-20.966-6.146 7.258.854 14.5-1.158 20.25-5.662-5.988-.113-11.038-4.067-12.775-9.5 2.146.408 4.254.287 6.175-.234-6.579-1.32-11.117-7.245-10.971-13.583 1.842 1.025 3.954 1.642 6.192 1.713-6.088-4.071-7.813-12.113-4.234-18.263 6.746 8.275 16.825 13.721 28.192 14.292-1.996-8.554 4.5-16.792 13.329-16.792 3.929 0 7.488 1.658 9.979 4.321 3.117-.613 6.046-1.75 8.692-3.317-1.025 3.196-3.192 5.875-6.013 7.567 2.767-.333 5.405-1.067 7.855-2.154-1.83 2.733-4.15 5.141-6.83 7.071z" fill="#fff" fill-rule="nonzero"/></svg>