<?xml version="1.0" encoding="UTF-8" standalone="no"?><!DOCTYPE svg PUBLIC "-//W3C//DTD SVG 1.1//EN" "http://www.w3.org/Graphics/SVG/1.1/DTD/svg11.dtd"><svg width="100%" height="100%" viewBox="0 0 100 100" version="1.1" xmlns="http://www.w3.org/2000/svg" xmlns:xlink="http://www.w3.org/1999/xlink" xml:space="preserve" xmlns:serif="http://www.serif.com/" style="fill-rule:evenodd;clip-rule:evenodd;stroke-linejoin:round;stroke-miterlimit:2;"><path d="M79.167,0l-58.334,0c-11.504,0 -20.833,9.329 -20.833,20.833l0,58.334c0,11.504 9.329,20.833 20.833,20.833l58.334,0c11.508,0 20.833,-9.329 20.833,-20.833l0,-58.334c0,-11.504 -9.325,-20.833 -20.833,-20.833Zm-0.579,38.488c0.87,19.237 -13.475,40.687 -38.876,40.687c-7.725,0 -14.912,-2.262 -20.966,-6.146c7.258,0.854 14.5,-1.158 20.25,-5.662c-5.988,-0.113 -11.038,-4.067 -12.775,-9.5c2.146,0.408 4.254,0.287 6.175,-0.234c-6.579,-1.32 -11.117,-7.245 -10.971,-13.583c1.842,1.025 3.954,1.642 6.192,1.713c-6.088,-4.071 -7.813,-12.113 -4.234,-18.263c6.746,8.275 16.825,13.721 28.192,14.292c-1.996,-8.554 4.5,-16.792 13.329,-16.792c3.929,0 7.488,1.658 9.979,4.321c3.117,-0.613 6.046,-1.75 8.692,-3.317c-1.025,3.196 -3.192,5.875 -6.013,7.567c2.767,-0.333 5.405,-1.067 7.855,-2.154c-1.83,2.733 -4.15,5.141 -6.83,7.071Z" style="fill:#fff;fill-rule:nonzero;"/></svg>